SplineFontDB: 3.2
FontName: Fira_Comp_Regular
FullName: Fira Comp Regular
FamilyName: Fira Comp
Weight: Regular
Copyright: https://github.com/Photonico/Fira_Comp\n
Version: 0.2
ItalicAngle: 0
UnderlinePosition: -100
UnderlineWidth: 40
Ascent: 1638
Descent: 410
InvalidEm: 0
sfntRevision: 0x00003333
LayerCount: 2
Layer: 0 1 "Back" 1
Layer: 1 1 "Fore" 0
XUID: [1021 521 7467849 3363016]
StyleMap: 0x0040
FSType: 0
OS2Version: 4
OS2_WeightWidthSlopeOnly: 0
OS2_UseTypoMetrics: 1
CreationTime: 1568041596
ModificationTime: 1583237378
PfmFamily: 17
TTFWeight: 400
TTFWidth: 5
LineGap: 0
VLineGap: 0
Panose: 2 11 8 9 5 0 0 2 0 4
OS2TypoAscent: 1800
OS2TypoAOffset: 0
OS2TypoDescent: -600
OS2TypoDOffset: 0
OS2TypoLinegap: 0
OS2WinAscent: 1800
OS2WinAOffset: 0
OS2WinDescent: 600
OS2WinDOffset: 0
HheadAscent: 1800
HheadAOffset: 0
HheadDescent: -600
HheadDOffset: 0
OS2SubXSize: 1331
OS2SubYSize: 1229
OS2SubXOff: 0
OS2SubYOff: 153
OS2SupXSize: 1331
OS2SupYSize: 1229
OS2SupXOff: 0
OS2SupYOff: 716
OS2StrikeYSize: 53
OS2StrikeYPos: 664
OS2CapHeight: 1377
OS2XHeight: 1053
OS2Vendor: 'CTDB'
OS2CodePages: 6000009f.00000000
OS2UnicodeRanges: 40000287.02003901.00000000.00000000
Lookup: 1 0 0 "'aalt' Access All Alternates lookup 0" { "'aalt' Access All Alternates lookup 0 subtable"  } ['aalt' ('DFLT' <'dflt' > 'cyrl' <'dflt' > 'grek' <'dflt' > 'latn' <'AFK ' 'AZE ' 'CAT ' 'CRT ' 'KAZ ' 'MOL ' 'PLK ' 'ROM ' 'TAT ' 'TRK ' 'dflt' > 'zinh' <'dflt' > 'zyyy' <'dflt' > ) ]
Lookup: 3 0 0 "'aalt' Access All Alternates lookup 1" { "'aalt' Access All Alternates lookup 1 subtable"  } ['aalt' ('DFLT' <'dflt' > 'cyrl' <'dflt' > 'grek' <'dflt' > 'latn' <'AFK ' 'AZE ' 'CAT ' 'CRT ' 'KAZ ' 'MOL ' 'PLK ' 'ROM ' 'TAT ' 'TRK ' 'dflt' > 'zinh' <'dflt' > 'zyyy' <'dflt' > ) ]

StartChar: .notdef
Encoding: 1114112 -1 0
Width: 1260
Flags: W
LayerCount: 2
Fore
SplineSet
1071 2206 m 1,0,-1
 1071 -735 l 1,1,-1
 189 -735 l 1,2,-1
 189 2206 l 1,3,-1
 1071 2206 l 1,0,-1
958 2096 m 1,4,-1
 305 2096 l 1,5,-1
 305 -626 l 1,6,-1
 958 -626 l 1,7,-1
 958 2096 l 1,4,-1
628.5 327 m 128,-1,9
 612 313 612 313 592 313 c 0,10,11
 571 313 571 313 555.5 326.5 c 128,-1,12
 540 340 540 340 540 363 c 2,13,-1
 540 540 l 1,14,15
 616 544 616 544 656.5 561 c 128,-1,16
 697 578 697 578 714 611 c 128,-1,17
 731 644 731 644 731 702 c 0,18,19
 731 771 731 771 703.5 809 c 128,-1,20
 676 847 676 847 603 847 c 0,21,22
 570 847 570 847 545.5 841.5 c 128,-1,23
 521 836 521 836 494 823 c 0,24,25
 478 817 478 817 466 817 c 0,26,27
 443 817 443 817 429.5 830.5 c 128,-1,28
 416 844 416 844 416 865 c 0,29,30
 416 904 416 904 478 925.5 c 128,-1,31
 540 947 540 947 611 947 c 0,32,33
 737 947 737 947 790.5 880 c 128,-1,34
 844 813 844 813 844 706 c 0,35,36
 844 595 844 595 796.5 534.5 c 128,-1,37
 749 474 749 474 645 458 c 1,38,-1
 645 363 l 2,39,8
 645 341 645 341 628.5 327 c 128,-1,9
540 231 m 128,-1,41
 561 252 561 252 592 252 c 0,42,43
 624 252 624 252 645 231 c 128,-1,44
 666 210 666 210 666 179 c 0,45,46
 666 145 666 145 645 123 c 128,-1,47
 624 101 624 101 592 101 c 256,48,49
 560 101 560 101 539.5 123 c 128,-1,50
 519 145 519 145 519 179 c 0,51,40
 519 210 519 210 540 231 c 128,-1,41
EndSplineSet
EndChar

StartChar: exclam
Encoding: 33 33 4
Width: 1260
GlyphClass: 2
Flags: W
LayerCount: 2
Fore
SplineSet
715 486 m 1,0,-1
 539 486 l 1,1,-1
 515 1447 l 1,2,-1
 737 1447 l 1,3,-1
 715 486 l 1,0,-1
704 251 m 128,-1,5
 738 231 738 231 758 197.5 c 128,-1,6
 778 164 778 164 778 124 c 0,7,8
 778 83 778 83 758 48.5 c 128,-1,9
 738 14 738 14 704 -6 c 128,-1,10
 670 -26 670 -26 628 -26 c 0,11,12
 587 -26 587 -26 553.5 -6 c 128,-1,13
 520 14 520 14 500.5 48.5 c 128,-1,14
 481 83 481 83 481 124 c 0,15,16
 481 164 481 164 500.5 197.5 c 128,-1,17
 520 231 520 231 553.5 251 c 128,-1,18
 587 271 587 271 628 271 c 0,19,4
 670 271 670 271 704 251 c 128,-1,5
EndSplineSet
Substitution2: "<2,2> Cursive lookup 874 nested-substitutions 0 subtable" numbersign_exclam.liga
Substitution2: "<2,2> Cursive lookup 872 nested-substitutions 0 subtable" numbersign_exclam.liga
Substitution2: "<2,2> Cursive lookup 870 nested-substitutions 0 subtable" numbersign_exclam.liga
Substitution2: "<2,2> Cursive lookup 868 nested-substitutions 0 subtable" numbersign_exclam.liga
Substitution2: "<2,2> Cursive lookup 866 nested-substitutions 0 subtable" numbersign_exclam.liga
Substitution2: "<2,2> Cursive lookup 864 nested-substitutions 0 subtable" numbersign_exclam.liga
Substitution2: "<2,2> Cursive lookup 862 nested-substitutions 0 subtable" numbersign_exclam.liga
Substitution2: "<2,2> Cursive lookup 860 nested-substitutions 0 subtable" numbersign_exclam.liga
Substitution2: "<2,2> Cursive lookup 858 nested-substitutions 0 subtable" numbersign_exclam.liga
Substitution2: "<2,2> Cursive lookup 856 nested-substitutions 0 subtable" numbersign_exclam.liga
Substitution2: "<2,2> Cursive lookup 854 nested-substitutions 0 subtable" numbersign_exclam.liga
Substitution2: "<2,2> Cursive lookup 852 nested-substitutions 0 subtable" numbersign_exclam.liga
Substitution2: "<2,2> Cursive lookup 850 nested-substitutions 0 subtable" numbersign_exclam.liga
Substitution2: "<2,2> Cursive lookup 848 nested-substitutions 0 subtable" numbersign_exclam.liga
Substitution2: "<2,2> Cursive lookup 846 nested-substitutions 0 subtable" numbersign_exclam.liga
Substitution2: "<2,2> Cursive lookup 782 nested-substitutions 0 subtable" LIG
Substitution2: "<2,2> Cursive lookup 780 nested-substitutions 0 subtable" LIG
Substitution2: "<2,2> Cursive lookup 778 nested-substitutions 0 subtable" LIG
Substitution2: "<2,2> Cursive lookup 776 nested-substitutions 0 subtable" LIG
Substitution2: "<2,2> Cursive in Latin lookup 774 nested-substitutions 0 subtable" LIG
Substitution2: "<2,2> Cursive in Latin lookup 772 nested-substitutions 0 subtable" LIG
Substitution2: "<2,2> Cursive lookup 770 nested-substitutions 0 subtable" LIG
Substitution2: "<2,2> Cursive lookup 768 nested-substitutions 0 subtable" exclam_exclam.liga
Substitution2: "<2,2> Cursive lookup 766 nested-substitutions 0 subtable" LIG
Substitution2: "<2,2> Cursive lookup 764 nested-substitutions 0 subtable" LIG
Substitution2: "<2,2> Cursive lookup 432 nested-substitutions 0 subtable" LIG
Substitution2: "<2,2> Cursive lookup 430 nested-substitutions 0 subtable" LIG
Substitution2: "<2,2> Cursive lookup 428 nested-substitutions 0 subtable" LIG
Substitution2: "<2,2> Cursive lookup 426 nested-substitutions 0 subtable" LIG
Substitution2: "<2,2> Cursive lookup 424 nested-substitutions 0 subtable" LIG
Substitution2: "<2,2> Cursive lookup 422 nested-substitutions 0 subtable" LIG
Substitution2: "<2,2> Cursive lookup 420 nested-substitutions 0 subtable" LIG
Substitution2: "<2,2> Cursive lookup 396 nested-substitutions 0 subtable" LIG
Substitution2: "<2,2> Cursive lookup 394 nested-substitutions 0 subtable" LIG
Substitution2: "<2,2> Cursive lookup 314 nested-substitutions 0 subtable" LIG
Substitution2: "<2,2> Cursive lookup 312 nested-substitutions 0 subtable" LIG
Substitution2: "<2,2> Cursive lookup 310 nested-substitutions 0 subtable" LIG
Substitution2: "<2,2> Cursive lookup 308 nested-substitutions 0 subtable" LIG
Substitution2: "Single Substitution lookup 262 subtable" numbersign_exclam.liga
Substitution2: "Single Substitution lookup 254 subtable" LIG
Substitution2: "Single Substitution lookup 253 subtable" exclam_exclam.liga
Substitution2: "Single Substitution lookup 252 subtable" LIG
Substitution2: "Single Substitution lookup 206 subtable" LIG
Substitution2: "Single Substitution lookup 199 subtable" LIG
Substitution2: "Single Substitution lookup 189 subtable" LIG
AlternateSubs2: "'aalt' Access All Alternates lookup 1 subtable" LIG exclam_exclam.liga numbersign_exclam.liga
EndChar

StartChar: quotedbl
Encoding: 34 34 5
Width: 1260
GlyphClass: 2
Flags: W
LayerCount: 2
Fore
SplineSet
332 1552 m 1,0,-1
 568 1552 l 1,1,-1
 535 1000 l 1,2,-1
 367 1000 l 1,3,-1
 332 1552 l 1,0,-1
692 1552 m 1,4,-1
 928 1552 l 1,5,-1
 894 1000 l 1,6,-1
 726 1000 l 1,7,-1
 692 1552 l 1,4,-1
EndSplineSet
EndChar

StartChar: numbersign
Encoding: 35 35 6
Width: 1260
GlyphClass: 2
Flags: W
LayerCount: 2
Fore
SplineSet
914 498 m 1,0,-1
 1078 498 l 1,1,-1
 1078 348 l 1,2,-1
 893 348 l 1,3,-1
 849 0 l 1,4,-1
 677 0 l 1,5,-1
 724 348 l 1,6,-1
 435 348 l 1,7,-1
 390 0 l 1,8,-1
 218 0 l 1,9,-1
 265 348 l 1,10,-1
 105 348 l 1,11,-1
 105 498 l 1,12,-1
 285 498 l 1,13,-1
 347 955 l 1,14,-1
 183 955 l 1,15,-1
 183 1106 l 1,16,-1
 367 1106 l 1,17,-1
 412 1447 l 1,18,-1
 583 1447 l 1,19,-1
 535 1106 l 1,20,-1
 826 1106 l 1,21,-1
 871 1447 l 1,22,-1
 1042 1447 l 1,23,-1
 994 1106 l 1,24,-1
 1155 1106 l 1,25,-1
 1155 955 l 1,26,-1
 975 955 l 1,27,-1
 914 498 l 1,0,-1
744 498 m 1,28,-1
 806 955 l 1,29,-1
 516 955 l 1,30,-1
 455 498 l 1,31,-1
 744 498 l 1,28,-1
EndSplineSet
Substitution2: "<2,2> Cursive lookup 892 nested-substitutions 0 subtable" LIG
Substitution2: "<2,2> Cursive lookup 890 nested-substitutions 0 subtable" LIG
Substitution2: "<2,2> Cursive lookup 888 nested-substitutions 0 subtable" LIG
Substitution2: "<2,2> Cursive lookup 886 nested-substitutions 0 subtable" LIG
Substitution2: "<2,2> Cursive lookup 884 nested-substitutions 0 subtable" LIG
Substitution2: "<2,2> Cursive lookup 882 nested-substitutions 0 subtable" LIG
Substitution2: "<2,2> Cursive lookup 880 nested-substitutions 0 subtable" LIG
Substitution2: "<2,2> Cursive lookup 878 nested-substitutions 0 subtable" LIG
Substitution2: "<2,2> Cursive lookup 876 nested-substitutions 0 subtable" numbersign_numbersign.liga
Substitution2: "<2,2> Cursive lookup 874 nested-substitutions 0 subtable" LIG
Substitution2: "<2,2> Cursive lookup 872 nested-substitutions 0 subtable" LIG
Substitution2: "<2,2> Cursive lookup 870 nested-substitutions 0 subtable" LIG
Substitution2: "<2,2> Cursive lookup 868 nested-substitutions 0 subtable" LIG
Substitution2: "<2,2> Cursive lookup 866 nested-substitutions 0 subtable" LIG
Substitution2: "<2,2> Cursive lookup 864 nested-substitutions 0 subtable" LIG
Substitution2: "<2,2> Cursive lookup 862 nested-substitutions 0 subtable" LIG
Substitution2: "<2,2> Cursive lookup 860 nested-substitutions 0 subtable" LIG
Substitution2: "<2,2> Cursive lookup 858 nested-substitutions 0 subtable" LIG
Substitution2: "<2,2> Cursive lookup 856 nested-substitutions 0 subtable" LIG
Substitution2: "<2,2> Cursive lookup 854 nested-substitutions 0 subtable" LIG
Substitution2: "<2,2> Cursive lookup 852 nested-substitutions 0 subtable" LIG
Substitution2: "<2,2> Cursive lookup 850 nested-substitutions 0 subtable" LIG
Substitution2: "<2,2> Cursive lookup 848 nested-substitutions 0 subtable" LIG
Substitution2: "<2,2> Cursive lookup 846 nested-substitutions 0 subtable" LIG
Substitution2: "<2,2> Cursive lookup 736 nested-substitutions 0 subtable" bracketright_numbersign.liga
Substitution2: "<2,2> Cursive lookup 734 nested-substitutions 0 subtable" bracketright_numbersign.liga
Substitution2: "<2,2> Cursive lookup 732 nested-substitutions 0 subtable" bracketright_numbersign.liga
Substitution2: "<2,2> Cursive lookup 730 nested-substitutions 0 subtable" bracketright_numbersign.liga
Substitution2: "<2,2> Cursive lookup 728 nested-substitutions 0 subtable" bracketright_numbersign.liga
Substitution2: "<2,2> Cursive lookup 614 nested-substitutions 0 subtable" LIG
Substitution2: "<2,2> Cursive lookup 612 nested-substitutions 0 subtable" LIG
Substitution2: "<2,2> Cursive lookup 610 nested-substitutions 0 subtable" LIG
Substitution2: "<2,2> Cursive lookup 608 nested-substitutions 0 subtable" LIG
Substitution2: "<2,2> Cursive lookup 606 nested-substitutions 0 subtable" LIG
Substitution2: "<2,2> Cursive lookup 604 nested-substitutions 0 subtable" LIG
Substitution2: "<2,2> Cursive lookup 602 nested-substitutions 0 subtable" LIG
Substitution2: "<2,2> Cursive lookup 600 nested-substitutions 0 subtable" LIG
Substitution2: "<2,2> Cursive lookup 598 nested-substitutions 0 subtable" numbersign_numbersign_numbersign.liga
Substitution2: "<2,2> Cursive lookup 596 nested-substitutions 0 subtable" numbersign_numbersign_numbersign.liga
Substitution2: "<2,2> Cursive lookup 594 nested-substitutions 0 subtable" numbersign_numbersign_numbersign.liga
Substitution2: "<2,2> Cursive lookup 592 nested-substitutions 0 subtable" numbersign_numbersign_numbersign.liga
Substitution2: "<2,2> Cursive lookup 328 nested-substitutions 0 subtable" LIG
Substitution2: "<2,2> Cursive lookup 326 nested-substitutions 0 subtable" LIG
Substitution2: "<2,2> Cursive lookup 324 nested-substitutions 0 subtable" LIG
Substitution2: "<2,2> Cursive lookup 322 nested-substitutions 0 subtable" LIG
Substitution2: "<2,2> Cursive lookup 320 nested-substitutions 0 subtable" LIG
Substitution2: "<2,2> Cursive lookup 318 nested-substitutions 0 subtable" LIG
Substitution2: "<2,2> Cursive lookup 316 nested-substitutions 0 subtable" LIG
Substitution2: "<2,2> Cursive lookup 314 nested-substitutions 0 subtable" numbersign_numbersign_numbersign_numbersign.liga
Substitution2: "<2,2> Cursive lookup 312 nested-substitutions 0 subtable" numbersign_numbersign_numbersign_numbersign.liga
Substitution2: "<2,2> Cursive lookup 310 nested-substitutions 0 subtable" numbersign_numbersign_numbersign_numbersign.liga
Substitution2: "<2,2> Cursive lookup 308 nested-substitutions 0 subtable" numbersign_numbersign_numbersign_numbersign.liga
Substitution2: "Single Substitution lookup 264 subtable" LIG
Substitution2: "Single Substitution lookup 263 subtable" numbersign_numbersign.liga
Substitution2: "Single Substitution lookup 262 subtable" LIG
Substitution2: "Single Substitution lookup 248 subtable" bracketright_numbersign.liga
Substitution2: "Single Substitution lookup 233 subtable" LIG
Substitution2: "Single Substitution lookup 232 subtable" numbersign_numbersign_numbersign.liga
Substitution2: "Single Substitution lookup 190 subtable" LIG
Substitution2: "Single Substitution lookup 189 subtable" numbersign_numbersign_numbersign_numbersign.liga
AlternateSubs2: "'aalt' Access All Alternates lookup 1 subtable" numbersign_numbersign_numbersign_numbersign.liga LIG numbersign_numbersign_numbersign.liga bracketright_numbersign.liga numbersign_numbersign.liga
EndChar

StartChar: dollar
Encoding: 36 36 7
Width: 1260
GlyphClass: 2
Flags: W
LayerCount: 2
Fore
SplineSet
727 1469 m 1,0,1
 847 1457 847 1457 946 1412 c 128,-1,2
 1045 1367 1045 1367 1117 1301 c 1,3,-1
 1001 1180 l 1,4,5
 881 1290 881 1290 727 1310 c 1,6,-1
 727 849 l 1,7,8
 918 787 918 787 1027 683.5 c 128,-1,9
 1136 580 1136 580 1136 403 c 0,10,11
 1136 298 1136 298 1089.5 209 c 128,-1,12
 1043 120 1043 120 950.5 59.5 c 128,-1,13
 858 -1 858 -1 727 -18 c 1,14,-1
 727 -325 l 1,15,-1
 581 -325 l 1,16,-1
 581 -24 l 1,17,18
 441 -15 441 -15 328.5 40 c 128,-1,19
 216 95 216 95 135 174 c 1,20,-1
 250 301 l 1,21,22
 396 155 396 155 581 141 c 1,23,-1
 581 698 l 1,24,25
 385 763 385 763 287.5 861 c 128,-1,26
 190 959 190 959 190 1103 c 0,27,28
 190 1194 190 1194 234.5 1273 c 128,-1,29
 279 1352 279 1352 367.5 1404.5 c 128,-1,30
 456 1457 456 1457 581 1469 c 1,31,-1
 581 1784 l 1,32,-1
 727 1784 l 1,33,-1
 727 1469 l 1,0,1
446 1241.5 m 128,-1,35
 396 1192 396 1192 396 1111 c 0,36,37
 396 1063 396 1063 412.5 1026.5 c 128,-1,38
 429 990 429 990 468.5 959 c 128,-1,39
 508 928 508 928 581 898 c 1,40,-1
 581 1305 l 1,41,34
 496 1291 496 1291 446 1241.5 c 128,-1,35
727 149 m 1,42,43
 927 190 927 190 926 395 c 0,44,45
 926 481 926 481 881.5 541 c 128,-1,46
 837 601 837 601 727 647 c 1,47,-1
 727 149 l 1,42,43
EndSplineSet
Substitution2: "<2,2> Cursive lookup 842 nested-substitutions 0 subtable" less_dollar.liga
Substitution2: "<2,2> Cursive lookup 840 nested-substitutions 0 subtable" less_dollar.liga
Substitution2: "<2,2> Cursive lookup 838 nested-substitutions 0 subtable" less_dollar.liga
Substitution2: "<2,2> Cursive lookup 836 nested-substitutions 0 subtable" less_dollar.liga
Substitution2: "<2,2> Cursive lookup 834 nested-substitutions 0 subtable" less_dollar.liga
Substitution2: "<2,2> Cursive lookup 832 nested-substitutions 0 subtable" less_dollar.liga
Substitution2: "<2,2> Cursive lookup 830 nested-substitutions 0 subtable" less_dollar.liga
Substitution2: "<2,2> Cursive lookup 828 nested-substitutions 0 subtable" less_dollar.liga
Substitution2: "<2,2> Cursive lookup 826 nested-substitutions 0 subtable" less_dollar.liga
Substitution2: "<2,2> Cursive lookup 824 nested-substitutions 0 subtable" less_dollar.liga
Substitution2: "<2,2> Cursive lookup 822 nested-substitutions 0 subtable" less_dollar.liga
Substitution2: "<2,2> Cursive lookup 820 nested-substitutions 0 subtable" less_dollar.liga
Substitution2: "<2,2> Cursive lookup 818 nested-substitutions 0 subtable" less_dollar.liga
Substitution2: "<2,2> Cursive lookup 816 nested-substitutions 0 subtable" less_dollar.liga
Substitution2: "<2,2> Cursive lookup 814 nested-substitutions 0 subtable" less_dollar.liga
Substitution2: "<2,2> Cursive lookup 756 nested-substitutions 0 subtable" LIG
Substitution2: "<2,2> Cursive lookup 754 nested-substitutions 0 subtable" LIG
Substitution2: "<2,2> Cursive lookup 752 nested-substitutions 0 subtable" LIG
Substitution2: "<2,2> Cursive lookup 524 nested-substitutions 0 subtable" LIG
Substitution2: "<2,2> Cursive lookup 522 nested-substitutions 0 subtable" LIG
Substitution2: "<2,2> Cursive lookup 520 nested-substitutions 0 subtable" LIG
Substitution2: "<2,2> Cursive lookup 518 nested-substitutions 0 subtable" LIG
Substitution2: "<2,2> Cursive lookup 516 nested-substitutions 0 subtable" LIG
Substitution2: "<2,2> Cursive lookup 514 nested-substitutions 0 subtable" LIG
Substitution2: "Single Substitution lookup 260 subtable" less_dollar.liga
Substitution2: "Single Substitution lookup 250 subtable" LIG
Substitution2: "Single Substitution lookup 221 subtable" LIG
Substitution2: "'ss04' Style Set 4 lookup 177 subtable" dollar.ss05
AlternateSubs2: "'aalt' Access All Alternates lookup 1 subtable" LIG less_dollar.liga
EndChar

StartChar: percent
Encoding: 37 37 8
Width: 1260
GlyphClass: 2
Flags: W
LayerCount: 2
Fore
SplineSet
1156 1415 m 1,0,-1
 207 -45 l 1,1,-1
 86 28 l 1,2,-1
 1032 1488 l 1,3,-1
 1156 1415 l 1,0,-1
506.5 1429 m 128,-1,5
 576 1384 576 1384 612 1307.5 c 128,-1,6
 648 1231 648 1231 648 1138 c 0,7,8
 648 1046 648 1046 612 969 c 128,-1,9
 576 892 576 892 506.5 846 c 128,-1,10
 437 800 437 800 342 800 c 256,11,12
 247 800 247 800 177.5 846 c 128,-1,13
 108 892 108 892 71 969 c 128,-1,14
 34 1046 34 1046 34 1138 c 256,15,16
 34 1230 34 1230 70.5 1307 c 128,-1,17
 107 1384 107 1384 177.5 1429 c 128,-1,18
 248 1474 248 1474 342 1474 c 0,19,4
 437 1474 437 1474 506.5 1429 c 128,-1,5
242 1289.5 m 128,-1,21
 205 1238 205 1238 205 1138 c 0,22,23
 205 1040 205 1040 242 985.5 c 128,-1,24
 279 931 279 931 342 931 c 256,25,26
 405 931 405 931 441.5 983 c 128,-1,27
 478 1035 478 1035 478 1138 c 0,28,29
 478 1242 478 1242 442 1291.5 c 128,-1,30
 406 1341 406 1341 342 1341 c 0,31,20
 279 1341 279 1341 242 1289.5 c 128,-1,21
1086 615.5 m 128,-1,33
 1155 570 1155 570 1191.5 494 c 128,-1,34
 1228 418 1228 418 1228 325 c 0,35,36
 1228 233 1228 233 1191 156 c 128,-1,37
 1154 79 1154 79 1085.5 33 c 128,-1,38
 1017 -13 1017 -13 922 -13 c 256,39,40
 827 -13 827 -13 757.5 33 c 128,-1,41
 688 79 688 79 650.5 155.5 c 128,-1,42
 613 232 613 232 613 325 c 0,43,44
 613 417 613 417 650 493.5 c 128,-1,45
 687 570 687 570 757.5 615.5 c 128,-1,46
 828 661 828 661 922 661 c 0,47,32
 1017 661 1017 661 1086 615.5 c 128,-1,33
822 477 m 128,-1,49
 785 426 785 426 785 325 c 0,50,51
 785 228 785 228 822 173 c 128,-1,52
 859 118 859 118 922 118 c 256,53,54
 985 118 985 118 1021.5 170 c 128,-1,55
 1058 222 1058 222 1058 325 c 0,56,57
 1058 430 1058 430 1022 479 c 128,-1,58
 986 528 986 528 922 528 c 0,59,48
 859 528 859 528 822 477 c 128,-1,49
EndSplineSet
Substitution2: "<2,2> Cursive lookup 902 nested-substitutions 0 subtable" LIG
Substitution2: "<2,2> Cursive lookup 900 nested-substitutions 0 subtable" LIG
Substitution2: "<2,2> Cursive lookup 898 nested-substitutions 0 subtable" LIG
Substitution2: "<2,2> Cursive lookup 896 nested-substitutions 0 subtable" LIG
Substitution2: "<2,2> Cursive lookup 894 nested-substitutions 0 subtable" LIG
Substitution2: "<2,2> Cursive lookup 892 nested-substitutions 0 subtable" percent_percent.liga
Substitution2: "<2,2> Cursive lookup 890 nested-substitutions 0 subtable" percent_percent.liga
Substitution2: "<2,2> Cursive lookup 888 nested-substitutions 0 subtable" percent_percent.liga
Substitution2: "<2,2> Cursive lookup 886 nested-substitutions 0 subtable" percent_percent.liga
Substitution2: "<2,2> Cursive lookup 884 nested-substitutions 0 subtable" percent_percent.liga
Substitution2: "<2,2> Cursive lookup 882 nested-substitutions 0 subtable" percent_percent.liga
Substitution2: "<2,2> Cursive lookup 880 nested-substitutions 0 subtable" percent_percent.liga
Substitution2: "<2,2> Cursive lookup 878 nested-substitutions 0 subtable" percent_percent.liga
Substitution2: "Single Substitution lookup 265 subtable" LIG
Substitution2: "Single Substitution lookup 264 subtable" percent_percent.liga
AlternateSubs2: "'aalt' Access All Alternates lookup 1 subtable" percent_percent.liga LIG
EndChar

StartChar: ampersand
Encoding: 38 38 9
Width: 1260
GlyphClass: 2
Flags: W
LayerCount: 2
Fore
SplineSet
626 773 m 1,0,-1
 903 429 l 1,1,2
 973 548 973 548 1006 692 c 1,3,-1
 1176 644 l 1,4,5
 1176 644 1176 644 1176 644 c 1,6,7
 1123 443 1123 443 1012 294 c 1,8,-1
 1170 98 l 1,9,-1
 1170 98 l 1,10,-1
 1029 7 l 1,11,-1
 899 171 l 1,12,13
 727 -13 727 -13 493 -13 c 0,14,15
 306 -13 306 -13 199 92.5 c 128,-1,16
 92 198 92 198 92 383 c 0,17,18
 92 512 92 512 154.5 608.5 c 128,-1,19
 217 705 217 705 387 806 c 1,20,21
 226 996 226 996 226 1157 c 0,22,23
 226 1303 226 1303 320.5 1388 c 128,-1,24
 415 1473 415 1473 591 1473 c 0,25,26
 757 1473 757 1473 848.5 1388.5 c 128,-1,27
 940 1304 940 1304 940 1157 c 0,28,29
 940 957 940 957 626 773 c 1,0,-1
533 892 m 1,30,31
 665 970 665 970 714 1029 c 128,-1,32
 763 1088 763 1088 763 1161 c 128,-1,33
 763 1234 763 1234 714 1279.5 c 128,-1,34
 665 1325 665 1325 585 1325 c 0,35,36
 499 1325 499 1325 450.5 1281 c 128,-1,37
 402 1237 402 1237 402 1157 c 0,38,39
 402 1040 402 1040 533 892 c 1,30,31
800 290 m 1,40,-1
 481 686 l 1,41,42
 281 565 281 565 280 389 c 0,43,44
 280 285 280 285 346.5 215.5 c 128,-1,45
 413 146 413 146 505 146 c 0,46,47
 663 146 663 146 800 290 c 1,40,-1
EndSplineSet
Substitution2: "<2,2> Cursive lookup 668 nested-substitutions 0 subtable" LIG
Substitution2: "<2,2> Cursive lookup 666 nested-substitutions 0 subtable" LIG
Substitution2: "<2,2> Cursive lookup 664 nested-substitutions 0 subtable" LIG
Substitution2: "<2,2> Cursive lookup 662 nested-substitutions 0 subtable" LIG
Substitution2: "<2,2> Cursive lookup 660 nested-substitutions 0 subtable" ampersand_ampersand.liga
Substitution2: "<2,2> Cursive in Latin lookup 658 nested-substitutions 0 subtable" ampersand_ampersand.liga
Substitution2: "<2,2> Cursive in Latin lookup 656 nested-substitutions 0 subtable" ampersand_ampersand.liga
Substitution2: "Single Substitution lookup 243 subtable" LIG
Substitution2: "Single Substitution lookup 242 subtable" ampersand_ampersand.liga
Substitution2: "'ss03' Style Set 3 lookup 175 subtable" ampersand.ss03
AlternateSubs2: "'aalt' Access All Alternates lookup 1 subtable" ampersand_ampersand.liga LIG
EndChar

StartChar: quotesingle
Encoding: 39 39 10
Width: 1260
GlyphClass: 2
Flags: W
LayerCount: 2
Fore
SplineSet
513 1552 m 1,0,-1
 748 1552 l 1,1,-1
 714 1000 l 1,2,-1
 546 1000 l 1,3,-1
 513 1552 l 1,0,-1
EndSplineSet
EndChar

StartChar: parenleft
Encoding: 40 40 11
Width: 1260
GlyphClass: 2
Flags: W
LayerCount: 2
Fore
SplineSet
510 371 m 128,-1,1
 557 215 557 215 651 85 c 128,-1,2
 745 -45 745 -45 904 -191 c 1,3,-1
 795 -300 l 1,4,5
 613 -151 613 -151 496 -4 c 128,-1,6
 379 143 379 143 316 323.5 c 128,-1,7
 253 504 253 504 253 735 c 256,8,9
 253 966 253 966 316 1147 c 128,-1,10
 379 1328 379 1328 496 1475 c 128,-1,11
 613 1622 613 1622 795 1771 c 1,12,-1
 904 1662 l 1,13,14
 745 1516 745 1516 651 1386 c 128,-1,15
 557 1256 557 1256 510 1100 c 128,-1,16
 463 944 463 944 463 735 c 0,17,0
 463 527 463 527 510 371 c 128,-1,1
EndSplineSet
Substitution2: "<2,2> Cursive lookup 892 nested-substitutions 0 subtable" numbersign_parenleft.liga
Substitution2: "<2,2> Cursive lookup 890 nested-substitutions 0 subtable" numbersign_parenleft.liga
Substitution2: "<2,2> Cursive lookup 888 nested-substitutions 0 subtable" numbersign_parenleft.liga
Substitution2: "<2,2> Cursive lookup 886 nested-substitutions 0 subtable" numbersign_parenleft.liga
Substitution2: "<2,2> Cursive lookup 884 nested-substitutions 0 subtable" numbersign_parenleft.liga
Substitution2: "<2,2> Cursive lookup 882 nested-substitutions 0 subtable" numbersign_parenleft.liga
Substitution2: "<2,2> Cursive lookup 880 nested-substitutions 0 subtable" numbersign_parenleft.liga
Substitution2: "<2,2> Cursive lookup 878 nested-substitutions 0 subtable" numbersign_parenleft.liga
Substitution2: "<2,2> Cursive lookup 614 nested-substitutions 0 subtable" numbersign_underscore_parenleft.liga
Substitution2: "<2,2> Cursive lookup 612 nested-substitutions 0 subtable" numbersign_underscore_parenleft.liga
Substitution2: "<2,2> Cursive lookup 610 nested-substitutions 0 subtable" numbersign_underscore_parenleft.liga
Substitution2: "<2,2> Cursive lookup 608 nested-substitutions 0 subtable" numbersign_underscore_parenleft.liga
Substitution2: "<2,2> Cursive lookup 606 nested-substitutions 0 subtable" numbersign_underscore_parenleft.liga
Substitution2: "<2,2> Cursive lookup 604 nested-substitutions 0 subtable" numbersign_underscore_parenleft.liga
Substitution2: "<2,2> Cursive lookup 602 nested-substitutions 0 subtable" numbersign_underscore_parenleft.liga
Substitution2: "<2,2> Cursive lookup 600 nested-substitutions 0 subtable" numbersign_underscore_parenleft.liga
Substitution2: "Single Substitution lookup 264 subtable" numbersign_parenleft.liga
Substitution2: "Single Substitution lookup 233 subtable" numbersign_underscore_parenleft.liga
Substitution2: "'case' Case-Sensitive Forms lookup 13 subtable" parenleft.case
Substitution2: "'dnom' Denominators lookup 5 subtable" parenleft.dnom
Substitution2: "'numr' Numerators lookup 4 subtable" parenleft.numr
Substitution2: "'sups' Superscript lookup 3 subtable" uni207D
Substitution2: "'subs' Subscript lookup 2 subtable" uni208D
AlternateSubs2: "'aalt' Access All Alternates lookup 1 subtable" uni208D uni207D parenleft.numr parenleft.dnom parenleft.case numbersign_underscore_parenleft.liga numbersign_parenleft.liga
EndChar

StartChar: parenright
Encoding: 41 41 12
Width: 1260
GlyphClass: 2
Flags: W
LayerCount: 2
Fore
SplineSet
750.5 1100 m 128,-1,1
 704 1256 704 1256 609.5 1386 c 128,-1,2
 515 1516 515 1516 356 1662 c 1,3,-1
 465 1771 l 1,4,5
 647 1622 647 1622 764 1475 c 128,-1,6
 881 1328 881 1328 944 1147 c 128,-1,7
 1007 966 1007 966 1007 735 c 256,8,9
 1007 504 1007 504 944 323.5 c 128,-1,10
 881 143 881 143 764 -4 c 128,-1,11
 647 -151 647 -151 465 -300 c 1,12,-1
 356 -191 l 1,13,14
 516 -45 516 -45 610 85 c 128,-1,15
 704 215 704 215 750.5 371 c 128,-1,16
 797 527 797 527 797 735 c 0,17,0
 797 944 797 944 750.5 1100 c 128,-1,1
EndSplineSet
Substitution2: "'case' Case-Sensitive Forms lookup 13 subtable" parenright.case
Substitution2: "'dnom' Denominators lookup 5 subtable" parenright.dnom
Substitution2: "'numr' Numerators lookup 4 subtable" parenright.numr
Substitution2: "'sups' Superscript lookup 3 subtable" uni207E
Substitution2: "'subs' Subscript lookup 2 subtable" uni208E
AlternateSubs2: "'aalt' Access All Alternates lookup 1 subtable" uni208E uni207E parenright.numr parenright.dnom parenright.case
EndChar

StartChar: asterisk
Encoding: 42 42 13
Width: 1260
GlyphClass: 2
Flags: W
LayerCount: 2
Fore
SplineSet
564 756 m 1,0,-1
 186 1011 l 1,1,-1
 97 854 l 1,2,-1
 524 652 l 1,3,-1
 97 450 l 1,4,-1
 186 292 l 1,5,-1
 564 547 l 1,6,-1
 532 113 l 1,7,-1
 729 113 l 1,8,-1
 697 547 l 1,9,-1
 1075 292 l 1,10,-1
 1164 450 l 1,11,-1
 737 652 l 1,12,-1
 1164 854 l 1,13,-1
 1075 1011 l 1,14,-1
 697 756 l 1,15,-1
 729 1191 l 1,16,-1
 532 1191 l 1,17,-1
 564 756 l 1,0,-1
EndSplineSet
Substitution2: "<2,2> Cursive lookup 980 nested-substitutions 0 subtable" asterisk.lc
Substitution2: "<2,2> Cursive lookup 978 nested-substitutions 0 subtable" asterisk.lc
Substitution2: "<2,2> Cursive lookup 976 nested-substitutions 0 subtable" asterisk.lc
Substitution2: "<2,2> Cursive lookup 974 nested-substitutions 0 subtable" asterisk.lc
Substitution2: "<2,2> Cursive lookup 972 nested-substitutions 0 subtable" asterisk.lc
Substitution2: "<2,2> Cursive lookup 970 nested-substitutions 0 subtable" asterisk.lc
Substitution2: "<2,2> Cursive lookup 968 nested-substitutions 0 subtable" asterisk.lc
Substitution2: "<2,2> Cursive lookup 966 nested-substitutions 0 subtable" asterisk.lc
Substitution2: "<2,2> Cursive lookup 964 nested-substitutions 0 subtable" asterisk.lc
Substitution2: "<2,2> Cursive lookup 962 nested-substitutions 0 subtable" asterisk.lc
Substitution2: "<2,2> Cursive lookup 960 nested-substitutions 0 subtable" asterisk.lc
Substitution2: "<2,2> Cursive lookup 958 nested-substitutions 0 subtable" asterisk.lc
Substitution2: "<2,2> Cursive lookup 950 nested-substitutions 0 subtable" slash_asterisk.liga
Substitution2: "<2,2> Cursive lookup 948 nested-substitutions 0 subtable" slash_asterisk.liga
Substitution2: "<2,2> Cursive lookup 946 nested-substitutions 0 subtable" slash_asterisk.liga
Substitution2: "<2,2> Cursive lookup 944 nested-substitutions 0 subtable" slash_asterisk.liga
Substitution2: "<2,2> Cursive lookup 942 nested-substitutions 0 subtable" slash_asterisk.liga
Substitution2: "<2,2> Cursive lookup 940 nested-substitutions 0 subtable" slash_asterisk.liga
Substitution2: "<2,2> Cursive lookup 938 nested-substitutions 0 subtable" slash_asterisk.liga
Substitution2: "<2,2> Cursive lookup 842 nested-substitutions 0 subtable" less_asterisk.liga
Substitution2: "<2,2> Cursive lookup 840 nested-substitutions 0 subtable" less_asterisk.liga
Substitution2: "<2,2> Cursive lookup 838 nested-substitutions 0 subtable" less_asterisk.liga
Substitution2: "<2,2> Cursive lookup 836 nested-substitutions 0 subtable" less_asterisk.liga
Substitution2: "<2,2> Cursive lookup 834 nested-substitutions 0 subtable" less_asterisk.liga
Substitution2: "<2,2> Cursive lookup 832 nested-substitutions 0 subtable" less_asterisk.liga
Substitution2: "<2,2> Cursive lookup 830 nested-substitutions 0 subtable" less_asterisk.liga
Substitution2: "<2,2> Cursive lookup 828 nested-substitutions 0 subtable" less_asterisk.liga
Substitution2: "<2,2> Cursive lookup 826 nested-substitutions 0 subtable" less_asterisk.liga
Substitution2: "<2,2> Cursive lookup 824 nested-substitutions 0 subtable" less_asterisk.liga
Substitution2: "<2,2> Cursive lookup 822 nested-substitutions 0 subtable" less_asterisk.liga
Substitution2: "<2,2> Cursive lookup 820 nested-substitutions 0 subtable" less_asterisk.liga
Substitution2: "<2,2> Cursive lookup 818 nested-substitutions 0 subtable" less_asterisk.liga
Substitution2: "<2,2> Cursive lookup 816 nested-substitutions 0 subtable" less_asterisk.liga
Substitution2: "<2,2> Cursive lookup 814 nested-substitutions 0 subtable" less_asterisk.liga
Substitution2: "<2,2> Cursive lookup 700 nested-substitutions 0 subtable" LIG
Substitution2: "<2,2> Cursive lookup 698 nested-substitutions 0 subtable" LIG
Substitution2: "<2,2> Cursive lookup 696 nested-substitutions 0 subtable" LIG
Substitution2: "<2,2> Cursive lookup 694 nested-substitutions 0 subtable" LIG
Substitution2: "<2,2> Cursive lookup 692 nested-substitutions 0 subtable" LIG
Substitution2: "<2,2> Cursive lookup 690 nested-substitutions 0 subtable" LIG
Substitution2: "<2,2> Cursive lookup 688 nested-substitutions 0 subtable" asterisk_asterisk.liga
Substitution2: "<2,2> Cursive lookup 686 nested-substitutions 0 subtable" asterisk_asterisk.liga
Substitution2: "<2,2> Cursive lookup 684 nested-substitutions 0 subtable" asterisk_asterisk.liga
Substitution2: "<2,2> Cursive lookup 682 nested-substitutions 0 subtable" asterisk_asterisk.liga
Substitution2: "<2,2> Cursive lookup 680 nested-substitutions 0 subtable" asterisk_asterisk.liga
Substitution2: "<2,2> Cursive lookup 678 nested-substitutions 0 subtable" asterisk_asterisk.liga
Substitution2: "<2,2> Cursive lookup 676 nested-substitutions 0 subtable" asterisk_asterisk.liga
Substitution2: "<2,2> Cursive lookup 674 nested-substitutions 0 subtable" asterisk_asterisk.liga
Substitution2: "<2,2> Cursive lookup 672 nested-substitutions 0 subtable" asterisk_asterisk.liga
Substitution2: "<2,2> Cursive lookup 670 nested-substitutions 0 subtable" asterisk_asterisk.liga
Substitution2: "<2,2> Cursive lookup 502 nested-substitutions 0 subtable" LIG
Substitution2: "<2,2> Cursive lookup 500 nested-substitutions 0 subtable" LIG
Substitution2: "<2,2> Cursive lookup 498 nested-substitutions 0 subtable" LIG
Substitution2: "<2,2> Cursive lookup 496 nested-substitutions 0 subtable" LIG
Substitution2: "<2,2> Cursive lookup 350 nested-substitutions 0 subtable" LIG
Substitution2: "<2,2> Cursive lookup 348 nested-substitutions 0 subtable" LIG
Substitution2: "<2,2> Cursive lookup 346 nested-substitutions 0 subtable" LIG
Substitution2: "<2,2> Cursive lookup 344 nested-substitutions 0 subtable" LIG
Substitution2: "<2,2> Cursive lookup 342 nested-substitutions 0 subtable" LIG
Substitution2: "<2,2> Cursive lookup 340 nested-substitutions 0 subtable" LIG
Substitution2: "<2,2> Cursive lookup 338 nested-substitutions 0 subtable" LIG
Substitution2: "<2,2> Cursive lookup 336 nested-substitutions 0 subtable" LIG
Substitution2: "<2,2> Cursive lookup 334 nested-substitutions 0 subtable" LIG
Substitution2: "<2,2> Cursive lookup 332 nested-substitutions 0 subtable" LIG
Substitution2: "<2,2> Cursive lookup 330 nested-substitutions 0 subtable" LIG
Substitution2: "<2,2> Cursive lookup 328 nested-substitutions 0 subtable" asterisk_asterisk_asterisk.liga
Substitution2: "<2,2> Cursive lookup 326 nested-substitutions 0 subtable" asterisk_asterisk_asterisk.liga
Substitution2: "<2,2> Cursive lookup 324 nested-substitutions 0 subtable" asterisk_asterisk_asterisk.liga
Substitution2: "<2,2> Cursive lookup 322 nested-substitutions 0 subtable" asterisk_asterisk_asterisk.liga
Substitution2: "<2,2> Cursive lookup 320 nested-substitutions 0 subtable" asterisk_asterisk_asterisk.liga
Substitution2: "<2,2> Cursive lookup 318 nested-substitutions 0 subtable" asterisk_asterisk_asterisk.liga
Substitution2: "<2,2> Cursive lookup 316 nested-substitutions 0 subtable" asterisk_asterisk_asterisk.liga
Substitution2: "Single Substitution lookup 275 subtable" asterisk.lc
Substitution2: "Single Substitution lookup 272 subtable" slash_asterisk.liga
Substitution2: "Single Substitution lookup 260 subtable" less_asterisk.liga
Substitution2: "Single Substitution lookup 245 subtable" LIG
Substitution2: "Single Substitution lookup 244 subtable" asterisk_asterisk.liga
Substitution2: "Single Substitution lookup 219 subtable" LIG
Substitution2: "Single Substitution lookup 191 subtable" LIG
Substitution2: "Single Substitution lookup 190 subtable" asterisk_asterisk_asterisk.liga
AlternateSubs2: "'aalt' Access All Alternates lookup 1 subtable" asterisk_asterisk_asterisk.liga LIG asterisk_asterisk.liga less_asterisk.liga slash_asterisk.liga asterisk.lc
EndChar

StartChar: plus
Encoding: 43 43 14
Width: 1260
GlyphClass: 2
Flags: W
LayerCount: 2
Fore
SplineSet
719 736 m 1,0,-1
 1134 736 l 1,1,-1
 1134 570 l 1,2,-1
 719 570 l 1,3,-1
 719 152 l 1,4,-1
 537 152 l 1,5,-1
 537 570 l 1,6,-1
 126 570 l 1,7,-1
 126 736 l 1,8,-1
 537 736 l 1,9,-1
 537 1157 l 1,10,-1
 719 1157 l 1,11,-1
 719 736 l 1,0,-1
EndSplineSet
Substitution2: "<2,2> Cursive lookup 980 nested-substitutions 0 subtable" plus.lc
Substitution2: "<2,2> Cursive lookup 978 nested-substitutions 0 subtable" plus.lc
Substitution2: "<2,2> Cursive lookup 976 nested-substitutions 0 subtable" plus.lc
Substitution2: "<2,2> Cursive lookup 974 nested-substitutions 0 subtable" plus.lc
Substitution2: "<2,2> Cursive lookup 972 nested-substitutions 0 subtable" plus.lc
Substitution2: "<2,2> Cursive lookup 970 nested-substitutions 0 subtable" plus.lc
Substitution2: "<2,2> Cursive lookup 968 nested-substitutions 0 subtable" plus.lc
Substitution2: "<2,2> Cursive lookup 966 nested-substitutions 0 subtable" plus.lc
Substitution2: "<2,2> Cursive lookup 964 nested-substitutions 0 subtable" plus.lc
Substitution2: "<2,2> Cursive lookup 962 nested-substitutions 0 subtable" plus.lc
Substitution2: "<2,2> Cursive lookup 960 nested-substitutions 0 subtable" plus.lc
Substitution2: "<2,2> Cursive lookup 958 nested-substitutions 0 subtable" plus.lc
Substitution2: "<2,2> Cursive lookup 930 nested-substitutions 0 subtable" LIG
Substitution2: "<2,2> Cursive lookup 928 nested-substitutions 0 subtable" LIG
Substitution2: "<2,2> Cursive lookup 926 nested-substitutions 0 subtable" LIG
Substitution2: "<2,2> Cursive lookup 924 nested-substitutions 0 subtable" LIG
Substitution2: "<2,2> Cursive lookup 922 nested-substitutions 0 subtable" LIG
Substitution2: "<2,2> Cursive lookup 920 nested-substitutions 0 subtable" LIG
Substitution2: "<2,2> Cursive lookup 918 nested-substitutions 0 subtable" LIG
Substitution2: "<2,2> Cursive lookup 916 nested-substitutions 0 subtable" plus_plus.liga
Substitution2: "<2,2> Cursive lookup 914 nested-substitutions 0 subtable" LIG
Substitution2: "<2,2> Cursive lookup 912 nested-substitutions 0 subtable" LIG
Substitution2: "<2,2> Cursive lookup 910 nested-substitutions 0 subtable" LIG
Substitution2: "<2,2> Cursive lookup 908 nested-substitutions 0 subtable" LIG
Substitution2: "<2,2> Cursive lookup 906 nested-substitutions 0 subtable" LIG
Substitution2: "<2,2> Cursive lookup 874 nested-substitutions 0 subtable" less_plus.liga
Substitution2: "<2,2> Cursive lookup 872 nested-substitutions 0 subtable" less_plus.liga
Substitution2: "<2,2> Cursive lookup 870 nested-substitutions 0 subtable" less_plus.liga
Substitution2: "<2,2> Cursive lookup 868 nested-substitutions 0 subtable" less_plus.liga
Substitution2: "<2,2> Cursive lookup 866 nested-substitutions 0 subtable" less_plus.liga
Substitution2: "<2,2> Cursive lookup 864 nested-substitutions 0 subtable" less_plus.liga
Substitution2: "<2,2> Cursive lookup 862 nested-substitutions 0 subtable" less_plus.liga
Substitution2: "<2,2> Cursive lookup 860 nested-substitutions 0 subtable" less_plus.liga
Substitution2: "<2,2> Cursive lookup 858 nested-substitutions 0 subtable" less_plus.liga
Substitution2: "<2,2> Cursive lookup 856 nested-substitutions 0 subtable" less_plus.liga
Substitution2: "<2,2> Cursive lookup 854 nested-substitutions 0 subtable" less_plus.liga
Substitution2: "<2,2> Cursive lookup 852 nested-substitutions 0 subtable" less_plus.liga
Substitution2: "<2,2> Cursive lookup 850 nested-substitutions 0 subtable" less_plus.liga
Substitution2: "<2,2> Cursive lookup 848 nested-substitutions 0 subtable" less_plus.liga
Substitution2: "<2,2> Cursive lookup 846 nested-substitutions 0 subtable" less_plus.liga
Substitution2: "<2,2> Cursive lookup 628 nested-substitutions 0 subtable" LIG
Substitution2: "<2,2> Cursive lookup 626 nested-substitutions 0 subtable" LIG
Substitution2: "<2,2> Cursive lookup 624 nested-substitutions 0 subtable" LIG
Substitution2: "<2,2> Cursive lookup 622 nested-substitutions 0 subtable" plus_plus_plus.liga
Substitution2: "<2,2> Cursive lookup 620 nested-substitutions 0 subtable" plus_plus_plus.liga
Substitution2: "<2,2> Cursive lookup 618 nested-substitutions 0 subtable" plus_plus_plus.liga
Substitution2: "<2,2> Cursive lookup 590 nested-substitutions 0 subtable" LIG
Substitution2: "<2,2> Cursive lookup 588 nested-substitutions 0 subtable" LIG
Substitution2: "<2,2> Cursive lookup 586 nested-substitutions 0 subtable" LIG
Substitution2: "<2,2> Cursive lookup 584 nested-substitutions 0 subtable" LIG
Substitution2: "<2,2> Cursive lookup 582 nested-substitutions 0 subtable" LIG
Substitution2: "Single Substitution lookup 275 subtable" plus.lc
Substitution2: "Single Substitution lookup 269 subtable" LIG
Substitution2: "Single Substitution lookup 268 subtable" plus_plus.liga
Substitution2: "Single Substitution lookup 267 subtable" LIG
Substitution2: "Single Substitution lookup 262 subtable" less_plus.liga
Substitution2: "Single Substitution lookup 236 subtable" LIG
Substitution2: "Single Substitution lookup 235 subtable" plus_plus_plus.liga
Substitution2: "Single Substitution lookup 231 subtable" LIG
Substitution2: "'dnom' Denominators lookup 5 subtable" plus.dnom
Substitution2: "'numr' Numerators lookup 4 subtable" plus.numr
Substitution2: "'sups' Superscript lookup 3 subtable" uni207A
Substitution2: "'subs' Subscript lookup 2 subtable" uni208A
AlternateSubs2: "'aalt' Access All Alternates lookup 1 subtable" uni208A uni207A plus.numr plus.dnom LIG plus_plus_plus.liga less_plus.liga plus_plus.liga plus.lc
EndChar

StartChar: comma
Encoding: 44 44 15
Width: 1260
GlyphClass: 2
Flags: W
LayerCount: 2
Fore
SplineSet
721.5 335.5 m 128,-1,1
 762 312 762 312 786 271 c 128,-1,2
 810 230 810 230 810 182 c 0,3,4
 810 129 810 129 798 97 c 0,5,6
 762 1 762 1 760 -3 c 2,7,-1
 597 -344 l 1,8,-1
 424 -385 l 1,9,-1
 526 35 l 1,10,11
 491 59 491 59 472 98.5 c 128,-1,12
 453 138 453 138 453 183 c 0,13,14
 453 231 453 231 476 271.5 c 128,-1,15
 499 312 499 312 540 335.5 c 128,-1,16
 581 359 581 359 630 359 c 0,17,0
 681 359 681 359 721.5 335.5 c 128,-1,1
EndSplineSet
EndChar

StartChar: hyphen
Encoding: 45 45 16
Width: 1260
GlyphClass: 2
Flags: W
LayerCount: 2
Fore
SplineSet
204 743 m 1,0,-1
 1057 743 l 1,1,-1
 1057 572 l 1,2,-1
 204 572 l 1,3,-1
 204 743 l 1,0,-1
EndSplineSet
Substitution2: "<2,2> Cursive lookup 980 nested-substitutions 0 subtable" hyphen.lc
Substitution2: "<2,2> Cursive lookup 978 nested-substitutions 0 subtable" hyphen.lc
Substitution2: "<2,2> Cursive lookup 976 nested-substitutions 0 subtable" hyphen.lc
Substitution2: "<2,2> Cursive lookup 974 nested-substitutions 0 subtable" hyphen.lc
Substitution2: "<2,2> Cursive lookup 972 nested-substitutions 0 subtable" hyphen.lc
Substitution2: "<2,2> Cursive lookup 970 nested-substitutions 0 subtable" hyphen.lc
Substitution2: "<2,2> Cursive lookup 968 nested-substitutions 0 subtable" hyphen.lc
Substitution2: "<2,2> Cursive lookup 966 nested-substitutions 0 subtable" hyphen.lc
Substitution2: "<2,2> Cursive lookup 964 nested-substitutions 0 subtable" hyphen.lc
Substitution2: "<2,2> Cursive lookup 962 nested-substitutions 0 subtable" hyphen.lc
Substitution2: "<2,2> Cursive lookup 960 nested-substitutions 0 subtable" hyphen.lc
Substitution2: "<2,2> Cursive lookup 958 nested-substitutions 0 subtable" hyphen.lc
Substitution2: "<2,2> Cursive lookup 902 nested-substitutions 0 subtable" period_hyphen.liga
Substitution2: "<2,2> Cursive lookup 900 nested-substitutions 0 subtable" period_hyphen.liga
Substitution2: "<2,2> Cursive lookup 898 nested-substitutions 0 subtable" period_hyphen.liga
Substitution2: "<2,2> Cursive lookup 896 nested-substitutions 0 subtable" period_hyphen.liga
Substitution2: "<2,2> Cursive lookup 894 nested-substitutions 0 subtable" period_hyphen.liga
Substitution2: "<2,2> Cursive lookup 842 nested-substitutions 0 subtable" less_hyphen.liga
Substitution2: "<2,2> Cursive lookup 840 nested-substitutions 0 subtable" less_hyphen.liga
Substitution2: "<2,2> Cursive lookup 838 nested-substitutions 0 subtable" less_hyphen.liga
Substitution2: "<2,2> Cursive lookup 836 nested-substitutions 0 subtable" less_hyphen.liga
Substitution2: "<2,2> Cursive lookup 834 nested-substitutions 0 subtable" less_hyphen.liga
Substitution2: "<2,2> Cursive lookup 832 nested-substitutions 0 subtable" less_hyphen.liga
Substitution2: "<2,2> Cursive lookup 830 nested-substitutions 0 subtable" less_hyphen.liga
Substitution2: "<2,2> Cursive lookup 828 nested-substitutions 0 subtable" less_hyphen.liga
Substitution2: "<2,2> Cursive lookup 826 nested-substitutions 0 subtable" less_hyphen.liga
Substitution2: "<2,2> Cursive lookup 824 nested-substitutions 0 subtable" less_hyphen.liga
Substitution2: "<2,2> Cursive lookup 822 nested-substitutions 0 subtable" less_hyphen.liga
Substitution2: "<2,2> Cursive lookup 820 nested-substitutions 0 subtable" less_hyphen.liga
Substitution2: "<2,2> Cursive lookup 818 nested-substitutions 0 subtable" less_hyphen.liga
Substitution2: "<2,2> Cursive lookup 816 nested-substitutions 0 subtable" less_hyphen.liga
Substitution2: "<2,2> Cursive lookup 814 nested-substitutions 0 subtable" less_hyphen.liga
Substitution2: "<2,2> Cursive lookup 812 nested-substitutions 0 subtable" LIG
Substitution2: "<2,2> Cursive lookup 810 nested-substitutions 0 subtable" LIG
Substitution2: "<2,2> Cursive lookup 808 nested-substitutions 0 subtable" LIG
Substitution2: "<2,2> Cursive lookup 806 nested-substitutions 0 subtable" LIG
Substitution2: "<2,2> Cursive lookup 804 nested-substitutions 0 subtable" hyphen_hyphen.liga
Substitution2: "<2,2> Cursive lookup 802 nested-substitutions 0 subtable" LIG
Substitution2: "<2,2> Cursive lookup 800 nested-substitutions 0 subtable" LIG
Substitution2: "<2,2> Cursive lookup 798 nested-substitutions 0 subtable" LIG
Substitution2: "<2,2> Cursive lookup 796 nested-substitutions 0 subtable" LIG
Substitution2: "<2,2> Cursive lookup 794 nested-substitutions 0 subtable" LIG
Substitution2: "<2,2> Cursive lookup 792 nested-substitutions 0 subtable" greater_hyphen.liga
Substitution2: "<2,2> Cursive lookup 790 nested-substitutions 0 subtable" greater_hyphen.liga
Substitution2: "<2,2> Cursive lookup 788 nested-substitutions 0 subtable" greater_hyphen.liga
Substitution2: "<2,2> Cursive lookup 786 nested-substitutions 0 subtable" greater_hyphen.liga
Substitution2: "<2,2> Cursive lookup 722 nested-substitutions 0 subtable" bar_hyphen.liga
Substitution2: "<2,2> Cursive lookup 720 nested-substitutions 0 subtable" bar_hyphen.liga
Substitution2: "<2,2> Cursive lookup 718 nested-substitutions 0 subtable" bar_hyphen.liga
Substitution2: "<2,2> Cursive lookup 716 nested-substitutions 0 subtable" bar_hyphen.liga
Substitution2: "<2,2> Cursive lookup 714 nested-substitutions 0 subtable" bar_hyphen.liga
Substitution2: "<2,2> Cursive lookup 712 nested-substitutions 0 subtable" bar_hyphen.liga
Substitution2: "<2,2> Cursive lookup 710 nested-substitutions 0 subtable" bar_hyphen.liga
Substitution2: "<2,2> Cursive lookup 708 nested-substitutions 0 subtable" bar_hyphen.liga
Substitution2: "<2,2> Cursive lookup 706 nested-substitutions 0 subtable" bar_hyphen.liga
Substitution2: "<2,2> Cursive lookup 704 nested-substitutions 0 subtable" bar_hyphen.liga
Substitution2: "<2,2> Cursive lookup 702 nested-substitutions 0 subtable" bar_hyphen.liga
Substitution2: "<2,2> Cursive lookup 688 nested-substitutions 0 subtable" asciitilde_hyphen.liga
Substitution2: "<2,2> Cursive lookup 686 nested-substitutions 0 subtable" asciitilde_hyphen.liga
Substitution2: "<2,2> Cursive lookup 684 nested-substitutions 0 subtable" asciitilde_hyphen.liga
Substitution2: "<2,2> Cursive lookup 682 nested-substitutions 0 subtable" asciitilde_hyphen.liga
Substitution2: "<2,2> Cursive lookup 680 nested-substitutions 0 subtable" asciitilde_hyphen.liga
Substitution2: "<2,2> Cursive lookup 678 nested-substitutions 0 subtable" asciitilde_hyphen.liga
Substitution2: "<2,2> Cursive lookup 676 nested-substitutions 0 subtable" asciitilde_hyphen.liga
Substitution2: "<2,2> Cursive lookup 674 nested-substitutions 0 subtable" asciitilde_hyphen.liga
Substitution2: "<2,2> Cursive lookup 672 nested-substitutions 0 subtable" asciitilde_hyphen.liga
Substitution2: "<2,2> Cursive lookup 670 nested-substitutions 0 subtable" asciitilde_hyphen.liga
Substitution2: "<2,2> Cursive lookup 578 nested-substitutions 0 subtable" less_less_hyphen.liga
Substitution2: "<2,2> Cursive lookup 576 nested-substitutions 0 subtable" less_less_hyphen.liga
Substitution2: "<2,2> Cursive lookup 574 nested-substitutions 0 subtable" less_less_hyphen.liga
Substitution2: "<2,2> Cursive lookup 572 nested-substitutions 0 subtable" less_less_hyphen.liga
Substitution2: "<2,2> Cursive lookup 570 nested-substitutions 0 subtable" less_less_hyphen.liga
Substitution2: "<2,2> Cursive lookup 568 nested-substitutions 0 subtable" less_less_hyphen.liga
Substitution2: "<2,2> Cursive lookup 566 nested-substitutions 0 subtable" less_less_hyphen.liga
Substitution2: "<2,2> Cursive lookup 564 nested-substitutions 0 subtable" LIG
Substitution2: "<2,2> Cursive lookup 562 nested-substitutions 0 subtable" LIG
Substitution2: "<2,2> Cursive lookup 560 nested-substitutions 0 subtable" LIG
Substitution2: "<2,2> Cursive lookup 558 nested-substitutions 0 subtable" LIG
Substitution2: "<2,2> Cursive lookup 556 nested-substitutions 0 subtable" less_hyphen_hyphen.liga
Substitution2: "<2,2> Cursive lookup 554 nested-substitutions 0 subtable" LIG
Substitution2: "<2,2> Cursive lookup 552 nested-substitutions 0 subtable" LIG
Substitution2: "<2,2> Cursive lookup 550 nested-substitutions 0 subtable" LIG
Substitution2: "<2,2> Cursive lookup 548 nested-substitutions 0 subtable" LIG
Substitution2: "<2,2> Cursive lookup 546 nested-substitutions 0 subtable" LIG
Substitution2: "<2,2> Cursive lookup 544 nested-substitutions 0 subtable" LIG
Substitution2: "<2,2> Cursive lookup 542 nested-substitutions 0 subtable" LIG
Substitution2: "<2,2> Cursive lookup 484 nested-substitutions 0 subtable" LIG
Substitution2: "<2,2> Cursive lookup 482 nested-substitutions 0 subtable" LIG
Substitution2: "<2,2> Cursive lookup 480 nested-substitutions 0 subtable" LIG
Substitution2: "<2,2> Cursive lookup 478 nested-substitutions 0 subtable" LIG
Substitution2: "<2,2> Cursive lookup 476 nested-substitutions 0 subtable" LIG
Substitution2: "<2,2> Cursive lookup 474 nested-substitutions 0 subtable" LIG
Substitution2: "<2,2> Cursive lookup 472 nested-substitutions 0 subtable" hyphen_hyphen_hyphen.liga
Substitution2: "<2,2> Cursive lookup 470 nested-substitutions 0 subtable" LIG
Substitution2: "<2,2> Cursive lookup 468 nested-substitutions 0 subtable" LIG
Substitution2: "<2,2> Cursive lookup 466 nested-substitutions 0 subtable" LIG
Substitution2: "<2,2> Cursive lookup 464 nested-substitutions 0 subtable" LIG
Substitution2: "<2,2> Cursive lookup 462 nested-substitutions 0 subtable" LIG
Substitution2: "<2,2> Cursive lookup 456 nested-substitutions 0 subtable" LIG
Substitution2: "<2,2> Cursive lookup 454 nested-substitutions 0 subtable" LIG
Substitution2: "<2,2> Cursive lookup 452 nested-substitutions 0 subtable" greater_greater_hyphen.liga
Substitution2: "<2,2> Cursive lookup 450 nested-substitutions 0 subtable" greater_greater_hyphen.liga
Substitution2: "<2,2> Cursive lookup 448 nested-substitutions 0 subtable" greater_greater_hyphen.liga
Substitution2: "<2,2> Cursive lookup 446 nested-substitutions 0 subtable" greater_greater_hyphen.liga
Substitution2: "<2,2> Cursive lookup 444 nested-substitutions 0 subtable" greater_greater_hyphen.liga
Substitution2: "<2,2> Cursive lookup 364 nested-substitutions 0 subtable" LIG
Substitution2: "<2,2> Cursive lookup 362 nested-substitutions 0 subtable" LIG
Substitution2: "<2,2> Cursive lookup 360 nested-substitutions 0 subtable" LIG
Substitution2: "<2,2> Cursive lookup 358 nested-substitutions 0 subtable" LIG
Substitution2: "<2,2> Cursive lookup 350 nested-substitutions 0 subtable" bar_bar_hyphen.liga
Substitution2: "<2,2> Cursive lookup 348 nested-substitutions 0 subtable" bar_bar_hyphen.liga
Substitution2: "<2,2> Cursive lookup 346 nested-substitutions 0 subtable" bar_bar_hyphen.liga
Substitution2: "<2,2> Cursive lookup 344 nested-substitutions 0 subtable" bar_bar_hyphen.liga
Substitution2: "<2,2> Cursive lookup 342 nested-substitutions 0 subtable" bar_bar_hyphen.liga
Substitution2: "<2,2> Cursive lookup 340 nested-substitutions 0 subtable" bar_bar_hyphen.liga
Substitution2: "<2,2> Cursive lookup 338 nested-substitutions 0 subtable" bar_bar_hyphen.liga
Substitution2: "<2,2> Cursive lookup 336 nested-substitutions 0 subtable" bar_bar_hyphen.liga
Substitution2: "<2,2> Cursive lookup 334 nested-substitutions 0 subtable" bar_bar_hyphen.liga
Substitution2: "<2,2> Cursive lookup 332 nested-substitutions 0 subtable" bar_bar_hyphen.liga
Substitution2: "<2,2> Cursive lookup 330 nested-substitutions 0 subtable" bar_bar_hyphen.liga
Substitution2: "<2,2> Cursive lookup 314 nested-substitutions 0 subtable" LIG
Substitution2: "<2,2> Cursive lookup 312 nested-substitutions 0 subtable" LIG
Substitution2: "<2,2> Cursive lookup 310 nested-substitutions 0 subtable" LIG
Substitution2: "<2,2> Cursive lookup 308 nested-substitutions 0 subtable" LIG
Substitution2: "<2,2> Cursive lookup 306 nested-substitutions 0 subtable" less_exclam_hyphen_hyphen.liga
Substitution2: "<2,2> Cursive lookup 304 nested-substitutions 0 subtable" less_exclam_hyphen_hyphen.liga
Substitution2: "<2,2> Cursive lookup 302 nested-substitutions 0 subtable" less_exclam_hyphen_hyphen.liga
Substitution2: "<2,2> Cursive lookup 300 nested-substitutions 0 subtable" less_exclam_hyphen_hyphen.liga
Substitution2: "<2,2> Cursive lookup 298 nested-substitutions 0 subtable" less_exclam_hyphen_hyphen.liga
Substitution2: "<2,2> Cursive lookup 296 nested-substitutions 0 subtable" less_exclam_hyphen_hyphen.liga
Substitution2: "<2,2> Cursive lookup 294 nested-substitutions 0 subtable" less_exclam_hyphen_hyphen.liga
Substitution2: "<2,2> Cursive lookup 292 nested-substitutions 0 subtable" less_exclam_hyphen_hyphen.liga
Substitution2: "Single Substitution lookup 275 subtable" hyphen.lc
Substitution2: "Single Substitution lookup 265 subtable" period_hyphen.liga
Substitution2: "Single Substitution lookup 260 subtable" less_hyphen.liga
Substitution2: "Single Substitution lookup 259 subtable" LIG
Substitution2: "Single Substitution lookup 258 subtable" hyphen_hyphen.liga
Substitution2: "Single Substitution lookup 257 subtable" LIG
Substitution2: "Single Substitution lookup 256 subtable" greater_hyphen.liga
Substitution2: "Single Substitution lookup 246 subtable" bar_hyphen.liga
Substitution2: "Single Substitution lookup 244 subtable" asciitilde_hyphen.liga
Substitution2: "Single Substitution lookup 229 subtable" less_less_hyphen.liga
Substitution2: "Single Substitution lookup 228 subtable" LIG
Substitution2: "Single Substitution lookup 227 subtable" LIG
Substitution2: "Single Substitution lookup 226 subtable" less_hyphen_hyphen.liga
Substitution2: "Single Substitution lookup 225 subtable" LIG
Substitution2: "Single Substitution lookup 217 subtable" LIG
Substitution2: "Single Substitution lookup 216 subtable" LIG
Substitution2: "Single Substitution lookup 215 subtable" hyphen_hyphen_hyphen.liga
Substitution2: "Single Substitution lookup 214 subtable" LIG
Substitution2: "Single Substitution lookup 213 subtable" LIG
Substitution2: "Single Substitution lookup 210 subtable" LIG
Substitution2: "Single Substitution lookup 209 subtable" greater_greater_hyphen.liga
Substitution2: "Single Substitution lookup 193 subtable" LIG
Substitution2: "Single Substitution lookup 191 subtable" bar_bar_hyphen.liga
Substitution2: "Single Substitution lookup 189 subtable" LIG
Substitution2: "Single Substitution lookup 188 subtable" less_exclam_hyphen_hyphen.liga
Substitution2: "'case' Case-Sensitive Forms lookup 13 subtable" hyphen.case
AlternateSubs2: "'aalt' Access All Alternates lookup 1 subtable" hyphen.case less_exclam_hyphen_hyphen.liga LIG bar_bar_hyphen.liga greater_greater_hyphen.liga hyphen_hyphen_hyphen.liga less_hyphen_hyphen.liga less_less_hyphen.liga asciitilde_hyphen.liga bar_hyphen.liga greater_hyphen.liga hyphen_hyphen.liga less_hyphen.liga period_hyphen.liga hyphen.lc
EndChar

StartChar: period
Encoding: 46 46 17
Width: 1260
GlyphClass: 2
Flags: W
LayerCount: 2
Fore
SplineSet
462 264.5 m 128,-1,1
 487 308 487 308 530.5 333.5 c 128,-1,2
 574 359 574 359 628 359 c 0,3,4
 683 359 683 359 727 333.5 c 128,-1,5
 771 308 771 308 796.5 264.5 c 128,-1,6
 822 221 822 221 822 168 c 0,7,8
 822 114 822 114 796.5 69.5 c 128,-1,9
 771 25 771 25 727 -0.5 c 128,-1,10
 683 -26 683 -26 628 -26 c 0,11,12
 574 -26 574 -26 530.5 -0.5 c 128,-1,13
 487 25 487 25 462 69.5 c 128,-1,14
 437 114 437 114 437 168 c 0,15,0
 437 221 437 221 462 264.5 c 128,-1,1
EndSplineSet
Substitution2: "<2,2> Cursive lookup 930 nested-substitutions 0 subtable" question_period.liga
Substitution2: "<2,2> Cursive lookup 928 nested-substitutions 0 subtable" question_period.liga
Substitution2: "<2,2> Cursive lookup 926 nested-substitutions 0 subtable" question_period.liga
Substitution2: "<2,2> Cursive lookup 924 nested-substitutions 0 subtable" question_period.liga
Substitution2: "<2,2> Cursive lookup 922 nested-substitutions 0 subtable" question_period.liga
Substitution2: "<2,2> Cursive lookup 920 nested-substitutions 0 subtable" question_period.liga
Substitution2: "<2,2> Cursive lookup 918 nested-substitutions 0 subtable" question_period.liga
Substitution2: "<2,2> Cursive lookup 914 nested-substitutions 0 subtable" LIG
Substitution2: "<2,2> Cursive lookup 912 nested-substitutions 0 subtable" LIG
Substitution2: "<2,2> Cursive lookup 910 nested-substitutions 0 subtable" LIG
Substitution2: "<2,2> Cursive lookup 908 nested-substitutions 0 subtable" LIG
Substitution2: "<2,2> Cursive lookup 906 nested-substitutions 0 subtable" LIG
Substitution2: "<2,2> Cursive lookup 904 nested-substitutions 0 subtable" period_period.liga
Substitution2: "<2,2> Cursive lookup 902 nested-substitutions 0 subtable" LIG
Substitution2: "<2,2> Cursive lookup 900 nested-substitutions 0 subtable" LIG
Substitution2: "<2,2> Cursive lookup 898 nested-substitutions 0 subtable" LIG
Substitution2: "<2,2> Cursive lookup 896 nested-substitutions 0 subtable" LIG
Substitution2: "<2,2> Cursive lookup 894 nested-substitutions 0 subtable" LIG
Substitution2: "<2,2> Cursive lookup 622 nested-substitutions 0 subtable" LIG
Substitution2: "<2,2> Cursive lookup 620 nested-substitutions 0 subtable" LIG
Substitution2: "<2,2> Cursive lookup 618 nested-substitutions 0 subtable" LIG
Substitution2: "<2,2> Cursive lookup 616 nested-substitutions 0 subtable" period_period_period.liga
Substitution2: "<2,2> Cursive lookup 614 nested-substitutions 0 subtable" LIG
Substitution2: "<2,2> Cursive lookup 612 nested-substitutions 0 subtable" LIG
Substitution2: "<2,2> Cursive lookup 610 nested-substitutions 0 subtable" LIG
Substitution2: "<2,2> Cursive lookup 608 nested-substitutions 0 subtable" LIG
Substitution2: "<2,2> Cursive lookup 606 nested-substitutions 0 subtable" LIG
Substitution2: "<2,2> Cursive lookup 604 nested-substitutions 0 subtable" LIG
Substitution2: "<2,2> Cursive lookup 602 nested-substitutions 0 subtable" LIG
Substitution2: "<2,2> Cursive lookup 600 nested-substitutions 0 subtable" LIG
Substitution2: "<2,2> Cursive lookup 432 nested-substitutions 0 subtable" exclam_exclam_period.liga
Substitution2: "<2,2> Cursive lookup 430 nested-substitutions 0 subtable" exclam_exclam_period.liga
Substitution2: "<2,2> Cursive lookup 428 nested-substitutions 0 subtable" exclam_exclam_period.liga
Substitution2: "<2,2> Cursive lookup 426 nested-substitutions 0 subtable" exclam_exclam_period.liga
Substitution2: "<2,2> Cursive lookup 424 nested-substitutions 0 subtable" exclam_exclam_period.liga
Substitution2: "<2,2> Cursive lookup 422 nested-substitutions 0 subtable" exclam_exclam_period.liga
Substitution2: "<2,2> Cursive lookup 420 nested-substitutions 0 subtable" exclam_exclam_period.liga
Substitution2: "Single Substitution lookup 269 subtable" question_period.liga
Substitution2: "Single Substitution lookup 267 subtable" LIG
Substitution2: "Single Substitution lookup 266 subtable" period_period.liga
Substitution2: "Single Substitution lookup 265 subtable" LIG
Substitution2: "Single Substitution lookup 235 subtable" LIG
Substitution2: "Single Substitution lookup 234 subtable" period_period_period.liga
Substitution2: "Single Substitution lookup 233 subtable" LIG
Substitution2: "Single Substitution lookup 206 subtable" exclam_exclam_period.liga
AlternateSubs2: "'aalt' Access All Alternates lookup 1 subtable" exclam_exclam_period.liga LIG period_period_period.liga period_period.liga question_period.liga
EndChar

StartChar: slash
Encoding: 47 47 18
Width: 1260
GlyphClass: 2
Flags: W
LayerCount: 2
Fore
SplineSet
102 -147 m 1,0,-1
 999 1702 l 1,1,-1
 1158 1626 l 1,2,-1
 264 -220 l 1,3,-1
 102 -147 l 1,0,-1
EndSplineSet
Substitution2: "<2,2> Cursive in Greek lookup 1002 nested-substitutions 0 subtable" backslash_slash.liga
Substitution2: "<2,2> Cursive in Greek lookup 1000 nested-substitutions 0 subtable" backslash_slash.liga
Substitution2: "<2,2> Cursive in Greek lookup 998 nested-substitutions 0 subtable" backslash_slash.liga
Substitution2: "<2,2> Cursive in Greek lookup 996 nested-substitutions 0 subtable" backslash_slash.liga
Substitution2: "<2,2> Cursive in Greek lookup 994 nested-substitutions 0 subtable" backslash_slash.liga
Substitution2: "<2,2> Cursive in Greek lookup 992 nested-substitutions 0 subtable" backslash_slash.liga
Substitution2: "<2,2> Cursive in Latin lookup 990 nested-substitutions 0 subtable" backslash_slash.liga
Substitution2: "<2,2> Cursive in Latin lookup 988 nested-substitutions 0 subtable" backslash_slash.liga
Substitution2: "<2,2> Cursive in Latin lookup 986 nested-substitutions 0 subtable" backslash_slash.liga
Substitution2: "<2,2> Cursive lookup 984 nested-substitutions 0 subtable" backslash_slash.liga
Substitution2: "<2,2> Cursive lookup 982 nested-substitutions 0 subtable" backslash_slash.liga
Substitution2: "<2,2> Cursive lookup 980 nested-substitutions 0 subtable" LIG
Substitution2: "<2,2> Cursive lookup 978 nested-substitutions 0 subtable" LIG
Substitution2: "<2,2> Cursive lookup 976 nested-substitutions 0 subtable" LIG
Substitution2: "<2,2> Cursive lookup 974 nested-substitutions 0 subtable" LIG
Substitution2: "<2,2> Cursive lookup 972 nested-substitutions 0 subtable" LIG
Substitution2: "<2,2> Cursive lookup 970 nested-substitutions 0 subtable" LIG
Substitution2: "<2,2> Cursive lookup 968 nested-substitutions 0 subtable" LIG
Substitution2: "<2,2> Cursive lookup 966 nested-substitutions 0 subtable" LIG
Substitution2: "<2,2> Cursive lookup 964 nested-substitutions 0 subtable" LIG
Substitution2: "<2,2> Cursive lookup 962 nested-substitutions 0 subtable" LIG
Substitution2: "<2,2> Cursive lookup 960 nested-substitutions 0 subtable" LIG
Substitution2: "<2,2> Cursive lookup 958 nested-substitutions 0 subtable" LIG
Substitution2: "<2,2> Cursive lookup 956 nested-substitutions 0 subtable" LIG
Substitution2: "<2,2> Cursive lookup 954 nested-substitutions 0 subtable" LIG
Substitution2: "<2,2> Cursive lookup 952 nested-substitutions 0 subtable" slash_slash.liga
Substitution2: "<2,2> Cursive lookup 950 nested-substitutions 0 subtable" LIG
Substitution2: "<2,2> Cursive lookup 948 nested-substitutions 0 subtable" LIG
Substitution2: "<2,2> Cursive lookup 946 nested-substitutions 0 subtable" LIG
Substitution2: "<2,2> Cursive lookup 944 nested-substitutions 0 subtable" LIG
Substitution2: "<2,2> Cursive lookup 942 nested-substitutions 0 subtable" LIG
Substitution2: "<2,2> Cursive lookup 940 nested-substitutions 0 subtable" LIG
Substitution2: "<2,2> Cursive lookup 938 nested-substitutions 0 subtable" LIG
Substitution2: "<2,2> Cursive lookup 874 nested-substitutions 0 subtable" less_slash.liga
Substitution2: "<2,2> Cursive lookup 872 nested-substitutions 0 subtable" less_slash.liga
Substitution2: "<2,2> Cursive lookup 870 nested-substitutions 0 subtable" less_slash.liga
Substitution2: "<2,2> Cursive lookup 868 nested-substitutions 0 subtable" less_slash.liga
Substitution2: "<2,2> Cursive lookup 866 nested-substitutions 0 subtable" less_slash.liga
Substitution2: "<2,2> Cursive lookup 864 nested-substitutions 0 subtable" less_slash.liga
Substitution2: "<2,2> Cursive lookup 862 nested-substitutions 0 subtable" less_slash.liga
Substitution2: "<2,2> Cursive lookup 860 nested-substitutions 0 subtable" less_slash.liga
Substitution2: "<2,2> Cursive lookup 858 nested-substitutions 0 subtable" less_slash.liga
Substitution2: "<2,2> Cursive lookup 856 nested-substitutions 0 subtable" less_slash.liga
Substitution2: "<2,2> Cursive lookup 854 nested-substitutions 0 subtable" less_slash.liga
Substitution2: "<2,2> Cursive lookup 852 nested-substitutions 0 subtable" less_slash.liga
Substitution2: "<2,2> Cursive lookup 850 nested-substitutions 0 subtable" less_slash.liga
Substitution2: "<2,2> Cursive lookup 848 nested-substitutions 0 subtable" less_slash.liga
Substitution2: "<2,2> Cursive lookup 846 nested-substitutions 0 subtable" less_slash.liga
Substitution2: "<2,2> Cursive lookup 700 nested-substitutions 0 subtable" asterisk_slash.liga
Substitution2: "<2,2> Cursive lookup 698 nested-substitutions 0 subtable" asterisk_slash.liga
Substitution2: "<2,2> Cursive lookup 696 nested-substitutions 0 subtable" asterisk_slash.liga
Substitution2: "<2,2> Cursive lookup 694 nested-substitutions 0 subtable" asterisk_slash.liga
Substitution2: "<2,2> Cursive lookup 692 nested-substitutions 0 subtable" asterisk_slash.liga
Substitution2: "<2,2> Cursive lookup 690 nested-substitutions 0 subtable" asterisk_slash.liga
Substitution2: "<2,2> Cursive lookup 642 nested-substitutions 0 subtable" LIG
Substitution2: "<2,2> Cursive lookup 640 nested-substitutions 0 subtable" LIG
Substitution2: "<2,2> Cursive lookup 638 nested-substitutions 0 subtable" LIG
Substitution2: "<2,2> Cursive lookup 636 nested-substitutions 0 subtable" LIG
Substitution2: "<2,2> Cursive lookup 634 nested-substitutions 0 subtable" slash_slash_slash.liga
Substitution2: "<2,2> Cursive lookup 632 nested-substitutions 0 subtable" LIG
Substitution2: "<2,2> Cursive lookup 630 nested-substitutions 0 subtable" LIG
Substitution2: "<2,2> Cursive lookup 598 nested-substitutions 0 subtable" LIG
Substitution2: "<2,2> Cursive lookup 596 nested-substitutions 0 subtable" LIG
Substitution2: "<2,2> Cursive lookup 594 nested-substitutions 0 subtable" LIG
Substitution2: "<2,2> Cursive lookup 592 nested-substitutions 0 subtable" LIG
Substitution2: "<2,2> Cursive lookup 414 nested-substitutions 0 subtable" LIG
Substitution2: "<2,2> Cursive lookup 412 nested-substitutions 0 subtable" LIG
Substitution2: "Single Substitution lookup 276 subtable" backslash_slash.liga
Substitution2: "Single Substitution lookup 275 subtable" LIG
Substitution2: "Single Substitution lookup 274 subtable" LIG
Substitution2: "Single Substitution lookup 273 subtable" slash_slash.liga
Substitution2: "Single Substitution lookup 272 subtable" LIG
Substitution2: "Single Substitution lookup 262 subtable" less_slash.liga
Substitution2: "Single Substitution lookup 245 subtable" asterisk_slash.liga
Substitution2: "Single Substitution lookup 239 subtable" LIG
Substitution2: "Single Substitution lookup 238 subtable" slash_slash_slash.liga
Substitution2: "Single Substitution lookup 237 subtable" LIG
Substitution2: "Single Substitution lookup 232 subtable" LIG
Substitution2: "Single Substitution lookup 203 subtable" LIG
Substitution2: "'frac' Diagonal Fractions lookup 6 subtable" fraction
AlternateSubs2: "'aalt' Access All Alternates lookup 1 subtable" fraction LIG slash_slash_slash.liga asterisk_slash.liga less_slash.liga slash_slash.liga backslash_slash.liga
EndChar

StartChar: zero
Encoding: 48 48 19
Width: 1260
GlyphClass: 2
Flags: W
LayerCount: 2
Fore
SplineSet
989 1280 m 128,-1,1
 1112 1086 1112 1086 1112 725 c 0,2,3
 1112 362 1112 362 989 168 c 128,-1,4
 866 -26 866 -26 630 -26 c 256,5,6
 394 -26 394 -26 271 167.5 c 128,-1,7
 148 361 148 361 148 725 c 0,8,9
 148 1086 148 1086 271 1280 c 128,-1,10
 394 1474 394 1474 630 1474 c 256,11,0
 866 1474 866 1474 989 1280 c 128,-1,1
426 1172.5 m 128,-1,13
 355 1030 355 1030 355 725 c 0,14,15
 355 417 355 417 426 274.5 c 128,-1,16
 497 132 497 132 630 132 c 0,17,18
 765 132 765 132 835 274.5 c 128,-1,19
 905 417 905 417 905 725 c 0,20,21
 905 1032 905 1032 835 1173.5 c 128,-1,22
 765 1315 765 1315 630 1315 c 0,23,12
 497 1315 497 1315 426 1172.5 c 128,-1,13
729.5 821.5 m 128,-1,25
 769 782 769 782 769 725 c 0,26,27
 769 666 769 666 729.5 626 c 128,-1,28
 690 586 690 586 630 586 c 0,29,30
 572 586 572 586 533 626 c 128,-1,31
 494 666 494 666 494 725 c 0,32,33
 494 782 494 782 533 821.5 c 128,-1,34
 572 861 572 861 630 861 c 0,35,24
 690 861 690 861 729.5 821.5 c 128,-1,25
EndSplineSet
Substitution2: "'ss20' Style Set 20 lookup 183 subtable" zero.tosf
Substitution2: "'ss19' Style Set 19 lookup 182 subtable" zero.zero
Substitution2: "'zero' Slashed Zero lookup 24 subtable" zero.zero
Substitution2: "'onum' Oldstyle Figures lookup 12 subtable" zero.tosf
Substitution2: "'frac' Diagonal Fractions lookup 7 subtable" zero.numr
Substitution2: "'dnom' Denominators lookup 5 subtable" zero.dnom
Substitution2: "'numr' Numerators lookup 4 subtable" zero.numr
Substitution2: "'sups' Superscript lookup 3 subtable" uni2070
Substitution2: "'subs' Subscript lookup 2 subtable" uni2080
AlternateSubs2: "'aalt' Access All Alternates lookup 1 subtable" uni2080 uni2070 zero.numr zero.dnom zero.tosf zero.zero
EndChar

StartChar: one
Encoding: 49 49 20
Width: 1260
GlyphClass: 2
Flags: W
LayerCount: 2
Fore
SplineSet
1099 162 m 1,0,-1
 1099 0 l 1,1,-1
 246 0 l 1,2,-1
 246 162 l 1,3,-1
 601 162 l 1,4,-1
 601 1235 l 1,5,-1
 274 1036 l 1,6,-1
 187 1178 l 1,7,-1
 624 1447 l 1,8,-1
 801 1447 l 1,9,-1
 801 162 l 1,10,-1
 1099 162 l 1,0,-1
EndSplineSet
Substitution2: "'ss20' Style Set 20 lookup 183 subtable" one.tosf
Substitution2: "'onum' Oldstyle Figures lookup 12 subtable" one.tosf
Substitution2: "'frac' Diagonal Fractions lookup 7 subtable" one.numr
Substitution2: "'dnom' Denominators lookup 5 subtable" one.dnom
Substitution2: "'numr' Numerators lookup 4 subtable" one.numr
Substitution2: "'sups' Superscript lookup 3 subtable" uni00B9
Substitution2: "'subs' Subscript lookup 2 subtable" uni2081
AlternateSubs2: "'aalt' Access All Alternates lookup 1 subtable" uni2081 uni00B9 one.numr one.dnom one.tosf
EndChar

StartChar: two
Encoding: 50 50 21
Width: 1260
GlyphClass: 2
Flags: W
LayerCount: 2
Fore
SplineSet
806.5 1420.5 m 128,-1,1
 907 1367 907 1367 961 1275 c 128,-1,2
 1015 1183 1015 1183 1015 1067 c 0,3,4
 1015 937 1015 937 954 813 c 128,-1,5
 893 689 893 689 758 540.5 c 128,-1,6
 623 392 623 392 377 167 c 1,7,-1
 999 167 l 1,8,-1
 1048 167 l 1,9,-1
 1024 0 l 1,10,-1
 147 0 l 1,11,-1
 147 159 l 1,12,13
 426 428 426 428 561.5 578.5 c 128,-1,14
 697 729 697 729 750.5 835.5 c 128,-1,15
 804 942 804 942 804 1058 c 0,16,17
 804 1175 804 1175 738.5 1242 c 128,-1,18
 673 1309 673 1309 557 1309 c 0,19,20
 456 1309 456 1309 388.5 1273.5 c 128,-1,21
 321 1238 321 1238 252 1155 c 1,22,-1
 118 1259 l 1,23,24
 205 1368 205 1368 312.5 1421 c 128,-1,25
 420 1474 420 1474 568 1474 c 0,26,0
 706 1474 706 1474 806.5 1420.5 c 128,-1,1
EndSplineSet
Substitution2: "'ss20' Style Set 20 lookup 183 subtable" two.tosf
Substitution2: "'onum' Oldstyle Figures lookup 12 subtable" two.tosf
Substitution2: "'frac' Diagonal Fractions lookup 7 subtable" two.numr
Substitution2: "'dnom' Denominators lookup 5 subtable" two.dnom
Substitution2: "'numr' Numerators lookup 4 subtable" two.numr
Substitution2: "'sups' Superscript lookup 3 subtable" uni00B2
Substitution2: "'subs' Subscript lookup 2 subtable" uni2082
AlternateSubs2: "'aalt' Access All Alternates lookup 1 subtable" uni2082 uni00B2 two.numr two.dnom two.tosf
EndChar

StartChar: three
Encoding: 51 51 22
Width: 1260
GlyphClass: 2
Flags: W
LayerCount: 2
Fore
SplineSet
803.5 1425 m 128,-1,1
 906 1376 906 1376 962 1293 c 128,-1,2
 1018 1210 1018 1210 1018 1110 c 0,3,4
 1018 1024 1018 1024 980 952.5 c 128,-1,5
 942 881 942 881 877.5 834.5 c 128,-1,6
 813 788 813 788 733 771 c 1,7,8
 823 763 823 763 898.5 720.5 c 128,-1,9
 974 678 974 678 1019 601 c 128,-1,10
 1064 524 1064 524 1064 416 c 0,11,12
 1064 291 1064 291 1000 190 c 128,-1,13
 936 89 936 89 819.5 31.5 c 128,-1,14
 703 -26 703 -26 552 -26 c 0,15,16
 418 -26 418 -26 297.5 24 c 128,-1,17
 177 74 177 74 97 171 c 1,18,-1
 227 280 l 1,19,20
 287 210 287 210 370.5 174 c 128,-1,21
 454 138 454 138 545 138 c 0,22,23
 641 138 641 138 710 172 c 128,-1,24
 779 206 779 206 816.5 269.5 c 128,-1,25
 854 333 854 333 854 419 c 0,26,27
 854 685 854 685 563 685 c 2,28,-1
 440 685 l 1,29,-1
 464 838 l 1,30,-1
 550 838 l 2,31,32
 621 838 621 838 682.5 865.5 c 128,-1,33
 744 893 744 893 780.5 947.5 c 128,-1,34
 817 1002 817 1002 817 1081 c 0,35,36
 817 1155 817 1155 782.5 1207.5 c 128,-1,37
 748 1260 748 1260 688 1287.5 c 128,-1,38
 628 1315 628 1315 553 1315 c 0,39,40
 463 1315 463 1315 392.5 1283 c 128,-1,41
 322 1251 322 1251 250 1183 c 1,42,-1
 141 1302 l 1,43,44
 322 1473 322 1473 565 1474 c 0,45,0
 701 1474 701 1474 803.5 1425 c 128,-1,1
EndSplineSet
Substitution2: "'ss20' Style Set 20 lookup 183 subtable" three.tosf
Substitution2: "'onum' Oldstyle Figures lookup 12 subtable" three.tosf
Substitution2: "'frac' Diagonal Fractions lookup 7 subtable" three.numr
Substitution2: "'dnom' Denominators lookup 5 subtable" three.dnom
Substitution2: "'numr' Numerators lookup 4 subtable" three.numr
Substitution2: "'sups' Superscript lookup 3 subtable" uni00B3
Substitution2: "'subs' Subscript lookup 2 subtable" uni2083
AlternateSubs2: "'aalt' Access All Alternates lookup 1 subtable" uni2083 uni00B3 three.numr three.dnom three.tosf
EndChar

StartChar: four
Encoding: 52 52 23
Width: 1260
GlyphClass: 2
Flags: W
LayerCount: 2
Fore
SplineSet
1119 344 m 1,0,-1
 938 344 l 1,1,-1
 938 0 l 1,2,-1
 744 0 l 1,3,-1
 743 344 l 1,4,-1
 142 344 l 1,5,-1
 142 487 l 1,6,-1
 563 1474 l 1,7,-1
 732 1404 l 1,8,-1
 354 503 l 1,9,-1
 745 503 l 1,10,-1
 770 903 l 1,11,-1
 938 903 l 1,12,-1
 938 503 l 1,13,-1
 1119 503 l 1,14,-1
 1119 344 l 1,0,-1
EndSplineSet
Substitution2: "'ss20' Style Set 20 lookup 183 subtable" four.tosf
Substitution2: "'onum' Oldstyle Figures lookup 12 subtable" four.tosf
Substitution2: "'frac' Diagonal Fractions lookup 7 subtable" four.numr
Substitution2: "'dnom' Denominators lookup 5 subtable" four.dnom
Substitution2: "'numr' Numerators lookup 4 subtable" four.numr
Substitution2: "'sups' Superscript lookup 3 subtable" uni2074
Substitution2: "'subs' Subscript lookup 2 subtable" uni2084
AlternateSubs2: "'aalt' Access All Alternates lookup 1 subtable" uni2084 uni2074 four.numr four.dnom four.tosf
EndChar

StartChar: five
Encoding: 53 53 24
Width: 1260
GlyphClass: 2
Flags: W
LayerCount: 2
Fore
SplineSet
1004 1292 m 1,0,-1
 439 1292 l 1,1,-1
 439 858 l 1,2,3
 501 891 501 891 560 904.5 c 128,-1,4
 619 918 619 918 684 918 c 0,5,6
 802 918 802 918 891.5 864 c 128,-1,7
 981 810 981 810 1031 706.5 c 128,-1,8
 1081 603 1081 603 1081 461 c 0,9,10
 1081 317 1081 317 1019 206.5 c 128,-1,11
 957 96 957 96 843 35 c 128,-1,12
 729 -26 729 -26 579 -26 c 0,13,14
 448 -26 448 -26 342 20.5 c 128,-1,15
 236 67 236 67 149 155 c 1,16,-1
 271 272 l 1,17,18
 335 204 335 204 410 171 c 128,-1,19
 485 138 485 138 576 138 c 0,20,21
 716 138 716 138 793.5 222.5 c 128,-1,22
 871 307 871 307 871 464 c 0,23,24
 871 623 871 623 803 693.5 c 128,-1,25
 735 764 735 764 621 764 c 0,26,27
 563 764 563 764 514.5 752.5 c 128,-1,28
 466 741 466 741 402 715 c 1,29,-1
 247 715 l 1,30,-1
 247 1447 l 1,31,-1
 1032 1447 l 1,32,-1
 1004 1292 l 1,0,-1
EndSplineSet
Substitution2: "'ss20' Style Set 20 lookup 183 subtable" five.tosf
Substitution2: "'onum' Oldstyle Figures lookup 12 subtable" five.tosf
Substitution2: "'frac' Diagonal Fractions lookup 7 subtable" five.numr
Substitution2: "'dnom' Denominators lookup 5 subtable" five.dnom
Substitution2: "'numr' Numerators lookup 4 subtable" five.numr
Substitution2: "'sups' Superscript lookup 3 subtable" uni2075
Substitution2: "'subs' Subscript lookup 2 subtable" uni2085
AlternateSubs2: "'aalt' Access All Alternates lookup 1 subtable" uni2085 uni2075 five.numr five.dnom five.tosf
EndChar

StartChar: six
Encoding: 54 54 25
Width: 1260
GlyphClass: 2
Flags: W
LayerCount: 2
Fore
SplineSet
910 895 m 128,-1,1
 1003 843 1003 843 1057.5 739.5 c 128,-1,2
 1112 636 1112 636 1112 487 c 0,3,4
 1112 333 1112 333 1051 216.5 c 128,-1,5
 990 100 990 100 884 37 c 128,-1,6
 778 -26 778 -26 647 -26 c 0,7,8
 391 -26 391 -26 273.5 160 c 128,-1,9
 156 346 156 346 156 680 c 0,10,11
 156 919 156 919 222.5 1098.5 c 128,-1,12
 289 1278 289 1278 414 1376 c 128,-1,13
 539 1474 539 1474 710 1474 c 0,14,15
 872 1474 872 1474 1001 1387 c 1,16,-1
 922 1254 l 1,17,18
 824 1315 824 1315 708 1315 c 0,19,20
 603 1315 603 1315 526.5 1247.5 c 128,-1,21
 450 1180 450 1180 407.5 1056 c 128,-1,22
 365 932 365 932 361 762 c 1,23,24
 427 858 427 858 512.5 902.5 c 128,-1,25
 598 947 598 947 703 947 c 0,26,0
 817 947 817 947 910 895 c 128,-1,1
840 224.5 m 128,-1,28
 906 317 906 317 906 481 c 0,29,30
 906 646 906 646 843.5 717.5 c 128,-1,31
 781 789 781 789 666 789 c 0,32,33
 573 789 573 789 495 738.5 c 128,-1,34
 417 688 417 688 362 599 c 1,35,36
 366 436 366 436 396 334 c 128,-1,37
 426 232 426 232 487.5 182 c 128,-1,38
 549 132 549 132 647 132 c 0,39,27
 774 132 774 132 840 224.5 c 128,-1,28
EndSplineSet
Substitution2: "'ss20' Style Set 20 lookup 183 subtable" six.tosf
Substitution2: "'onum' Oldstyle Figures lookup 12 subtable" six.tosf
Substitution2: "'frac' Diagonal Fractions lookup 7 subtable" six.numr
Substitution2: "'dnom' Denominators lookup 5 subtable" six.dnom
Substitution2: "'numr' Numerators lookup 4 subtable" six.numr
Substitution2: "'sups' Superscript lookup 3 subtable" uni2076
Substitution2: "'subs' Subscript lookup 2 subtable" uni2086
AlternateSubs2: "'aalt' Access All Alternates lookup 1 subtable" uni2086 uni2076 six.numr six.dnom six.tosf
EndChar

StartChar: seven
Encoding: 55 55 26
Width: 1260
GlyphClass: 2
Flags: W
LayerCount: 2
Fore
SplineSet
307 36 m 1,0,-1
 866 1284 l 1,1,-1
 194 1284 l 1,2,-1
 194 1447 l 1,3,-1
 1070 1447 l 1,4,-1
 1070 1298 l 1,5,-1
 496 -22 l 1,6,-1
 307 36 l 1,0,-1
EndSplineSet
Substitution2: "'ss20' Style Set 20 lookup 183 subtable" seven.tosf
Substitution2: "'onum' Oldstyle Figures lookup 12 subtable" seven.tosf
Substitution2: "'frac' Diagonal Fractions lookup 7 subtable" seven.numr
Substitution2: "'dnom' Denominators lookup 5 subtable" seven.dnom
Substitution2: "'numr' Numerators lookup 4 subtable" seven.numr
Substitution2: "'sups' Superscript lookup 3 subtable" uni2077
Substitution2: "'subs' Subscript lookup 2 subtable" uni2087
AlternateSubs2: "'aalt' Access All Alternates lookup 1 subtable" uni2087 uni2077 seven.numr seven.dnom seven.tosf
EndChar

StartChar: eight
Encoding: 56 56 27
Width: 1260
GlyphClass: 2
Flags: W
LayerCount: 2
Fore
SplineSet
1011 924.5 m 128,-1,1
 950 848 950 848 826 778 c 1,2,3
 971 716 971 716 1050.5 617 c 128,-1,4
 1130 518 1130 518 1130 389 c 0,5,6
 1130 271 1130 271 1069 176.5 c 128,-1,7
 1008 82 1008 82 893.5 28 c 128,-1,8
 779 -26 779 -26 626 -26 c 0,9,10
 472 -26 472 -26 360 28 c 128,-1,11
 248 82 248 82 189 175.5 c 128,-1,12
 130 269 130 269 130 384 c 0,13,14
 130 629 130 629 416 759 c 1,15,16
 298 818 298 818 243 896 c 128,-1,17
 188 974 188 974 188 1092 c 0,18,19
 188 1216 188 1216 253.5 1302 c 128,-1,20
 319 1388 319 1388 420.5 1431 c 128,-1,21
 522 1474 522 1474 630 1474 c 0,22,23
 747 1474 747 1474 847.5 1432.5 c 128,-1,24
 948 1391 948 1391 1010 1307.5 c 128,-1,25
 1072 1224 1072 1224 1072 1103 c 0,26,0
 1072 1001 1072 1001 1011 924.5 c 128,-1,1
419.5 969.5 m 128,-1,28
 454 923 454 923 513.5 894 c 128,-1,29
 573 865 573 865 686 829 c 1,30,31
 787 888 787 888 831 946.5 c 128,-1,32
 875 1005 875 1005 875 1094 c 0,33,34
 875 1199 875 1199 810.5 1260.5 c 128,-1,35
 746 1322 746 1322 630 1322 c 256,36,37
 514 1322 514 1322 449.5 1261 c 128,-1,38
 385 1200 385 1200 385 1090 c 0,39,27
 385 1016 385 1016 419.5 969.5 c 128,-1,28
877.5 531 m 128,-1,41
 834 586 834 586 762 620.5 c 128,-1,42
 690 655 690 655 551 703 c 1,43,44
 453 657 453 657 396 581.5 c 128,-1,45
 339 506 339 506 339 388 c 0,46,47
 339 267 339 267 412.5 199.5 c 128,-1,48
 486 132 486 132 626 132 c 0,49,50
 719 132 719 132 786 165 c 128,-1,51
 853 198 853 198 887 256 c 128,-1,52
 921 314 921 314 921 388 c 0,53,40
 921 476 921 476 877.5 531 c 128,-1,41
EndSplineSet
Substitution2: "'ss20' Style Set 20 lookup 183 subtable" eight.tosf
Substitution2: "'onum' Oldstyle Figures lookup 12 subtable" eight.tosf
Substitution2: "'frac' Diagonal Fractions lookup 7 subtable" eight.numr
Substitution2: "'dnom' Denominators lookup 5 subtable" eight.dnom
Substitution2: "'numr' Numerators lookup 4 subtable" eight.numr
Substitution2: "'sups' Superscript lookup 3 subtable" uni2078
Substitution2: "'subs' Subscript lookup 2 subtable" uni2088
AlternateSubs2: "'aalt' Access All Alternates lookup 1 subtable" uni2088 uni2078 eight.numr eight.dnom eight.tosf
EndChar

StartChar: nine
Encoding: 57 57 28
Width: 1260
GlyphClass: 2
Flags: W
LayerCount: 2
Fore
SplineSet
876 1400 m 128,-1,1
 984 1329 984 1329 1038 1196.5 c 128,-1,2
 1092 1064 1092 1064 1092 882 c 0,3,4
 1092 594 1092 594 1011.5 416.5 c 128,-1,5
 931 239 931 239 761.5 133.5 c 128,-1,6
 592 28 592 28 302 -47 c 1,7,-1
 257 103 l 1,8,9
 460 159 460 159 590 234 c 128,-1,10
 720 309 720 309 792 419.5 c 128,-1,11
 864 530 864 530 878 690 c 1,12,13
 811 611 811 611 729 568.5 c 128,-1,14
 647 526 647 526 545 526 c 0,15,16
 425 526 425 526 331.5 582 c 128,-1,17
 238 638 238 638 185 743 c 128,-1,18
 132 848 132 848 132 988 c 0,19,20
 132 1139 132 1139 195 1248.5 c 128,-1,21
 258 1358 258 1358 366.5 1414.5 c 128,-1,22
 475 1471 475 1471 610 1471 c 0,23,0
 768 1471 768 1471 876 1400 c 128,-1,1
747 725 m 128,-1,25
 817 768 817 768 883 852 c 1,26,27
 881 1019 881 1019 852 1119.5 c 128,-1,28
 823 1220 823 1220 764.5 1266.5 c 128,-1,29
 706 1313 706 1313 610 1313 c 0,30,31
 477 1313 477 1313 408 1230 c 128,-1,32
 339 1147 339 1147 339 985 c 0,33,34
 339 830 339 830 404 756 c 128,-1,35
 469 682 469 682 589 682 c 0,36,24
 677 682 677 682 747 725 c 128,-1,25
EndSplineSet
Substitution2: "'ss20' Style Set 20 lookup 183 subtable" nine.tosf
Substitution2: "'onum' Oldstyle Figures lookup 12 subtable" nine.tosf
Substitution2: "'frac' Diagonal Fractions lookup 7 subtable" nine.numr
Substitution2: "'dnom' Denominators lookup 5 subtable" nine.dnom
Substitution2: "'numr' Numerators lookup 4 subtable" nine.numr
Substitution2: "'sups' Superscript lookup 3 subtable" uni2079
Substitution2: "'subs' Subscript lookup 2 subtable" uni2089
AlternateSubs2: "'aalt' Access All Alternates lookup 1 subtable" uni2089 uni2079 nine.numr nine.dnom nine.tosf
EndChar

StartChar: colon
Encoding: 58 58 29
Width: 1260
GlyphClass: 2
Flags: W
LayerCount: 2
Fore
SplineSet
474.5 995 m 128,-1,1
 498 1036 498 1036 538.5 1059.5 c 128,-1,2
 579 1083 579 1083 628 1083 c 0,3,4
 678 1083 678 1083 719 1059.5 c 128,-1,5
 760 1036 760 1036 784 995 c 128,-1,6
 808 954 808 954 808 905 c 0,7,8
 808 857 808 857 784 816 c 128,-1,9
 760 775 760 775 719 751 c 128,-1,10
 678 727 678 727 628 727 c 0,11,12
 579 727 579 727 538.5 751 c 128,-1,13
 498 775 498 775 474.5 816 c 128,-1,14
 451 857 451 857 451 905 c 0,15,0
 451 954 451 954 474.5 995 c 128,-1,1
474.5 241 m 128,-1,17
 498 281 498 281 538.5 305.5 c 128,-1,18
 579 330 579 330 628 330 c 256,19,20
 677 330 677 330 718.5 305.5 c 128,-1,21
 760 281 760 281 784 241 c 128,-1,22
 808 201 808 201 808 153 c 0,23,24
 808 104 808 104 784 63 c 128,-1,25
 760 22 760 22 719 -2 c 128,-1,26
 678 -26 678 -26 628 -26 c 0,27,28
 579 -26 579 -26 538.5 -2 c 128,-1,29
 498 22 498 22 474.5 63 c 128,-1,30
 451 104 451 104 451 153 c 0,31,16
 451 201 451 201 474.5 241 c 128,-1,17
EndSplineSet
Substitution2: "<2,2> Cursive lookup 980 nested-substitutions 0 subtable" colon.uc
Substitution2: "<2,2> Cursive lookup 978 nested-substitutions 0 subtable" colon.uc
Substitution2: "<2,2> Cursive lookup 976 nested-substitutions 0 subtable" colon.uc
Substitution2: "<2,2> Cursive lookup 974 nested-substitutions 0 subtable" colon.uc
Substitution2: "<2,2> Cursive lookup 972 nested-substitutions 0 subtable" colon.uc
Substitution2: "<2,2> Cursive lookup 970 nested-substitutions 0 subtable" colon.uc
Substitution2: "<2,2> Cursive lookup 968 nested-substitutions 0 subtable" colon.uc
Substitution2: "<2,2> Cursive lookup 966 nested-substitutions 0 subtable" colon.uc
Substitution2: "<2,2> Cursive lookup 964 nested-substitutions 0 subtable" colon.uc
Substitution2: "<2,2> Cursive lookup 962 nested-substitutions 0 subtable" colon.uc
Substitution2: "<2,2> Cursive lookup 960 nested-substitutions 0 subtable" colon.uc
Substitution2: "<2,2> Cursive lookup 958 nested-substitutions 0 subtable" colon.uc
Substitution2: "<2,2> Cursive lookup 930 nested-substitutions 0 subtable" question_colon.liga
Substitution2: "<2,2> Cursive lookup 928 nested-substitutions 0 subtable" question_colon.liga
Substitution2: "<2,2> Cursive lookup 926 nested-substitutions 0 subtable" question_colon.liga
Substitution2: "<2,2> Cursive lookup 924 nested-substitutions 0 subtable" question_colon.liga
Substitution2: "<2,2> Cursive lookup 922 nested-substitutions 0 subtable" question_colon.liga
Substitution2: "<2,2> Cursive lookup 920 nested-substitutions 0 subtable" question_colon.liga
Substitution2: "<2,2> Cursive lookup 918 nested-substitutions 0 subtable" question_colon.liga
Substitution2: "<2,2> Cursive lookup 874 nested-substitutions 0 subtable" numbersign_colon.liga
Substitution2: "<2,2> Cursive lookup 872 nested-substitutions 0 subtable" numbersign_colon.liga
Substitution2: "<2,2> Cursive lookup 870 nested-substitutions 0 subtable" numbersign_colon.liga
Substitution2: "<2,2> Cursive lookup 868 nested-substitutions 0 subtable" numbersign_colon.liga
Substitution2: "<2,2> Cursive lookup 866 nested-substitutions 0 subtable" numbersign_colon.liga
Substitution2: "<2,2> Cursive lookup 864 nested-substitutions 0 subtable" numbersign_colon.liga
Substitution2: "<2,2> Cursive lookup 862 nested-substitutions 0 subtable" numbersign_colon.liga
Substitution2: "<2,2> Cursive lookup 860 nested-substitutions 0 subtable" numbersign_colon.liga
Substitution2: "<2,2> Cursive lookup 858 nested-substitutions 0 subtable" numbersign_colon.liga
Substitution2: "<2,2> Cursive lookup 856 nested-substitutions 0 subtable" numbersign_colon.liga
Substitution2: "<2,2> Cursive lookup 854 nested-substitutions 0 subtable" numbersign_colon.liga
Substitution2: "<2,2> Cursive lookup 852 nested-substitutions 0 subtable" numbersign_colon.liga
Substitution2: "<2,2> Cursive lookup 850 nested-substitutions 0 subtable" numbersign_colon.liga
Substitution2: "<2,2> Cursive lookup 848 nested-substitutions 0 subtable" numbersign_colon.liga
Substitution2: "<2,2> Cursive lookup 846 nested-substitutions 0 subtable" numbersign_colon.liga
Substitution2: "<2,2> Cursive lookup 842 nested-substitutions 0 subtable" less_colon.liga
Substitution2: "<2,2> Cursive lookup 840 nested-substitutions 0 subtable" less_colon.liga
Substitution2: "<2,2> Cursive lookup 838 nested-substitutions 0 subtable" less_colon.liga
Substitution2: "<2,2> Cursive lookup 836 nested-substitutions 0 subtable" less_colon.liga
Substitution2: "<2,2> Cursive lookup 834 nested-substitutions 0 subtable" less_colon.liga
Substitution2: "<2,2> Cursive lookup 832 nested-substitutions 0 subtable" less_colon.liga
Substitution2: "<2,2> Cursive lookup 830 nested-substitutions 0 subtable" less_colon.liga
Substitution2: "<2,2> Cursive lookup 828 nested-substitutions 0 subtable" less_colon.liga
Substitution2: "<2,2> Cursive lookup 826 nested-substitutions 0 subtable" less_colon.liga
Substitution2: "<2,2> Cursive lookup 824 nested-substitutions 0 subtable" less_colon.liga
Substitution2: "<2,2> Cursive lookup 822 nested-substitutions 0 subtable" less_colon.liga
Substitution2: "<2,2> Cursive lookup 820 nested-substitutions 0 subtable" less_colon.liga
Substitution2: "<2,2> Cursive lookup 818 nested-substitutions 0 subtable" less_colon.liga
Substitution2: "<2,2> Cursive lookup 816 nested-substitutions 0 subtable" less_colon.liga
Substitution2: "<2,2> Cursive lookup 814 nested-substitutions 0 subtable" less_colon.liga
Substitution2: "<2,2> Cursive lookup 782 nested-substitutions 0 subtable" greater_colon.liga
Substitution2: "<2,2> Cursive lookup 780 nested-substitutions 0 subtable" greater_colon.liga
Substitution2: "<2,2> Cursive lookup 778 nested-substitutions 0 subtable" greater_colon.liga
Substitution2: "<2,2> Cursive lookup 776 nested-substitutions 0 subtable" greater_colon.liga
Substitution2: "<2,2> Cursive in Latin lookup 774 nested-substitutions 0 subtable" greater_colon.liga
Substitution2: "<2,2> Cursive in Latin lookup 772 nested-substitutions 0 subtable" greater_colon.liga
Substitution2: "<2,2> Cursive lookup 770 nested-substitutions 0 subtable" greater_colon.liga
Substitution2: "<2,2> Cursive lookup 750 nested-substitutions 0 subtable" LIG
Substitution2: "<2,2> Cursive lookup 748 nested-substitutions 0 subtable" LIG
Substitution2: "<2,2> Cursive lookup 746 nested-substitutions 0 subtable" LIG
Substitution2: "<2,2> Cursive lookup 744 nested-substitutions 0 subtable" LIG
Substitution2: "<2,2> Cursive lookup 742 nested-substitutions 0 subtable" LIG
Substitution2: "<2,2> Cursive lookup 740 nested-substitutions 0 subtable" LIG
Substitution2: "<2,2> Cursive lookup 738 nested-substitutions 0 subtable" LIG
Substitution2: "<2,2> Cursive lookup 736 nested-substitutions 0 subtable" colon_colon.liga
Substitution2: "<2,2> Cursive lookup 734 nested-substitutions 0 subtable" colon_colon.liga
Substitution2: "<2,2> Cursive lookup 732 nested-substitutions 0 subtable" colon_colon.liga
Substitution2: "<2,2> Cursive lookup 730 nested-substitutions 0 subtable" colon_colon.liga
Substitution2: "<2,2> Cursive lookup 728 nested-substitutions 0 subtable" colon_colon.liga
Substitution2: "<2,2> Cursive lookup 378 nested-substitutions 0 subtable" LIG
Substitution2: "<2,2> Cursive lookup 376 nested-substitutions 0 subtable" LIG
Substitution2: "<2,2> Cursive lookup 374 nested-substitutions 0 subtable" LIG
Substitution2: "<2,2> Cursive lookup 372 nested-substitutions 0 subtable" LIG
Substitution2: "<2,2> Cursive lookup 370 nested-substitutions 0 subtable" LIG
Substitution2: "<2,2> Cursive lookup 368 nested-substitutions 0 subtable" LIG
Substitution2: "<2,2> Cursive lookup 366 nested-substitutions 0 subtable" LIG
Substitution2: "<2,2> Cursive lookup 364 nested-substitutions 0 subtable" colon_colon_colon.liga
Substitution2: "<2,2> Cursive lookup 362 nested-substitutions 0 subtable" colon_colon_colon.liga
Substitution2: "<2,2> Cursive lookup 360 nested-substitutions 0 subtable" colon_colon_colon.liga
Substitution2: "<2,2> Cursive lookup 358 nested-substitutions 0 subtable" colon_colon_colon.liga
Substitution2: "Single Substitution lookup 275 subtable" colon.uc
Substitution2: "Single Substitution lookup 269 subtable" question_colon.liga
Substitution2: "Single Substitution lookup 262 subtable" numbersign_colon.liga
Substitution2: "Single Substitution lookup 260 subtable" less_colon.liga
Substitution2: "Single Substitution lookup 254 subtable" greater_colon.liga
Substitution2: "Single Substitution lookup 249 subtable" LIG
Substitution2: "Single Substitution lookup 248 subtable" colon_colon.liga
Substitution2: "Single Substitution lookup 195 subtable" LIG
Substitution2: "Single Substitution lookup 194 subtable" LIG
Substitution2: "Single Substitution lookup 193 subtable" colon_colon_colon.liga
AlternateSubs2: "'aalt' Access All Alternates lookup 1 subtable" colon_colon_colon.liga LIG colon_colon.liga greater_colon.liga less_colon.liga numbersign_colon.liga question_colon.liga colon.uc
EndChar

StartChar: semicolon
Encoding: 59 59 30
Width: 1260
GlyphClass: 2
Flags: W
LayerCount: 2
Fore
SplineSet
721.5 335.5 m 128,-1,1
 762 312 762 312 786 271 c 128,-1,2
 810 230 810 230 810 182 c 0,3,4
 810 129 810 129 798 97 c 0,5,6
 762 1 762 1 760 -3 c 2,7,-1
 597 -344 l 1,8,-1
 424 -385 l 1,9,-1
 526 35 l 1,10,11
 491 59 491 59 472 98.5 c 128,-1,12
 453 138 453 138 453 183 c 0,13,14
 453 231 453 231 476 271.5 c 128,-1,15
 499 312 499 312 540 335.5 c 128,-1,16
 581 359 581 359 630 359 c 0,17,0
 681 359 681 359 721.5 335.5 c 128,-1,1
719 1059.5 m 128,-1,19
 760 1036 760 1036 784 995 c 128,-1,20
 808 954 808 954 808 905 c 0,21,22
 808 857 808 857 784 816 c 128,-1,23
 760 775 760 775 719 751 c 128,-1,24
 678 727 678 727 628 727 c 0,25,26
 579 727 579 727 538.5 751 c 128,-1,27
 498 775 498 775 474.5 816 c 128,-1,28
 451 857 451 857 451 905 c 256,29,30
 451 953 451 953 474.5 994.5 c 128,-1,31
 498 1036 498 1036 538.5 1059.5 c 128,-1,32
 579 1083 579 1083 628 1083 c 0,33,18
 678 1083 678 1083 719 1059.5 c 128,-1,19
EndSplineSet
Substitution2: "<2,2> Cursive lookup 950 nested-substitutions 0 subtable" LIG
Substitution2: "<2,2> Cursive lookup 948 nested-substitutions 0 subtable" LIG
Substitution2: "<2,2> Cursive lookup 946 nested-substitutions 0 subtable" LIG
Substitution2: "<2,2> Cursive lookup 944 nested-substitutions 0 subtable" LIG
Substitution2: "<2,2> Cursive lookup 942 nested-substitutions 0 subtable" LIG
Substitution2: "<2,2> Cursive lookup 940 nested-substitutions 0 subtable" LIG
Substitution2: "<2,2> Cursive lookup 938 nested-substitutions 0 subtable" LIG
Substitution2: "<2,2> Cursive lookup 936 nested-substitutions 0 subtable" semicolon_semicolon.liga
Substitution2: "<2,2> Cursive lookup 934 nested-substitutions 0 subtable" semicolon_semicolon.liga
Substitution2: "Single Substitution lookup 272 subtable" LIG
Substitution2: "Single Substitution lookup 271 subtable" semicolon_semicolon.liga
AlternateSubs2: "'aalt' Access All Alternates lookup 1 subtable" semicolon_semicolon.liga LIG
EndChar

StartChar: less
Encoding: 60 60 31
Width: 1260
GlyphClass: 2
Flags: W
LayerCount: 2
Fore
SplineSet
1084 1104 m 1,0,-1
 352 657 l 1,1,-1
 1084 210 l 1,2,-1
 980 63 l 1,3,-1
 179 564 l 1,4,-1
 179 753 l 1,5,-1
 988 1254 l 1,6,-1
 1084 1104 l 1,0,-1
EndSplineSet
Substitution2: "<2,2> Cursive lookup 874 nested-substitutions 0 subtable" LIG
Substitution2: "<2,2> Cursive lookup 872 nested-substitutions 0 subtable" LIG
Substitution2: "<2,2> Cursive lookup 870 nested-substitutions 0 subtable" LIG
Substitution2: "<2,2> Cursive lookup 868 nested-substitutions 0 subtable" LIG
Substitution2: "<2,2> Cursive lookup 866 nested-substitutions 0 subtable" LIG
Substitution2: "<2,2> Cursive lookup 864 nested-substitutions 0 subtable" LIG
Substitution2: "<2,2> Cursive lookup 862 nested-substitutions 0 subtable" LIG
Substitution2: "<2,2> Cursive lookup 860 nested-substitutions 0 subtable" LIG
Substitution2: "<2,2> Cursive lookup 858 nested-substitutions 0 subtable" LIG
Substitution2: "<2,2> Cursive lookup 856 nested-substitutions 0 subtable" LIG
Substitution2: "<2,2> Cursive lookup 854 nested-substitutions 0 subtable" LIG
Substitution2: "<2,2> Cursive lookup 852 nested-substitutions 0 subtable" LIG
Substitution2: "<2,2> Cursive lookup 850 nested-substitutions 0 subtable" LIG
Substitution2: "<2,2> Cursive lookup 848 nested-substitutions 0 subtable" LIG
Substitution2: "<2,2> Cursive lookup 846 nested-substitutions 0 subtable" LIG
Substitution2: "<2,2> Cursive lookup 844 nested-substitutions 0 subtable" less_less.liga
Substitution2: "<2,2> Cursive lookup 842 nested-substitutions 0 subtable" LIG
Substitution2: "<2,2> Cursive lookup 840 nested-substitutions 0 subtable" LIG
Substitution2: "<2,2> Cursive lookup 838 nested-substitutions 0 subtable" LIG
Substitution2: "<2,2> Cursive lookup 836 nested-substitutions 0 subtable" LIG
Substitution2: "<2,2> Cursive lookup 834 nested-substitutions 0 subtable" LIG
Substitution2: "<2,2> Cursive lookup 832 nested-substitutions 0 subtable" LIG
Substitution2: "<2,2> Cursive lookup 830 nested-substitutions 0 subtable" LIG
Substitution2: "<2,2> Cursive lookup 828 nested-substitutions 0 subtable" LIG
Substitution2: "<2,2> Cursive lookup 826 nested-substitutions 0 subtable" LIG
Substitution2: "<2,2> Cursive lookup 824 nested-substitutions 0 subtable" LIG
Substitution2: "<2,2> Cursive lookup 822 nested-substitutions 0 subtable" LIG
Substitution2: "<2,2> Cursive lookup 820 nested-substitutions 0 subtable" LIG
Substitution2: "<2,2> Cursive lookup 818 nested-substitutions 0 subtable" LIG
Substitution2: "<2,2> Cursive lookup 816 nested-substitutions 0 subtable" LIG
Substitution2: "<2,2> Cursive lookup 814 nested-substitutions 0 subtable" LIG
Substitution2: "<2,2> Cursive lookup 812 nested-substitutions 0 subtable" hyphen_less.liga
Substitution2: "<2,2> Cursive lookup 810 nested-substitutions 0 subtable" hyphen_less.liga
Substitution2: "<2,2> Cursive lookup 808 nested-substitutions 0 subtable" hyphen_less.liga
Substitution2: "<2,2> Cursive lookup 806 nested-substitutions 0 subtable" hyphen_less.liga
Substitution2: "<2,2> Cursive lookup 750 nested-substitutions 0 subtable" colon_less.liga
Substitution2: "<2,2> Cursive lookup 748 nested-substitutions 0 subtable" colon_less.liga
Substitution2: "<2,2> Cursive lookup 746 nested-substitutions 0 subtable" colon_less.liga
Substitution2: "<2,2> Cursive lookup 744 nested-substitutions 0 subtable" colon_less.liga
Substitution2: "<2,2> Cursive lookup 742 nested-substitutions 0 subtable" colon_less.liga
Substitution2: "<2,2> Cursive lookup 740 nested-substitutions 0 subtable" colon_less.liga
Substitution2: "<2,2> Cursive lookup 738 nested-substitutions 0 subtable" colon_less.liga
Substitution2: "<2,2> Cursive lookup 614 nested-substitutions 0 subtable" period_period_less.liga
Substitution2: "<2,2> Cursive lookup 612 nested-substitutions 0 subtable" period_period_less.liga
Substitution2: "<2,2> Cursive lookup 610 nested-substitutions 0 subtable" period_period_less.liga
Substitution2: "<2,2> Cursive lookup 608 nested-substitutions 0 subtable" period_period_less.liga
Substitution2: "<2,2> Cursive lookup 606 nested-substitutions 0 subtable" period_period_less.liga
Substitution2: "<2,2> Cursive lookup 604 nested-substitutions 0 subtable" period_period_less.liga
Substitution2: "<2,2> Cursive lookup 602 nested-substitutions 0 subtable" period_period_less.liga
Substitution2: "<2,2> Cursive lookup 600 nested-substitutions 0 subtable" period_period_less.liga
Substitution2: "<2,2> Cursive lookup 598 nested-substitutions 0 subtable" LIG
Substitution2: "<2,2> Cursive lookup 596 nested-substitutions 0 subtable" LIG
Substitution2: "<2,2> Cursive lookup 594 nested-substitutions 0 subtable" LIG
Substitution2: "<2,2> Cursive lookup 592 nested-substitutions 0 subtable" LIG
Substitution2: "<2,2> Cursive lookup 590 nested-substitutions 0 subtable" LIG
Substitution2: "<2,2> Cursive lookup 588 nested-substitutions 0 subtable" LIG
Substitution2: "<2,2> Cursive lookup 586 nested-substitutions 0 subtable" LIG
Substitution2: "<2,2> Cursive lookup 584 nested-substitutions 0 subtable" LIG
Substitution2: "<2,2> Cursive lookup 582 nested-substitutions 0 subtable" LIG
Substitution2: "<2,2> Cursive lookup 580 nested-substitutions 0 subtable" less_less_less.liga
Substitution2: "<2,2> Cursive lookup 578 nested-substitutions 0 subtable" LIG
Substitution2: "<2,2> Cursive lookup 576 nested-substitutions 0 subtable" LIG
Substitution2: "<2,2> Cursive lookup 574 nested-substitutions 0 subtable" LIG
Substitution2: "<2,2> Cursive lookup 572 nested-substitutions 0 subtable" LIG
Substitution2: "<2,2> Cursive lookup 570 nested-substitutions 0 subtable" LIG
Substitution2: "<2,2> Cursive lookup 568 nested-substitutions 0 subtable" LIG
Substitution2: "<2,2> Cursive lookup 566 nested-substitutions 0 subtable" LIG
Substitution2: "<2,2> Cursive lookup 564 nested-substitutions 0 subtable" less_hyphen_less.liga
Substitution2: "<2,2> Cursive lookup 562 nested-substitutions 0 subtable" less_hyphen_less.liga
Substitution2: "<2,2> Cursive lookup 560 nested-substitutions 0 subtable" LIG
Substitution2: "<2,2> Cursive lookup 558 nested-substitutions 0 subtable" LIG
Substitution2: "<2,2> Cursive lookup 554 nested-substitutions 0 subtable" LIG
Substitution2: "<2,2> Cursive lookup 552 nested-substitutions 0 subtable" LIG
Substitution2: "<2,2> Cursive lookup 550 nested-substitutions 0 subtable" LIG
Substitution2: "<2,2> Cursive lookup 548 nested-substitutions 0 subtable" LIG
Substitution2: "<2,2> Cursive lookup 546 nested-substitutions 0 subtable" LIG
Substitution2: "<2,2> Cursive lookup 544 nested-substitutions 0 subtable" LIG
Substitution2: "<2,2> Cursive lookup 542 nested-substitutions 0 subtable" LIG
Substitution2: "<2,2> Cursive lookup 540 nested-substitutions 0 subtable" less_equal_less.liga
Substitution2: "<2,2> Cursive lookup 538 nested-substitutions 0 subtable" less_equal_less.liga
Substitution2: "<2,2> Cursive lookup 536 nested-substitutions 0 subtable" LIG
Substitution2: "<2,2> Cursive lookup 534 nested-substitutions 0 subtable" LIG
Substitution2: "<2,2> Cursive lookup 532 nested-substitutions 0 subtable" LIG
Substitution2: "<2,2> Cursive lookup 530 nested-substitutions 0 subtable" LIG
Substitution2: "<2,2> Cursive lookup 528 nested-substitutions 0 subtable" LIG
Substitution2: "<2,2> Cursive lookup 524 nested-substitutions 0 subtable" LIG
Substitution2: "<2,2> Cursive lookup 522 nested-substitutions 0 subtable" LIG
Substitution2: "<2,2> Cursive lookup 520 nested-substitutions 0 subtable" LIG
Substitution2: "<2,2> Cursive lookup 518 nested-substitutions 0 subtable" LIG
Substitution2: "<2,2> Cursive lookup 516 nested-substitutions 0 subtable" LIG
Substitution2: "<2,2> Cursive lookup 514 nested-substitutions 0 subtable" LIG
Substitution2: "<2,2> Cursive lookup 512 nested-substitutions 0 subtable" LIG
Substitution2: "<2,2> Cursive lookup 510 nested-substitutions 0 subtable" LIG
Substitution2: "<2,2> Cursive lookup 508 nested-substitutions 0 subtable" LIG
Substitution2: "<2,2> Cursive lookup 506 nested-substitutions 0 subtable" LIG
Substitution2: "<2,2> Cursive lookup 504 nested-substitutions 0 subtable" LIG
Substitution2: "<2,2> Cursive lookup 502 nested-substitutions 0 subtable" LIG
Substitution2: "<2,2> Cursive lookup 500 nested-substitutions 0 subtable" LIG
Substitution2: "<2,2> Cursive lookup 498 nested-substitutions 0 subtable" LIG
Substitution2: "<2,2> Cursive lookup 496 nested-substitutions 0 subtable" LIG
Substitution2: "<2,2> Cursive lookup 494 nested-substitutions 0 subtable" LIG
Substitution2: "<2,2> Cursive lookup 492 nested-substitutions 0 subtable" LIG
Substitution2: "<2,2> Cursive lookup 490 nested-substitutions 0 subtable" LIG
Substitution2: "<2,2> Cursive lookup 488 nested-substitutions 0 subtable" LIG
Substitution2: "<2,2> Cursive lookup 486 nested-substitutions 0 subtable" LIG
Substitution2: "<2,2> Cursive lookup 484 nested-substitutions 0 subtable" LIG
Substitution2: "<2,2> Cursive lookup 482 nested-substitutions 0 subtable" LIG
Substitution2: "<2,2> Cursive lookup 480 nested-substitutions 0 subtable" LIG
Substitution2: "<2,2> Cursive lookup 478 nested-substitutions 0 subtable" hyphen_less_less.liga
Substitution2: "<2,2> Cursive lookup 476 nested-substitutions 0 subtable" hyphen_less_less.liga
Substitution2: "<2,2> Cursive lookup 474 nested-substitutions 0 subtable" hyphen_less_less.liga
Substitution2: "<2,2> Cursive lookup 410 nested-substitutions 0 subtable" LIG
Substitution2: "<2,2> Cursive lookup 408 nested-substitutions 0 subtable" LIG
Substitution2: "<2,2> Cursive lookup 406 nested-substitutions 0 subtable" equal_less_less.liga
Substitution2: "<2,2> Cursive lookup 404 nested-substitutions 0 subtable" equal_less_less.liga
Substitution2: "<2,2> Cursive lookup 402 nested-substitutions 0 subtable" equal_less_less.liga
Substitution2: "<2,2> Cursive lookup 314 nested-substitutions 0 subtable" LIG
Substitution2: "<2,2> Cursive lookup 312 nested-substitutions 0 subtable" LIG
Substitution2: "<2,2> Cursive lookup 310 nested-substitutions 0 subtable" LIG
Substitution2: "<2,2> Cursive lookup 308 nested-substitutions 0 subtable" LIG
Substitution2: "<2,2> Cursive lookup 306 nested-substitutions 0 subtable" LIG
Substitution2: "<2,2> Cursive lookup 304 nested-substitutions 0 subtable" LIG
Substitution2: "<2,2> Cursive lookup 302 nested-substitutions 0 subtable" LIG
Substitution2: "<2,2> Cursive lookup 300 nested-substitutions 0 subtable" LIG
Substitution2: "<2,2> Cursive lookup 298 nested-substitutions 0 subtable" LIG
Substitution2: "<2,2> Cursive lookup 296 nested-substitutions 0 subtable" LIG
Substitution2: "<2,2> Cursive lookup 294 nested-substitutions 0 subtable" LIG
Substitution2: "<2,2> Cursive lookup 292 nested-substitutions 0 subtable" LIG
Substitution2: "Single Substitution lookup 262 subtable" LIG
Substitution2: "Single Substitution lookup 261 subtable" less_less.liga
Substitution2: "Single Substitution lookup 260 subtable" LIG
Substitution2: "Single Substitution lookup 259 subtable" hyphen_less.liga
Substitution2: "Single Substitution lookup 249 subtable" colon_less.liga
Substitution2: "Single Substitution lookup 233 subtable" period_period_less.liga
Substitution2: "Single Substitution lookup 232 subtable" LIG
Substitution2: "Single Substitution lookup 231 subtable" LIG
Substitution2: "Single Substitution lookup 230 subtable" less_less_less.liga
Substitution2: "Single Substitution lookup 229 subtable" LIG
Substitution2: "Single Substitution lookup 228 subtable" less_hyphen_less.liga
Substitution2: "Single Substitution lookup 227 subtable" LIG
Substitution2: "Single Substitution lookup 225 subtable" LIG
Substitution2: "Single Substitution lookup 224 subtable" less_equal_less.liga
Substitution2: "Single Substitution lookup 223 subtable" LIG
Substitution2: "Single Substitution lookup 221 subtable" LIG
Substitution2: "Single Substitution lookup 220 subtable" LIG
Substitution2: "Single Substitution lookup 219 subtable" LIG
Substitution2: "Single Substitution lookup 218 subtable" LIG
Substitution2: "Single Substitution lookup 217 subtable" LIG
Substitution2: "Single Substitution lookup 216 subtable" hyphen_less_less.liga
Substitution2: "Single Substitution lookup 202 subtable" LIG
Substitution2: "Single Substitution lookup 201 subtable" equal_less_less.liga
Substitution2: "Single Substitution lookup 189 subtable" LIG
Substitution2: "Single Substitution lookup 188 subtable" LIG
AlternateSubs2: "'aalt' Access All Alternates lookup 1 subtable" LIG equal_less_less.liga hyphen_less_less.liga less_equal_less.liga less_hyphen_less.liga less_less_less.liga period_period_less.liga colon_less.liga hyphen_less.liga less_less.liga
EndChar

StartChar: equal
Encoding: 61 61 32
Width: 1260
GlyphClass: 2
Flags: W
LayerCount: 2
Fore
SplineSet
1050 771 m 1,0,-1
 210 771 l 1,1,-1
 210 941 l 1,2,-1
 1050 941 l 1,3,-1
 1050 771 l 1,0,-1
1050 365 m 1,4,-1
 210 365 l 1,5,-1
 210 536 l 1,6,-1
 1050 536 l 1,7,-1
 1050 365 l 1,4,-1
EndSplineSet
Substitution2: "<2,2> Cursive lookup 950 nested-substitutions 0 subtable" slash_equal.liga
Substitution2: "<2,2> Cursive lookup 948 nested-substitutions 0 subtable" slash_equal.liga
Substitution2: "<2,2> Cursive lookup 946 nested-substitutions 0 subtable" slash_equal.liga
Substitution2: "<2,2> Cursive lookup 944 nested-substitutions 0 subtable" slash_equal.liga
Substitution2: "<2,2> Cursive lookup 942 nested-substitutions 0 subtable" slash_equal.liga
Substitution2: "<2,2> Cursive lookup 940 nested-substitutions 0 subtable" slash_equal.liga
Substitution2: "<2,2> Cursive lookup 938 nested-substitutions 0 subtable" slash_equal.liga
Substitution2: "<2,2> Cursive lookup 930 nested-substitutions 0 subtable" question_equal.liga
Substitution2: "<2,2> Cursive lookup 928 nested-substitutions 0 subtable" question_equal.liga
Substitution2: "<2,2> Cursive lookup 926 nested-substitutions 0 subtable" question_equal.liga
Substitution2: "<2,2> Cursive lookup 924 nested-substitutions 0 subtable" question_equal.liga
Substitution2: "<2,2> Cursive lookup 922 nested-substitutions 0 subtable" question_equal.liga
Substitution2: "<2,2> Cursive lookup 920 nested-substitutions 0 subtable" question_equal.liga
Substitution2: "<2,2> Cursive lookup 918 nested-substitutions 0 subtable" question_equal.liga
Substitution2: "<2,2> Cursive lookup 902 nested-substitutions 0 subtable" period_equal.liga
Substitution2: "<2,2> Cursive lookup 900 nested-substitutions 0 subtable" period_equal.liga
Substitution2: "<2,2> Cursive lookup 898 nested-substitutions 0 subtable" period_equal.liga
Substitution2: "<2,2> Cursive lookup 896 nested-substitutions 0 subtable" period_equal.liga
Substitution2: "<2,2> Cursive lookup 894 nested-substitutions 0 subtable" period_equal.liga
Substitution2: "<2,2> Cursive lookup 874 nested-substitutions 0 subtable" numbersign_equal.liga
Substitution2: "<2,2> Cursive lookup 872 nested-substitutions 0 subtable" numbersign_equal.liga
Substitution2: "<2,2> Cursive lookup 870 nested-substitutions 0 subtable" numbersign_equal.liga
Substitution2: "<2,2> Cursive lookup 868 nested-substitutions 0 subtable" numbersign_equal.liga
Substitution2: "<2,2> Cursive lookup 866 nested-substitutions 0 subtable" numbersign_equal.liga
Substitution2: "<2,2> Cursive lookup 864 nested-substitutions 0 subtable" numbersign_equal.liga
Substitution2: "<2,2> Cursive lookup 862 nested-substitutions 0 subtable" numbersign_equal.liga
Substitution2: "<2,2> Cursive lookup 860 nested-substitutions 0 subtable" numbersign_equal.liga
Substitution2: "<2,2> Cursive lookup 858 nested-substitutions 0 subtable" numbersign_equal.liga
Substitution2: "<2,2> Cursive lookup 856 nested-substitutions 0 subtable" numbersign_equal.liga
Substitution2: "<2,2> Cursive lookup 854 nested-substitutions 0 subtable" numbersign_equal.liga
Substitution2: "<2,2> Cursive lookup 852 nested-substitutions 0 subtable" numbersign_equal.liga
Substitution2: "<2,2> Cursive lookup 850 nested-substitutions 0 subtable" numbersign_equal.liga
Substitution2: "<2,2> Cursive lookup 848 nested-substitutions 0 subtable" numbersign_equal.liga
Substitution2: "<2,2> Cursive lookup 846 nested-substitutions 0 subtable" numbersign_equal.liga
Substitution2: "<2,2> Cursive lookup 842 nested-substitutions 0 subtable" less_equal.liga
Substitution2: "<2,2> Cursive lookup 840 nested-substitutions 0 subtable" less_equal.liga
Substitution2: "<2,2> Cursive lookup 838 nested-substitutions 0 subtable" less_equal.liga
Substitution2: "<2,2> Cursive lookup 836 nested-substitutions 0 subtable" less_equal.liga
Substitution2: "<2,2> Cursive lookup 834 nested-substitutions 0 subtable" less_equal.liga
Substitution2: "<2,2> Cursive lookup 832 nested-substitutions 0 subtable" less_equal.liga
Substitution2: "<2,2> Cursive lookup 830 nested-substitutions 0 subtable" less_equal.liga
Substitution2: "<2,2> Cursive lookup 828 nested-substitutions 0 subtable" less_equal.liga
Substitution2: "<2,2> Cursive lookup 826 nested-substitutions 0 subtable" less_equal.liga
Substitution2: "<2,2> Cursive lookup 824 nested-substitutions 0 subtable" less_equal.liga
Substitution2: "<2,2> Cursive lookup 822 nested-substitutions 0 subtable" less_equal.liga
Substitution2: "<2,2> Cursive lookup 820 nested-substitutions 0 subtable" less_equal.liga
Substitution2: "<2,2> Cursive lookup 818 nested-substitutions 0 subtable" less_equal.liga
Substitution2: "<2,2> Cursive lookup 816 nested-substitutions 0 subtable" less_equal.liga
Substitution2: "<2,2> Cursive lookup 814 nested-substitutions 0 subtable" less_equal.liga
Substitution2: "<2,2> Cursive lookup 782 nested-substitutions 0 subtable" greater_equal.liga
Substitution2: "<2,2> Cursive lookup 780 nested-substitutions 0 subtable" greater_equal.liga
Substitution2: "<2,2> Cursive lookup 778 nested-substitutions 0 subtable" greater_equal.liga
Substitution2: "<2,2> Cursive lookup 776 nested-substitutions 0 subtable" greater_equal.liga
Substitution2: "<2,2> Cursive in Latin lookup 774 nested-substitutions 0 subtable" greater_equal.liga
Substitution2: "<2,2> Cursive in Latin lookup 772 nested-substitutions 0 subtable" greater_equal.liga
Substitution2: "<2,2> Cursive lookup 770 nested-substitutions 0 subtable" greater_equal.liga
Substitution2: "<2,2> Cursive lookup 766 nested-substitutions 0 subtable" exclam_equal.liga
Substitution2: "<2,2> Cursive lookup 764 nested-substitutions 0 subtable" exclam_equal.liga
Substitution2: "<2,2> Cursive lookup 762 nested-substitutions 0 subtable" LIG
Substitution2: "<2,2> Cursive lookup 760 nested-substitutions 0 subtable" LIG
Substitution2: "<2,2> Cursive lookup 758 nested-substitutions 0 subtable" LIG
Substitution2: "<2,2> Cursive lookup 756 nested-substitutions 0 subtable" equal_equal.liga
Substitution2: "<2,2> Cursive lookup 754 nested-substitutions 0 subtable" equal_equal.liga
Substitution2: "<2,2> Cursive lookup 752 nested-substitutions 0 subtable" equal_equal.liga
Substitution2: "<2,2> Cursive lookup 750 nested-substitutions 0 subtable" colon_equal.liga
Substitution2: "<2,2> Cursive lookup 748 nested-substitutions 0 subtable" colon_equal.liga
Substitution2: "<2,2> Cursive lookup 746 nested-substitutions 0 subtable" colon_equal.liga
Substitution2: "<2,2> Cursive lookup 744 nested-substitutions 0 subtable" colon_equal.liga
Substitution2: "<2,2> Cursive lookup 742 nested-substitutions 0 subtable" colon_equal.liga
Substitution2: "<2,2> Cursive lookup 740 nested-substitutions 0 subtable" colon_equal.liga
Substitution2: "<2,2> Cursive lookup 738 nested-substitutions 0 subtable" colon_equal.liga
Substitution2: "<2,2> Cursive lookup 722 nested-substitutions 0 subtable" bar_equal.liga
Substitution2: "<2,2> Cursive lookup 720 nested-substitutions 0 subtable" bar_equal.liga
Substitution2: "<2,2> Cursive lookup 718 nested-substitutions 0 subtable" bar_equal.liga
Substitution2: "<2,2> Cursive lookup 716 nested-substitutions 0 subtable" bar_equal.liga
Substitution2: "<2,2> Cursive lookup 714 nested-substitutions 0 subtable" bar_equal.liga
Substitution2: "<2,2> Cursive lookup 712 nested-substitutions 0 subtable" bar_equal.liga
Substitution2: "<2,2> Cursive lookup 710 nested-substitutions 0 subtable" bar_equal.liga
Substitution2: "<2,2> Cursive lookup 708 nested-substitutions 0 subtable" bar_equal.liga
Substitution2: "<2,2> Cursive lookup 706 nested-substitutions 0 subtable" bar_equal.liga
Substitution2: "<2,2> Cursive lookup 704 nested-substitutions 0 subtable" bar_equal.liga
Substitution2: "<2,2> Cursive lookup 702 nested-substitutions 0 subtable" bar_equal.liga
Substitution2: "<2,2> Cursive lookup 688 nested-substitutions 0 subtable" asciitilde_equal.liga
Substitution2: "<2,2> Cursive lookup 686 nested-substitutions 0 subtable" asciitilde_equal.liga
Substitution2: "<2,2> Cursive lookup 684 nested-substitutions 0 subtable" asciitilde_equal.liga
Substitution2: "<2,2> Cursive lookup 682 nested-substitutions 0 subtable" asciitilde_equal.liga
Substitution2: "<2,2> Cursive lookup 680 nested-substitutions 0 subtable" asciitilde_equal.liga
Substitution2: "<2,2> Cursive lookup 678 nested-substitutions 0 subtable" asciitilde_equal.liga
Substitution2: "<2,2> Cursive lookup 676 nested-substitutions 0 subtable" asciitilde_equal.liga
Substitution2: "<2,2> Cursive lookup 674 nested-substitutions 0 subtable" asciitilde_equal.liga
Substitution2: "<2,2> Cursive lookup 672 nested-substitutions 0 subtable" asciitilde_equal.liga
Substitution2: "<2,2> Cursive lookup 670 nested-substitutions 0 subtable" asciitilde_equal.liga
Substitution2: "<2,2> Cursive lookup 668 nested-substitutions 0 subtable" asciicircum_equal.liga
Substitution2: "<2,2> Cursive lookup 666 nested-substitutions 0 subtable" asciicircum_equal.liga
Substitution2: "<2,2> Cursive lookup 664 nested-substitutions 0 subtable" asciicircum_equal.liga
Substitution2: "<2,2> Cursive lookup 662 nested-substitutions 0 subtable" asciicircum_equal.liga
Substitution2: "<2,2> Cursive lookup 632 nested-substitutions 0 subtable" LIG
Substitution2: "<2,2> Cursive lookup 630 nested-substitutions 0 subtable" LIG
Substitution2: "<2,2> Cursive lookup 628 nested-substitutions 0 subtable" slash_equal_equal.liga
Substitution2: "<2,2> Cursive lookup 626 nested-substitutions 0 subtable" slash_equal_equal.liga
Substitution2: "<2,2> Cursive lookup 624 nested-substitutions 0 subtable" slash_equal_equal.liga
Substitution2: "<2,2> Cursive lookup 578 nested-substitutions 0 subtable" less_less_equal.liga
Substitution2: "<2,2> Cursive lookup 576 nested-substitutions 0 subtable" less_less_equal.liga
Substitution2: "<2,2> Cursive lookup 574 nested-substitutions 0 subtable" less_less_equal.liga
Substitution2: "<2,2> Cursive lookup 572 nested-substitutions 0 subtable" less_less_equal.liga
Substitution2: "<2,2> Cursive lookup 570 nested-substitutions 0 subtable" less_less_equal.liga
Substitution2: "<2,2> Cursive lookup 568 nested-substitutions 0 subtable" less_less_equal.liga
Substitution2: "<2,2> Cursive lookup 566 nested-substitutions 0 subtable" less_less_equal.liga
Substitution2: "<2,2> Cursive lookup 540 nested-substitutions 0 subtable" LIG
Substitution2: "<2,2> Cursive lookup 538 nested-substitutions 0 subtable" LIG
Substitution2: "<2,2> Cursive lookup 536 nested-substitutions 0 subtable" LIG
Substitution2: "<2,2> Cursive lookup 534 nested-substitutions 0 subtable" LIG
Substitution2: "<2,2> Cursive lookup 532 nested-substitutions 0 subtable" LIG
Substitution2: "<2,2> Cursive lookup 530 nested-substitutions 0 subtable" LIG
Substitution2: "<2,2> Cursive lookup 528 nested-substitutions 0 subtable" LIG
Substitution2: "<2,2> Cursive lookup 526 nested-substitutions 0 subtable" less_equal_equal.liga
Substitution2: "<2,2> Cursive lookup 524 nested-substitutions 0 subtable" LIG
Substitution2: "<2,2> Cursive lookup 522 nested-substitutions 0 subtable" LIG
Substitution2: "<2,2> Cursive lookup 520 nested-substitutions 0 subtable" LIG
Substitution2: "<2,2> Cursive lookup 518 nested-substitutions 0 subtable" LIG
Substitution2: "<2,2> Cursive lookup 516 nested-substitutions 0 subtable" LIG
Substitution2: "<2,2> Cursive lookup 514 nested-substitutions 0 subtable" LIG
Substitution2: "<2,2> Cursive lookup 440 nested-substitutions 0 subtable" greater_greater_equal.liga
Substitution2: "<2,2> Cursive lookup 438 nested-substitutions 0 subtable" greater_greater_equal.liga
Substitution2: "<2,2> Cursive lookup 436 nested-substitutions 0 subtable" greater_greater_equal.liga
Substitution2: "<2,2> Cursive lookup 434 nested-substitutions 0 subtable" greater_greater_equal.liga
Substitution2: "<2,2> Cursive lookup 432 nested-substitutions 0 subtable" LIG
Substitution2: "<2,2> Cursive lookup 430 nested-substitutions 0 subtable" LIG
Substitution2: "<2,2> Cursive lookup 428 nested-substitutions 0 subtable" LIG
Substitution2: "<2,2> Cursive lookup 426 nested-substitutions 0 subtable" LIG
Substitution2: "<2,2> Cursive lookup 424 nested-substitutions 0 subtable" LIG
Substitution2: "<2,2> Cursive lookup 422 nested-substitutions 0 subtable" LIG
Substitution2: "<2,2> Cursive lookup 420 nested-substitutions 0 subtable" LIG
Substitution2: "<2,2> Cursive lookup 418 nested-substitutions 0 subtable" exclam_equal_equal.liga
Substitution2: "<2,2> Cursive lookup 416 nested-substitutions 0 subtable" LIG
Substitution2: "<2,2> Cursive lookup 414 nested-substitutions 0 subtable" equal_slash_equal.liga
Substitution2: "<2,2> Cursive lookup 412 nested-substitutions 0 subtable" equal_slash_equal.liga
Substitution2: "<2,2> Cursive lookup 410 nested-substitutions 0 subtable" LIG
Substitution2: "<2,2> Cursive lookup 408 nested-substitutions 0 subtable" LIG
Substitution2: "<2,2> Cursive lookup 406 nested-substitutions 0 subtable" LIG
Substitution2: "<2,2> Cursive lookup 404 nested-substitutions 0 subtable" LIG
Substitution2: "<2,2> Cursive lookup 402 nested-substitutions 0 subtable" LIG
Substitution2: "<2,2> Cursive lookup 400 nested-substitutions 0 subtable" LIG
Substitution2: "<2,2> Cursive lookup 398 nested-substitutions 0 subtable" LIG
Substitution2: "<2,2> Cursive lookup 396 nested-substitutions 0 subtable" equal_exclam_equal.liga
Substitution2: "<2,2> Cursive lookup 394 nested-substitutions 0 subtable" equal_exclam_equal.liga
Substitution2: "<2,2> Cursive lookup 392 nested-substitutions 0 subtable" LIG
Substitution2: "<2,2> Cursive lookup 390 nested-substitutions 0 subtable" LIG
Substitution2: "<2,2> Cursive lookup 388 nested-substitutions 0 subtable" LIG
Substitution2: "<2,2> Cursive lookup 386 nested-substitutions 0 subtable" LIG
Substitution2: "<2,2> Cursive lookup 384 nested-substitutions 0 subtable" LIG
Substitution2: "<2,2> Cursive lookup 382 nested-substitutions 0 subtable" equal_equal_equal.liga
Substitution2: "<2,2> Cursive lookup 380 nested-substitutions 0 subtable" LIG
Substitution2: "<2,2> Cursive lookup 378 nested-substitutions 0 subtable" equal_colon_equal.liga
Substitution2: "<2,2> Cursive lookup 376 nested-substitutions 0 subtable" equal_colon_equal.liga
Substitution2: "<2,2> Cursive lookup 374 nested-substitutions 0 subtable" colon_colon_equal.liga
Substitution2: "<2,2> Cursive lookup 372 nested-substitutions 0 subtable" colon_colon_equal.liga
Substitution2: "<2,2> Cursive lookup 370 nested-substitutions 0 subtable" colon_colon_equal.liga
Substitution2: "<2,2> Cursive lookup 368 nested-substitutions 0 subtable" colon_colon_equal.liga
Substitution2: "<2,2> Cursive lookup 366 nested-substitutions 0 subtable" colon_colon_equal.liga
Substitution2: "<2,2> Cursive lookup 356 nested-substitutions 0 subtable" LIG
Substitution2: "<2,2> Cursive lookup 354 nested-substitutions 0 subtable" LIG
Substitution2: "<2,2> Cursive lookup 352 nested-substitutions 0 subtable" LIG
Substitution2: "<2,2> Cursive lookup 350 nested-substitutions 0 subtable" bar_bar_equal.liga
Substitution2: "<2,2> Cursive lookup 348 nested-substitutions 0 subtable" bar_bar_equal.liga
Substitution2: "<2,2> Cursive lookup 346 nested-substitutions 0 subtable" bar_bar_equal.liga
Substitution2: "<2,2> Cursive lookup 344 nested-substitutions 0 subtable" bar_bar_equal.liga
Substitution2: "<2,2> Cursive lookup 342 nested-substitutions 0 subtable" bar_bar_equal.liga
Substitution2: "<2,2> Cursive lookup 340 nested-substitutions 0 subtable" bar_bar_equal.liga
Substitution2: "<2,2> Cursive lookup 338 nested-substitutions 0 subtable" bar_bar_equal.liga
Substitution2: "<2,2> Cursive lookup 336 nested-substitutions 0 subtable" bar_bar_equal.liga
Substitution2: "<2,2> Cursive lookup 334 nested-substitutions 0 subtable" bar_bar_equal.liga
Substitution2: "<2,2> Cursive lookup 332 nested-substitutions 0 subtable" bar_bar_equal.liga
Substitution2: "<2,2> Cursive lookup 330 nested-substitutions 0 subtable" bar_bar_equal.liga
Substitution2: "<2,2> Cursive lookup 306 nested-substitutions 0 subtable" LIG
Substitution2: "<2,2> Cursive lookup 304 nested-substitutions 0 subtable" LIG
Substitution2: "<2,2> Cursive lookup 302 nested-substitutions 0 subtable" LIG
Substitution2: "<2,2> Cursive lookup 300 nested-substitutions 0 subtable" LIG
Substitution2: "<2,2> Cursive lookup 298 nested-substitutions 0 subtable" LIG
Substitution2: "<2,2> Cursive lookup 296 nested-substitutions 0 subtable" LIG
Substitution2: "<2,2> Cursive lookup 294 nested-substitutions 0 subtable" LIG
Substitution2: "<2,2> Cursive lookup 292 nested-substitutions 0 subtable" LIG
Substitution2: "Single Substitution lookup 272 subtable" slash_equal.liga
Substitution2: "Single Substitution lookup 269 subtable" question_equal.liga
Substitution2: "Single Substitution lookup 265 subtable" period_equal.liga
Substitution2: "Single Substitution lookup 262 subtable" numbersign_equal.liga
Substitution2: "Single Substitution lookup 260 subtable" less_equal.liga
Substitution2: "Single Substitution lookup 254 subtable" greater_equal.liga
Substitution2: "Single Substitution lookup 252 subtable" exclam_equal.liga
Substitution2: "Single Substitution lookup 251 subtable" LIG
Substitution2: "Single Substitution lookup 250 subtable" equal_equal.liga
Substitution2: "Single Substitution lookup 249 subtable" colon_equal.liga
Substitution2: "Single Substitution lookup 246 subtable" bar_equal.liga
Substitution2: "Single Substitution lookup 244 subtable" asciitilde_equal.liga
Substitution2: "Single Substitution lookup 243 subtable" asciicircum_equal.liga
Substitution2: "Single Substitution lookup 237 subtable" LIG
Substitution2: "Single Substitution lookup 236 subtable" slash_equal_equal.liga
Substitution2: "Single Substitution lookup 229 subtable" less_less_equal.liga
Substitution2: "Single Substitution lookup 224 subtable" LIG
Substitution2: "Single Substitution lookup 223 subtable" LIG
Substitution2: "Single Substitution lookup 222 subtable" less_equal_equal.liga
Substitution2: "Single Substitution lookup 221 subtable" LIG
Substitution2: "Single Substitution lookup 207 subtable" greater_greater_equal.liga
Substitution2: "Single Substitution lookup 206 subtable" LIG
Substitution2: "Single Substitution lookup 205 subtable" exclam_equal_equal.liga
Substitution2: "Single Substitution lookup 204 subtable" LIG
Substitution2: "Single Substitution lookup 203 subtable" equal_slash_equal.liga
Substitution2: "Single Substitution lookup 202 subtable" LIG
Substitution2: "Single Substitution lookup 201 subtable" LIG
Substitution2: "Single Substitution lookup 200 subtable" LIG
Substitution2: "Single Substitution lookup 199 subtable" equal_exclam_equal.liga
Substitution2: "Single Substitution lookup 198 subtable" LIG
Substitution2: "Single Substitution lookup 197 subtable" equal_equal_equal.liga
Substitution2: "Single Substitution lookup 196 subtable" LIG
Substitution2: "Single Substitution lookup 195 subtable" equal_colon_equal.liga
Substitution2: "Single Substitution lookup 194 subtable" colon_colon_equal.liga
Substitution2: "Single Substitution lookup 192 subtable" LIG
Substitution2: "Single Substitution lookup 191 subtable" bar_bar_equal.liga
Substitution2: "Single Substitution lookup 188 subtable" LIG
Substitution2: "'dnom' Denominators lookup 5 subtable" equal.dnom
Substitution2: "'numr' Numerators lookup 4 subtable" equal.numr
Substitution2: "'sups' Superscript lookup 3 subtable" uni207C
AlternateSubs2: "'aalt' Access All Alternates lookup 1 subtable" uni207C equal.numr equal.dnom LIG bar_bar_equal.liga colon_colon_equal.liga equal_colon_equal.liga equal_equal_equal.liga equal_exclam_equal.liga equal_slash_equal.liga exclam_equal_equal.liga greater_greater_equal.liga less_equal_equal.liga less_less_equal.liga slash_equal_equal.liga asciicircum_equal.liga asciitilde_equal.liga bar_equal.liga colon_equal.liga equal_equal.liga exclam_equal.liga greater_equal.liga less_equal.liga numbersign_equal.liga period_equal.liga question_equal.liga slash_equal.liga
EndChar

StartChar: greater
Encoding: 62 62 33
Width: 1260
GlyphClass: 2
Flags: W
LayerCount: 2
Fore
SplineSet
1084 754 m 1,0,-1
 1084 564 l 1,1,-1
 283 63 l 1,2,-1
 179 209 l 1,3,-1
 911 657 l 1,4,-1
 179 1104 l 1,5,-1
 274 1254 l 1,6,-1
 1084 754 l 1,0,-1
EndSplineSet
Substitution2: "<2,2> Cursive lookup 950 nested-substitutions 0 subtable" slash_greater.liga
Substitution2: "<2,2> Cursive lookup 948 nested-substitutions 0 subtable" slash_greater.liga
Substitution2: "<2,2> Cursive lookup 946 nested-substitutions 0 subtable" slash_greater.liga
Substitution2: "<2,2> Cursive lookup 944 nested-substitutions 0 subtable" slash_greater.liga
Substitution2: "<2,2> Cursive lookup 942 nested-substitutions 0 subtable" slash_greater.liga
Substitution2: "<2,2> Cursive lookup 940 nested-substitutions 0 subtable" slash_greater.liga
Substitution2: "<2,2> Cursive lookup 938 nested-substitutions 0 subtable" slash_greater.liga
Substitution2: "<2,2> Cursive lookup 914 nested-substitutions 0 subtable" plus_greater.liga
Substitution2: "<2,2> Cursive lookup 912 nested-substitutions 0 subtable" plus_greater.liga
Substitution2: "<2,2> Cursive lookup 910 nested-substitutions 0 subtable" plus_greater.liga
Substitution2: "<2,2> Cursive lookup 908 nested-substitutions 0 subtable" plus_greater.liga
Substitution2: "<2,2> Cursive lookup 906 nested-substitutions 0 subtable" plus_greater.liga
Substitution2: "<2,2> Cursive lookup 842 nested-substitutions 0 subtable" less_greater.liga
Substitution2: "<2,2> Cursive lookup 840 nested-substitutions 0 subtable" less_greater.liga
Substitution2: "<2,2> Cursive lookup 838 nested-substitutions 0 subtable" less_greater.liga
Substitution2: "<2,2> Cursive lookup 836 nested-substitutions 0 subtable" less_greater.liga
Substitution2: "<2,2> Cursive lookup 834 nested-substitutions 0 subtable" less_greater.liga
Substitution2: "<2,2> Cursive lookup 832 nested-substitutions 0 subtable" less_greater.liga
Substitution2: "<2,2> Cursive lookup 830 nested-substitutions 0 subtable" less_greater.liga
Substitution2: "<2,2> Cursive lookup 828 nested-substitutions 0 subtable" less_greater.liga
Substitution2: "<2,2> Cursive lookup 826 nested-substitutions 0 subtable" less_greater.liga
Substitution2: "<2,2> Cursive lookup 824 nested-substitutions 0 subtable" less_greater.liga
Substitution2: "<2,2> Cursive lookup 822 nested-substitutions 0 subtable" less_greater.liga
Substitution2: "<2,2> Cursive lookup 820 nested-substitutions 0 subtable" less_greater.liga
Substitution2: "<2,2> Cursive lookup 818 nested-substitutions 0 subtable" less_greater.liga
Substitution2: "<2,2> Cursive lookup 816 nested-substitutions 0 subtable" less_greater.liga
Substitution2: "<2,2> Cursive lookup 814 nested-substitutions 0 subtable" less_greater.liga
Substitution2: "<2,2> Cursive lookup 802 nested-substitutions 0 subtable" hyphen_greater.liga
Substitution2: "<2,2> Cursive lookup 800 nested-substitutions 0 subtable" hyphen_greater.liga
Substitution2: "<2,2> Cursive lookup 798 nested-substitutions 0 subtable" hyphen_greater.liga
Substitution2: "<2,2> Cursive lookup 796 nested-substitutions 0 subtable" hyphen_greater.liga
Substitution2: "<2,2> Cursive lookup 794 nested-substitutions 0 subtable" hyphen_greater.liga
Substitution2: "<2,2> Cursive lookup 792 nested-substitutions 0 subtable" LIG
Substitution2: "<2,2> Cursive lookup 790 nested-substitutions 0 subtable" LIG
Substitution2: "<2,2> Cursive lookup 788 nested-substitutions 0 subtable" LIG
Substitution2: "<2,2> Cursive lookup 786 nested-substitutions 0 subtable" LIG
Substitution2: "<2,2> Cursive lookup 784 nested-substitutions 0 subtable" greater_greater.liga
Substitution2: "<2,2> Cursive lookup 782 nested-substitutions 0 subtable" LIG
Substitution2: "<2,2> Cursive lookup 780 nested-substitutions 0 subtable" LIG
Substitution2: "<2,2> Cursive lookup 778 nested-substitutions 0 subtable" LIG
Substitution2: "<2,2> Cursive lookup 776 nested-substitutions 0 subtable" LIG
Substitution2: "<2,2> Cursive in Latin lookup 774 nested-substitutions 0 subtable" LIG
Substitution2: "<2,2> Cursive in Latin lookup 772 nested-substitutions 0 subtable" LIG
Substitution2: "<2,2> Cursive lookup 770 nested-substitutions 0 subtable" LIG
Substitution2: "<2,2> Cursive lookup 762 nested-substitutions 0 subtable" equal_greater.liga
Substitution2: "<2,2> Cursive lookup 760 nested-substitutions 0 subtable" equal_greater.liga
Substitution2: "<2,2> Cursive lookup 758 nested-substitutions 0 subtable" equal_greater.liga
Substitution2: "<2,2> Cursive lookup 756 nested-substitutions 0 subtable" dollar_greater.liga
Substitution2: "<2,2> Cursive lookup 754 nested-substitutions 0 subtable" dollar_greater.liga
Substitution2: "<2,2> Cursive lookup 752 nested-substitutions 0 subtable" dollar_greater.liga
Substitution2: "<2,2> Cursive lookup 750 nested-substitutions 0 subtable" colon_greater.liga
Substitution2: "<2,2> Cursive lookup 748 nested-substitutions 0 subtable" colon_greater.liga
Substitution2: "<2,2> Cursive lookup 746 nested-substitutions 0 subtable" colon_greater.liga
Substitution2: "<2,2> Cursive lookup 744 nested-substitutions 0 subtable" colon_greater.liga
Substitution2: "<2,2> Cursive lookup 742 nested-substitutions 0 subtable" colon_greater.liga
Substitution2: "<2,2> Cursive lookup 740 nested-substitutions 0 subtable" colon_greater.liga
Substitution2: "<2,2> Cursive lookup 738 nested-substitutions 0 subtable" colon_greater.liga
Substitution2: "<2,2> Cursive lookup 722 nested-substitutions 0 subtable" bar_greater.liga
Substitution2: "<2,2> Cursive lookup 720 nested-substitutions 0 subtable" bar_greater.liga
Substitution2: "<2,2> Cursive lookup 718 nested-substitutions 0 subtable" bar_greater.liga
Substitution2: "<2,2> Cursive lookup 716 nested-substitutions 0 subtable" bar_greater.liga
Substitution2: "<2,2> Cursive lookup 714 nested-substitutions 0 subtable" bar_greater.liga
Substitution2: "<2,2> Cursive lookup 712 nested-substitutions 0 subtable" bar_greater.liga
Substitution2: "<2,2> Cursive lookup 710 nested-substitutions 0 subtable" bar_greater.liga
Substitution2: "<2,2> Cursive lookup 708 nested-substitutions 0 subtable" bar_greater.liga
Substitution2: "<2,2> Cursive lookup 706 nested-substitutions 0 subtable" bar_greater.liga
Substitution2: "<2,2> Cursive lookup 704 nested-substitutions 0 subtable" bar_greater.liga
Substitution2: "<2,2> Cursive lookup 702 nested-substitutions 0 subtable" bar_greater.liga
Substitution2: "<2,2> Cursive lookup 700 nested-substitutions 0 subtable" asterisk_greater.liga
Substitution2: "<2,2> Cursive lookup 698 nested-substitutions 0 subtable" asterisk_greater.liga
Substitution2: "<2,2> Cursive lookup 696 nested-substitutions 0 subtable" asterisk_greater.liga
Substitution2: "<2,2> Cursive lookup 694 nested-substitutions 0 subtable" asterisk_greater.liga
Substitution2: "<2,2> Cursive lookup 692 nested-substitutions 0 subtable" asterisk_greater.liga
Substitution2: "<2,2> Cursive lookup 690 nested-substitutions 0 subtable" asterisk_greater.liga
Substitution2: "<2,2> Cursive lookup 688 nested-substitutions 0 subtable" asciitilde_greater.liga
Substitution2: "<2,2> Cursive lookup 686 nested-substitutions 0 subtable" asciitilde_greater.liga
Substitution2: "<2,2> Cursive lookup 684 nested-substitutions 0 subtable" asciitilde_greater.liga
Substitution2: "<2,2> Cursive lookup 682 nested-substitutions 0 subtable" asciitilde_greater.liga
Substitution2: "<2,2> Cursive lookup 680 nested-substitutions 0 subtable" asciitilde_greater.liga
Substitution2: "<2,2> Cursive lookup 678 nested-substitutions 0 subtable" asciitilde_greater.liga
Substitution2: "<2,2> Cursive lookup 676 nested-substitutions 0 subtable" asciitilde_greater.liga
Substitution2: "<2,2> Cursive lookup 674 nested-substitutions 0 subtable" asciitilde_greater.liga
Substitution2: "<2,2> Cursive lookup 672 nested-substitutions 0 subtable" asciitilde_greater.liga
Substitution2: "<2,2> Cursive lookup 670 nested-substitutions 0 subtable" asciitilde_greater.liga
Substitution2: "<2,2> Cursive lookup 598 nested-substitutions 0 subtable" less_slash_greater.liga
Substitution2: "<2,2> Cursive lookup 596 nested-substitutions 0 subtable" less_slash_greater.liga
Substitution2: "<2,2> Cursive lookup 594 nested-substitutions 0 subtable" less_slash_greater.liga
Substitution2: "<2,2> Cursive lookup 592 nested-substitutions 0 subtable" less_slash_greater.liga
Substitution2: "<2,2> Cursive lookup 590 nested-substitutions 0 subtable" less_plus_greater.liga
Substitution2: "<2,2> Cursive lookup 588 nested-substitutions 0 subtable" less_plus_greater.liga
Substitution2: "<2,2> Cursive lookup 586 nested-substitutions 0 subtable" less_plus_greater.liga
Substitution2: "<2,2> Cursive lookup 584 nested-substitutions 0 subtable" less_plus_greater.liga
Substitution2: "<2,2> Cursive lookup 582 nested-substitutions 0 subtable" less_plus_greater.liga
Substitution2: "<2,2> Cursive lookup 554 nested-substitutions 0 subtable" less_hyphen_greater.liga
Substitution2: "<2,2> Cursive lookup 552 nested-substitutions 0 subtable" less_hyphen_greater.liga
Substitution2: "<2,2> Cursive lookup 550 nested-substitutions 0 subtable" less_hyphen_greater.liga
Substitution2: "<2,2> Cursive lookup 548 nested-substitutions 0 subtable" less_hyphen_greater.liga
Substitution2: "<2,2> Cursive lookup 546 nested-substitutions 0 subtable" less_hyphen_greater.liga
Substitution2: "<2,2> Cursive lookup 544 nested-substitutions 0 subtable" less_hyphen_greater.liga
Substitution2: "<2,2> Cursive lookup 542 nested-substitutions 0 subtable" less_hyphen_greater.liga
Substitution2: "<2,2> Cursive lookup 536 nested-substitutions 0 subtable" less_equal_greater.liga
Substitution2: "<2,2> Cursive lookup 534 nested-substitutions 0 subtable" less_equal_greater.liga
Substitution2: "<2,2> Cursive lookup 532 nested-substitutions 0 subtable" less_equal_greater.liga
Substitution2: "<2,2> Cursive lookup 530 nested-substitutions 0 subtable" less_equal_greater.liga
Substitution2: "<2,2> Cursive lookup 528 nested-substitutions 0 subtable" less_equal_greater.liga
Substitution2: "<2,2> Cursive lookup 524 nested-substitutions 0 subtable" less_dollar_greater.liga
Substitution2: "<2,2> Cursive lookup 522 nested-substitutions 0 subtable" less_dollar_greater.liga
Substitution2: "<2,2> Cursive lookup 520 nested-substitutions 0 subtable" less_dollar_greater.liga
Substitution2: "<2,2> Cursive lookup 518 nested-substitutions 0 subtable" less_dollar_greater.liga
Substitution2: "<2,2> Cursive lookup 516 nested-substitutions 0 subtable" less_dollar_greater.liga
Substitution2: "<2,2> Cursive lookup 514 nested-substitutions 0 subtable" less_dollar_greater.liga
Substitution2: "<2,2> Cursive lookup 512 nested-substitutions 0 subtable" less_bar_greater.liga
Substitution2: "<2,2> Cursive lookup 510 nested-substitutions 0 subtable" less_bar_greater.liga
Substitution2: "<2,2> Cursive lookup 508 nested-substitutions 0 subtable" less_bar_greater.liga
Substitution2: "<2,2> Cursive lookup 506 nested-substitutions 0 subtable" less_bar_greater.liga
Substitution2: "<2,2> Cursive lookup 504 nested-substitutions 0 subtable" less_bar_greater.liga
Substitution2: "<2,2> Cursive lookup 502 nested-substitutions 0 subtable" less_asterisk_greater.liga
Substitution2: "<2,2> Cursive lookup 500 nested-substitutions 0 subtable" less_asterisk_greater.liga
Substitution2: "<2,2> Cursive lookup 498 nested-substitutions 0 subtable" less_asterisk_greater.liga
Substitution2: "<2,2> Cursive lookup 496 nested-substitutions 0 subtable" less_asterisk_greater.liga
Substitution2: "<2,2> Cursive lookup 494 nested-substitutions 0 subtable" less_asciitilde_greater.liga
Substitution2: "<2,2> Cursive lookup 492 nested-substitutions 0 subtable" less_asciitilde_greater.liga
Substitution2: "<2,2> Cursive lookup 490 nested-substitutions 0 subtable" less_asciitilde_greater.liga
Substitution2: "<2,2> Cursive lookup 488 nested-substitutions 0 subtable" less_asciitilde_greater.liga
Substitution2: "<2,2> Cursive lookup 486 nested-substitutions 0 subtable" less_asciitilde_greater.liga
Substitution2: "<2,2> Cursive lookup 470 nested-substitutions 0 subtable" hyphen_hyphen_greater.liga
Substitution2: "<2,2> Cursive lookup 468 nested-substitutions 0 subtable" hyphen_hyphen_greater.liga
Substitution2: "<2,2> Cursive lookup 466 nested-substitutions 0 subtable" hyphen_hyphen_greater.liga
Substitution2: "<2,2> Cursive lookup 464 nested-substitutions 0 subtable" LIG
Substitution2: "<2,2> Cursive lookup 462 nested-substitutions 0 subtable" LIG
Substitution2: "<2,2> Cursive lookup 460 nested-substitutions 0 subtable" hyphen_greater_greater.liga
Substitution2: "<2,2> Cursive lookup 458 nested-substitutions 0 subtable" LIG
Substitution2: "<2,2> Cursive lookup 456 nested-substitutions 0 subtable" greater_hyphen_greater.liga
Substitution2: "<2,2> Cursive lookup 454 nested-substitutions 0 subtable" greater_hyphen_greater.liga
Substitution2: "<2,2> Cursive lookup 452 nested-substitutions 0 subtable" LIG
Substitution2: "<2,2> Cursive lookup 450 nested-substitutions 0 subtable" LIG
Substitution2: "<2,2> Cursive lookup 448 nested-substitutions 0 subtable" LIG
Substitution2: "<2,2> Cursive lookup 446 nested-substitutions 0 subtable" LIG
Substitution2: "<2,2> Cursive lookup 444 nested-substitutions 0 subtable" LIG
Substitution2: "<2,2> Cursive lookup 442 nested-substitutions 0 subtable" greater_greater_greater.liga
Substitution2: "<2,2> Cursive lookup 440 nested-substitutions 0 subtable" LIG
Substitution2: "<2,2> Cursive lookup 438 nested-substitutions 0 subtable" LIG
Substitution2: "<2,2> Cursive lookup 436 nested-substitutions 0 subtable" LIG
Substitution2: "<2,2> Cursive lookup 434 nested-substitutions 0 subtable" LIG
Substitution2: "<2,2> Cursive lookup 432 nested-substitutions 0 subtable" greater_equal_greater.liga
Substitution2: "<2,2> Cursive lookup 430 nested-substitutions 0 subtable" greater_equal_greater.liga
Substitution2: "<2,2> Cursive lookup 428 nested-substitutions 0 subtable" greater_equal_greater.liga
Substitution2: "<2,2> Cursive lookup 426 nested-substitutions 0 subtable" greater_equal_greater.liga
Substitution2: "<2,2> Cursive lookup 424 nested-substitutions 0 subtable" greater_equal_greater.liga
Substitution2: "<2,2> Cursive lookup 422 nested-substitutions 0 subtable" greater_equal_greater.liga
Substitution2: "<2,2> Cursive lookup 420 nested-substitutions 0 subtable" greater_equal_greater.liga
Substitution2: "<2,2> Cursive lookup 406 nested-substitutions 0 subtable" LIG
Substitution2: "<2,2> Cursive lookup 404 nested-substitutions 0 subtable" LIG
Substitution2: "<2,2> Cursive lookup 402 nested-substitutions 0 subtable" LIG
Substitution2: "<2,2> Cursive lookup 400 nested-substitutions 0 subtable" equal_greater_greater.liga
Substitution2: "<2,2> Cursive lookup 398 nested-substitutions 0 subtable" equal_greater_greater.liga
Substitution2: "<2,2> Cursive lookup 392 nested-substitutions 0 subtable" equal_equal_greater.liga
Substitution2: "<2,2> Cursive lookup 390 nested-substitutions 0 subtable" equal_equal_greater.liga
Substitution2: "<2,2> Cursive lookup 388 nested-substitutions 0 subtable" equal_equal_greater.liga
Substitution2: "<2,2> Cursive lookup 386 nested-substitutions 0 subtable" equal_equal_greater.liga
Substitution2: "<2,2> Cursive lookup 384 nested-substitutions 0 subtable" equal_equal_greater.liga
Substitution2: "<2,2> Cursive lookup 364 nested-substitutions 0 subtable" bar_hyphen_greater.liga
Substitution2: "<2,2> Cursive lookup 362 nested-substitutions 0 subtable" bar_hyphen_greater.liga
Substitution2: "<2,2> Cursive lookup 360 nested-substitutions 0 subtable" bar_hyphen_greater.liga
Substitution2: "<2,2> Cursive lookup 358 nested-substitutions 0 subtable" bar_hyphen_greater.liga
Substitution2: "<2,2> Cursive lookup 356 nested-substitutions 0 subtable" bar_equal_greater.liga
Substitution2: "<2,2> Cursive lookup 354 nested-substitutions 0 subtable" bar_equal_greater.liga
Substitution2: "<2,2> Cursive lookup 352 nested-substitutions 0 subtable" bar_equal_greater.liga
Substitution2: "<2,2> Cursive lookup 350 nested-substitutions 0 subtable" bar_bar_greater.liga
Substitution2: "<2,2> Cursive lookup 348 nested-substitutions 0 subtable" bar_bar_greater.liga
Substitution2: "<2,2> Cursive lookup 346 nested-substitutions 0 subtable" bar_bar_greater.liga
Substitution2: "<2,2> Cursive lookup 344 nested-substitutions 0 subtable" bar_bar_greater.liga
Substitution2: "<2,2> Cursive lookup 342 nested-substitutions 0 subtable" bar_bar_greater.liga
Substitution2: "<2,2> Cursive lookup 340 nested-substitutions 0 subtable" bar_bar_greater.liga
Substitution2: "<2,2> Cursive lookup 338 nested-substitutions 0 subtable" bar_bar_greater.liga
Substitution2: "<2,2> Cursive lookup 336 nested-substitutions 0 subtable" bar_bar_greater.liga
Substitution2: "<2,2> Cursive lookup 334 nested-substitutions 0 subtable" bar_bar_greater.liga
Substitution2: "<2,2> Cursive lookup 332 nested-substitutions 0 subtable" bar_bar_greater.liga
Substitution2: "<2,2> Cursive lookup 330 nested-substitutions 0 subtable" bar_bar_greater.liga
Substitution2: "<2,2> Cursive lookup 328 nested-substitutions 0 subtable" asciitilde_asciitilde_greater.liga
Substitution2: "<2,2> Cursive lookup 326 nested-substitutions 0 subtable" asciitilde_asciitilde_greater.liga
Substitution2: "<2,2> Cursive lookup 324 nested-substitutions 0 subtable" asciitilde_asciitilde_greater.liga
Substitution2: "<2,2> Cursive lookup 322 nested-substitutions 0 subtable" asciitilde_asciitilde_greater.liga
Substitution2: "<2,2> Cursive lookup 320 nested-substitutions 0 subtable" asciitilde_asciitilde_greater.liga
Substitution2: "<2,2> Cursive lookup 318 nested-substitutions 0 subtable" asciitilde_asciitilde_greater.liga
Substitution2: "<2,2> Cursive lookup 316 nested-substitutions 0 subtable" asciitilde_asciitilde_greater.liga
Substitution2: "<2,2> Cursive lookup 306 nested-substitutions 0 subtable" less_equal_equal_greater.liga
Substitution2: "<2,2> Cursive lookup 304 nested-substitutions 0 subtable" less_equal_equal_greater.liga
Substitution2: "<2,2> Cursive lookup 302 nested-substitutions 0 subtable" less_equal_equal_greater.liga
Substitution2: "<2,2> Cursive lookup 300 nested-substitutions 0 subtable" less_equal_equal_greater.liga
Substitution2: "<2,2> Cursive lookup 298 nested-substitutions 0 subtable" less_equal_equal_greater.liga
Substitution2: "<2,2> Cursive lookup 296 nested-substitutions 0 subtable" less_equal_equal_greater.liga
Substitution2: "<2,2> Cursive lookup 294 nested-substitutions 0 subtable" less_equal_equal_greater.liga
Substitution2: "<2,2> Cursive lookup 292 nested-substitutions 0 subtable" less_equal_equal_greater.liga
Substitution2: "<2,2> Cursive lookup 288 nested-substitutions 0 subtable" bar_bar_bar_greater.liga
Substitution2: "<2,2> Cursive lookup 286 nested-substitutions 0 subtable" bar_bar_bar_greater.liga
Substitution2: "<2,2> Cursive lookup 284 nested-substitutions 0 subtable" bar_bar_bar_greater.liga
Substitution2: "<2,2> Cursive lookup 282 nested-substitutions 0 subtable" bar_bar_bar_greater.liga
Substitution2: "Single Substitution lookup 272 subtable" slash_greater.liga
Substitution2: "Single Substitution lookup 267 subtable" plus_greater.liga
Substitution2: "Single Substitution lookup 260 subtable" less_greater.liga
Substitution2: "Single Substitution lookup 257 subtable" hyphen_greater.liga
Substitution2: "Single Substitution lookup 256 subtable" LIG
Substitution2: "Single Substitution lookup 255 subtable" greater_greater.liga
Substitution2: "Single Substitution lookup 254 subtable" LIG
Substitution2: "Single Substitution lookup 251 subtable" equal_greater.liga
Substitution2: "Single Substitution lookup 250 subtable" dollar_greater.liga
Substitution2: "Single Substitution lookup 249 subtable" colon_greater.liga
Substitution2: "Single Substitution lookup 246 subtable" bar_greater.liga
Substitution2: "Single Substitution lookup 245 subtable" asterisk_greater.liga
Substitution2: "Single Substitution lookup 244 subtable" asciitilde_greater.liga
Substitution2: "Single Substitution lookup 232 subtable" less_slash_greater.liga
Substitution2: "Single Substitution lookup 231 subtable" less_plus_greater.liga
Substitution2: "Single Substitution lookup 225 subtable" less_hyphen_greater.liga
Substitution2: "Single Substitution lookup 223 subtable" less_equal_greater.liga
Substitution2: "Single Substitution lookup 221 subtable" less_dollar_greater.liga
Substitution2: "Single Substitution lookup 220 subtable" less_bar_greater.liga
Substitution2: "Single Substitution lookup 219 subtable" less_asterisk_greater.liga
Substitution2: "Single Substitution lookup 218 subtable" less_asciitilde_greater.liga
Substitution2: "Single Substitution lookup 214 subtable" hyphen_hyphen_greater.liga
Substitution2: "Single Substitution lookup 213 subtable" LIG
Substitution2: "Single Substitution lookup 212 subtable" hyphen_greater_greater.liga
Substitution2: "Single Substitution lookup 211 subtable" LIG
Substitution2: "Single Substitution lookup 210 subtable" greater_hyphen_greater.liga
Substitution2: "Single Substitution lookup 209 subtable" LIG
Substitution2: "Single Substitution lookup 208 subtable" greater_greater_greater.liga
Substitution2: "Single Substitution lookup 207 subtable" LIG
Substitution2: "Single Substitution lookup 206 subtable" greater_equal_greater.liga
Substitution2: "Single Substitution lookup 201 subtable" LIG
Substitution2: "Single Substitution lookup 200 subtable" equal_greater_greater.liga
Substitution2: "Single Substitution lookup 198 subtable" equal_equal_greater.liga
Substitution2: "Single Substitution lookup 193 subtable" bar_hyphen_greater.liga
Substitution2: "Single Substitution lookup 192 subtable" bar_equal_greater.liga
Substitution2: "Single Substitution lookup 191 subtable" bar_bar_greater.liga
Substitution2: "Single Substitution lookup 190 subtable" asciitilde_asciitilde_greater.liga
Substitution2: "Single Substitution lookup 188 subtable" less_equal_equal_greater.liga
Substitution2: "Single Substitution lookup 186 subtable" bar_bar_bar_greater.liga
AlternateSubs2: "'aalt' Access All Alternates lookup 1 subtable" bar_bar_bar_greater.liga less_equal_equal_greater.liga asciitilde_asciitilde_greater.liga bar_bar_greater.liga bar_equal_greater.liga bar_hyphen_greater.liga equal_equal_greater.liga equal_greater_greater.liga LIG greater_equal_greater.liga greater_greater_greater.liga greater_hyphen_greater.liga hyphen_greater_greater.liga hyphen_hyphen_greater.liga less_asciitilde_greater.liga less_asterisk_greater.liga less_bar_greater.liga less_dollar_greater.liga less_equal_greater.liga less_hyphen_greater.liga less_plus_greater.liga less_slash_greater.liga asciitilde_greater.liga asterisk_greater.liga bar_greater.liga colon_greater.liga dollar_greater.liga equal_greater.liga greater_greater.liga hyphen_greater.liga less_greater.liga plus_greater.liga slash_greater.liga
EndChar

StartChar: question
Encoding: 63 63 34
Width: 1260
GlyphClass: 2
Flags: W
LayerCount: 2
Fore
SplineSet
853.5 1428 m 128,-1,1
 950 1382 950 1382 1001.5 1306.5 c 128,-1,2
 1053 1231 1053 1231 1053 1145 c 0,3,4
 1053 1063 1053 1063 1025.5 1004.5 c 128,-1,5
 998 946 998 946 957.5 908 c 128,-1,6
 917 870 917 870 851 821 c 0,7,8
 791 776 791 776 755.5 744 c 128,-1,9
 720 712 720 712 696.5 665 c 128,-1,10
 673 618 673 618 673 555 c 2,11,-1
 673 486 l 1,12,-1
 475 486 l 1,13,-1
 475 565 l 2,14,15
 475 654 475 654 505.5 718 c 128,-1,16
 536 782 536 782 578.5 823.5 c 128,-1,17
 621 865 621 865 689 917 c 0,18,19
 742 956 742 956 772.5 984 c 128,-1,20
 803 1012 803 1012 823 1048.5 c 128,-1,21
 843 1085 843 1085 843 1131 c 0,22,23
 843 1214 843 1214 777.5 1261 c 128,-1,24
 712 1308 712 1308 608 1308 c 0,25,26
 530 1308 530 1308 453.5 1270.5 c 128,-1,27
 377 1233 377 1233 316 1158 c 1,28,-1
 176 1262 l 1,29,30
 356 1473 356 1473 628 1474 c 0,31,0
 757 1474 757 1474 853.5 1428 c 128,-1,1
655 251 m 128,-1,33
 689 231 689 231 709 197.5 c 128,-1,34
 729 164 729 164 729 124 c 0,35,36
 729 83 729 83 709 48.5 c 128,-1,37
 689 14 689 14 655 -6 c 128,-1,38
 621 -26 621 -26 579 -26 c 0,39,40
 538 -26 538 -26 504.5 -6 c 128,-1,41
 471 14 471 14 451.5 48.5 c 128,-1,42
 432 83 432 83 432 124 c 0,43,44
 432 164 432 164 451.5 197.5 c 128,-1,45
 471 231 471 231 504.5 251 c 128,-1,46
 538 271 538 271 579 271 c 0,47,32
 621 271 621 271 655 251 c 128,-1,33
EndSplineSet
Substitution2: "<2,2> Cursive lookup 936 nested-substitutions 0 subtable" LIG
Substitution2: "<2,2> Cursive lookup 934 nested-substitutions 0 subtable" LIG
Substitution2: "<2,2> Cursive lookup 932 nested-substitutions 0 subtable" question_question.liga
Substitution2: "<2,2> Cursive lookup 930 nested-substitutions 0 subtable" LIG
Substitution2: "<2,2> Cursive lookup 928 nested-substitutions 0 subtable" LIG
Substitution2: "<2,2> Cursive lookup 926 nested-substitutions 0 subtable" LIG
Substitution2: "<2,2> Cursive lookup 924 nested-substitutions 0 subtable" LIG
Substitution2: "<2,2> Cursive lookup 922 nested-substitutions 0 subtable" LIG
Substitution2: "<2,2> Cursive lookup 920 nested-substitutions 0 subtable" LIG
Substitution2: "<2,2> Cursive lookup 918 nested-substitutions 0 subtable" LIG
Substitution2: "<2,2> Cursive lookup 914 nested-substitutions 0 subtable" period_question.liga
Substitution2: "<2,2> Cursive lookup 912 nested-substitutions 0 subtable" period_question.liga
Substitution2: "<2,2> Cursive lookup 910 nested-substitutions 0 subtable" period_question.liga
Substitution2: "<2,2> Cursive lookup 908 nested-substitutions 0 subtable" period_question.liga
Substitution2: "<2,2> Cursive lookup 906 nested-substitutions 0 subtable" period_question.liga
Substitution2: "<2,2> Cursive lookup 892 nested-substitutions 0 subtable" numbersign_question.liga
Substitution2: "<2,2> Cursive lookup 890 nested-substitutions 0 subtable" numbersign_question.liga
Substitution2: "<2,2> Cursive lookup 888 nested-substitutions 0 subtable" numbersign_question.liga
Substitution2: "<2,2> Cursive lookup 886 nested-substitutions 0 subtable" numbersign_question.liga
Substitution2: "<2,2> Cursive lookup 884 nested-substitutions 0 subtable" numbersign_question.liga
Substitution2: "<2,2> Cursive lookup 882 nested-substitutions 0 subtable" numbersign_question.liga
Substitution2: "<2,2> Cursive lookup 880 nested-substitutions 0 subtable" numbersign_question.liga
Substitution2: "<2,2> Cursive lookup 878 nested-substitutions 0 subtable" numbersign_question.liga
Substitution2: "Single Substitution lookup 271 subtable" LIG
Substitution2: "Single Substitution lookup 270 subtable" question_question.liga
Substitution2: "Single Substitution lookup 269 subtable" LIG
Substitution2: "Single Substitution lookup 267 subtable" period_question.liga
Substitution2: "Single Substitution lookup 264 subtable" numbersign_question.liga
AlternateSubs2: "'aalt' Access All Alternates lookup 1 subtable" numbersign_question.liga period_question.liga LIG question_question.liga
EndChar

StartChar: at
Encoding: 64 64 35
Width: 1260
GlyphClass: 2
Flags: W
LayerCount: 2
Fore
SplineSet
990.5 1354.5 m 128,-1,1
 1131 1235 1131 1235 1182.5 1044.5 c 128,-1,2
 1234 854 1234 854 1234 602 c 0,3,4
 1234 321 1234 321 1208.5 151 c 128,-1,5
 1183 -19 1183 -19 1115 -105 c 128,-1,6
 1047 -191 1047 -191 922 -191 c 0,7,8
 841 -191 841 -191 785.5 -143 c 128,-1,9
 730 -95 730 -95 702.5 -25.5 c 128,-1,10
 675 44 675 44 674 106 c 1,11,-1
 666 106 l 1,12,13
 630 19 630 19 561 -39 c 128,-1,14
 492 -97 492 -97 378 -97 c 0,15,16
 212 -97 212 -97 134.5 33 c 128,-1,17
 57 163 57 163 57 384 c 0,18,19
 57 653 57 653 165 791 c 128,-1,20
 273 929 273 929 475 929 c 0,21,22
 554 929 554 929 625 911.5 c 128,-1,23
 696 894 696 894 780 849 c 1,24,-1
 780 227 l 2,25,26
 780 77 780 77 816 19 c 128,-1,27
 852 -39 852 -39 918 -39 c 0,28,29
 976 -39 976 -39 1002.5 37.5 c 128,-1,30
 1029 114 1029 114 1035.5 238.5 c 128,-1,31
 1042 363 1042 363 1042 597 c 0,32,33
 1042 824 1042 824 1006.5 978 c 128,-1,34
 971 1132 971 1132 873.5 1222 c 128,-1,35
 776 1312 776 1312 595 1312 c 0,36,37
 477 1312 477 1312 361 1269 c 128,-1,38
 245 1226 245 1226 122 1119 c 1,39,-1
 16 1241 l 1,40,41
 282 1473 282 1473 597 1474 c 0,42,0
 850 1474 850 1474 990.5 1354.5 c 128,-1,1
342.5 743 m 128,-1,44
 292 699 292 699 270.5 612 c 128,-1,45
 249 525 249 525 249 384 c 0,46,47
 249 220 249 220 284.5 134 c 128,-1,48
 320 48 320 48 405 48 c 0,49,50
 468 48 468 48 508.5 77 c 128,-1,51
 549 106 549 106 569 143 c 128,-1,52
 589 180 589 180 606 227 c 1,53,-1
 606 757 l 1,54,55
 576 773 576 773 546.5 780 c 128,-1,56
 517 787 517 787 481 787 c 0,57,43
 393 787 393 787 342.5 743 c 128,-1,44
EndSplineSet
Substitution2: "<2,2> Cursive lookup 688 nested-substitutions 0 subtable" asciitilde_at.liga
Substitution2: "<2,2> Cursive lookup 686 nested-substitutions 0 subtable" asciitilde_at.liga
Substitution2: "<2,2> Cursive lookup 684 nested-substitutions 0 subtable" asciitilde_at.liga
Substitution2: "<2,2> Cursive lookup 682 nested-substitutions 0 subtable" asciitilde_at.liga
Substitution2: "<2,2> Cursive lookup 680 nested-substitutions 0 subtable" asciitilde_at.liga
Substitution2: "<2,2> Cursive lookup 678 nested-substitutions 0 subtable" asciitilde_at.liga
Substitution2: "<2,2> Cursive lookup 676 nested-substitutions 0 subtable" asciitilde_at.liga
Substitution2: "<2,2> Cursive lookup 674 nested-substitutions 0 subtable" asciitilde_at.liga
Substitution2: "<2,2> Cursive lookup 672 nested-substitutions 0 subtable" asciitilde_at.liga
Substitution2: "<2,2> Cursive lookup 670 nested-substitutions 0 subtable" asciitilde_at.liga
Substitution2: "Single Substitution lookup 244 subtable" asciitilde_at.liga
Substitution2: "'ss05' Style Set 5 lookup 178 subtable" at.ss06
Substitution2: "'aalt' Access All Alternates lookup 0 subtable" asciitilde_at.liga
EndChar

StartChar: A
Encoding: 65 65 36
Width: 1260
GlyphClass: 2
Flags: W
AnchorPoint: "Anchor-7" 630 1447 basechar 0
AnchorPoint: "Anchor-6" 626 0 basechar 0
LayerCount: 2
Fore
SplineSet
351 360 m 1,0,-1
 242 0 l 1,1,-1
 33 0 l 1,2,-1
 499 1447 l 1,3,-1
 761 1447 l 1,4,-1
 1229 0 l 1,5,-1
 1008 0 l 1,6,-1
 899 360 l 1,7,-1
 351 360 l 1,0,-1
851 527 m 1,8,-1
 626 1279 l 1,9,-1
 399 527 l 1,10,-1
 851 527 l 1,8,-1
EndSplineSet
Substitution2: "<11,2> Diagonal Fractions lookup 280 nested-substitutions 0 subtable" ordfeminine
Substitution2: "<11,2> Diagonal Fractions lookup 278 nested-substitutions 0 subtable" ordfeminine
Substitution2: "Single Substitution lookup 184 subtable" ordfeminine
Substitution2: "'aalt' Access All Alternates lookup 0 subtable" ordfeminine
EndChar

StartChar: B
Encoding: 66 66 37
Width: 1260
GlyphClass: 2
Flags: W
AnchorPoint: "Anchor-7" 630 1447 basechar 0
AnchorPoint: "Anchor-6" 630 0 basechar 0
LayerCount: 2
Fore
SplineSet
1066.5 172 m 128,-1,1
 989 79 989 79 865 39.5 c 128,-1,2
 741 0 741 0 592 0 c 2,3,-1
 189 0 l 1,4,-1
 189 1447 l 1,5,-1
 562 1447 l 2,6,7
 787 1447 787 1447 934 1362.5 c 128,-1,8
 1081 1278 1081 1278 1081 1082 c 0,9,10
 1081 953 1081 953 1004 873 c 128,-1,11
 927 793 927 793 813 767 c 1,12,13
 956 743 956 743 1050 661.5 c 128,-1,14
 1144 580 1144 580 1144 415 c 0,15,0
 1144 265 1144 265 1066.5 172 c 128,-1,1
798.5 1234 m 128,-1,17
 728 1286 728 1286 594 1286 c 2,18,-1
 397 1286 l 1,19,-1
 397 838 l 1,20,-1
 611 838 l 2,21,22
 739 838 739 838 804 893.5 c 128,-1,23
 869 949 869 949 869 1068 c 0,24,16
 869 1182 869 1182 798.5 1234 c 128,-1,17
845 615.5 m 128,-1,26
 765 674 765 674 627 674 c 2,27,-1
 397 674 l 1,28,-1
 397 167 l 1,29,-1
 618 167 l 2,30,31
 748 167 748 167 836.5 220 c 128,-1,32
 925 273 925 273 925 412 c 0,33,25
 925 557 925 557 845 615.5 c 128,-1,26
EndSplineSet
EndChar

StartChar: C
Encoding: 67 67 38
Width: 1260
GlyphClass: 2
Flags: W
AnchorPoint: "Anchor-7" 767 1447 basechar 0
AnchorPoint: "Anchor-6" 735 0 basechar 0
LayerCount: 2
Fore
SplineSet
989 1438.5 m 128,-1,1
 1087 1403 1087 1403 1178 1330 c 1,2,-1
 1066 1197 l 1,3,4
 938 1304 938 1304 765 1304 c 0,5,6
 643 1304 643 1304 548 1246.5 c 128,-1,7
 453 1189 453 1189 396 1059 c 128,-1,8
 339 929 339 929 339 725 c 0,9,10
 339 523 339 523 393.5 394.5 c 128,-1,11
 448 266 448 266 543 207 c 128,-1,12
 638 148 638 148 762 148 c 0,13,14
 870 148 870 148 948 180.5 c 128,-1,15
 1026 213 1026 213 1095 271 c 1,16,-1
 1199 138 l 1,17,18
 1123 63 1123 63 1013.5 18.5 c 128,-1,19
 904 -26 904 -26 757 -26 c 0,20,21
 575 -26 575 -26 431.5 61 c 128,-1,22
 288 148 288 148 205.5 317.5 c 128,-1,23
 123 487 123 487 123 725 c 0,24,25
 123 961 123 961 207 1130 c 128,-1,26
 291 1299 291 1299 434.5 1386.5 c 128,-1,27
 578 1474 578 1474 752 1474 c 0,28,0
 891 1474 891 1474 989 1438.5 c 128,-1,1
EndSplineSet
EndChar

StartChar: D
Encoding: 68 68 39
Width: 1260
GlyphClass: 2
Flags: W
AnchorPoint: "Anchor-7" 597 1447 basechar 0
AnchorPoint: "Anchor-6" 630 0 basechar 0
LayerCount: 2
Fore
SplineSet
978.5 160 m 128,-1,1
 789 0 789 0 506 0 c 2,2,-1
 165 0 l 1,3,-1
 165 1447 l 1,4,-1
 483 1447 l 2,5,6
 678 1447 678 1447 828.5 1389 c 128,-1,7
 979 1331 979 1331 1073.5 1172 c 128,-1,8
 1168 1013 1168 1013 1168 731 c 0,9,0
 1168 320 1168 320 978.5 160 c 128,-1,1
887 1079.5 m 128,-1,11
 827 1201 827 1201 736 1241.5 c 128,-1,12
 645 1282 645 1282 527 1282 c 2,13,-1
 373 1282 l 1,14,-1
 373 163 l 1,15,-1
 529 163 l 2,16,17
 712 163 712 163 829.5 288.5 c 128,-1,18
 947 414 947 414 947 731 c 0,19,10
 947 958 947 958 887 1079.5 c 128,-1,11
EndSplineSet
EndChar

StartChar: E
Encoding: 69 69 40
Width: 1260
GlyphClass: 2
Flags: W
AnchorPoint: "Anchor-7" 674 1447 basechar 0
AnchorPoint: "Anchor-6" 682 0 basechar 0
LayerCount: 2
Fore
SplineSet
461 818 m 1,0,-1
 992 818 l 1,1,-1
 992 653 l 1,2,-1
 461 653 l 1,3,-1
 461 163 l 1,4,-1
 1111 163 l 1,5,-1
 1111 0 l 1,6,-1
 252 0 l 1,7,-1
 252 1447 l 1,8,-1
 1095 1447 l 1,9,-1
 1071 1283 l 1,10,-1
 461 1283 l 1,11,-1
 461 818 l 1,0,-1
EndSplineSet
EndChar

StartChar: F
Encoding: 70 70 41
Width: 1260
GlyphClass: 2
Flags: W
AnchorPoint: "Anchor-7" 630 1447 basechar 0
AnchorPoint: "Anchor-6" 630 0 basechar 0
LayerCount: 2
Fore
SplineSet
488 796 m 1,0,-1
 1046 796 l 1,1,-1
 1046 633 l 1,2,-1
 488 633 l 1,3,-1
 488 0 l 1,4,-1
 280 0 l 1,5,-1
 280 1447 l 1,6,-1
 1149 1447 l 1,7,-1
 1125 1283 l 1,8,-1
 488 1283 l 1,9,-1
 488 796 l 1,0,-1
EndSplineSet
Substitution2: "<2,2> Cursive in Latin lookup 654 nested-substitutions 0 subtable" LIG
Substitution2: "<2,2> Cursive in Latin lookup 652 nested-substitutions 0 subtable" LIG
Substitution2: "<2,2> Cursive in Latin lookup 650 nested-substitutions 0 subtable" LIG
Substitution2: "<2,2> Cursive in Latin lookup 648 nested-substitutions 0 subtable" LIG
Substitution2: "Single Substitution lookup 241 subtable" LIG
Substitution2: "'aalt' Access All Alternates lookup 0 subtable" LIG
EndChar

StartChar: G
Encoding: 71 71 42
Width: 1260
GlyphClass: 2
Flags: W
AnchorPoint: "Anchor-7" 693 1447 basechar 0
AnchorPoint: "Anchor-6" 693 0 basechar 0
LayerCount: 2
Fore
SplineSet
355.5 58.5 m 128,-1,1
 227 143 227 143 157.5 311 c 128,-1,2
 88 479 88 479 88 725 c 0,3,4
 88 964 88 964 172.5 1133 c 128,-1,5
 257 1302 257 1302 398 1388 c 128,-1,6
 539 1474 539 1474 705 1474 c 0,7,8
 843 1474 843 1474 939.5 1434 c 128,-1,9
 1036 1394 1036 1394 1126 1311 c 1,10,-1
 1004 1185 l 1,11,12
 938 1247 938 1247 866.5 1275.5 c 128,-1,13
 795 1304 795 1304 708 1304 c 0,14,15
 598 1304 598 1304 508 1247 c 128,-1,16
 418 1190 418 1190 363.5 1060.5 c 128,-1,17
 309 931 309 931 309 725 c 0,18,19
 309 420 309 420 400.5 281.5 c 128,-1,20
 492 143 492 143 677 143 c 0,21,22
 816 143 816 143 937 209 c 1,23,-1
 937 632 l 1,24,-1
 669 632 l 1,25,-1
 645 798 l 1,26,-1
 1142 798 l 1,27,-1
 1142 103 l 1,28,29
 1029 41 1029 41 916.5 7.5 c 128,-1,30
 804 -26 804 -26 663 -26 c 0,31,0
 484 -26 484 -26 355.5 58.5 c 128,-1,1
EndSplineSet
EndChar

StartChar: H
Encoding: 72 72 43
Width: 1260
GlyphClass: 2
Flags: W
AnchorPoint: "Anchor-7" 630 1447 basechar 0
AnchorPoint: "Anchor-6" 630 0 basechar 0
LayerCount: 2
Fore
SplineSet
887 674 m 1,0,-1
 373 674 l 1,1,-1
 373 0 l 1,2,-1
 165 0 l 1,3,-1
 165 1447 l 1,4,-1
 373 1447 l 1,5,-1
 373 845 l 1,6,-1
 887 845 l 1,7,-1
 887 1447 l 1,8,-1
 1095 1447 l 1,9,-1
 1095 0 l 1,10,-1
 887 0 l 1,11,-1
 887 674 l 1,0,-1
EndSplineSet
EndChar

StartChar: I
Encoding: 73 73 44
Width: 1260
GlyphClass: 2
Flags: W
AnchorPoint: "Anchor-7" 630 1447 basechar 0
AnchorPoint: "Anchor-6" 630 0 basechar 0
LayerCount: 2
Fore
SplineSet
1053 1284 m 1,0,-1
 735 1284 l 1,1,-1
 735 164 l 1,2,-1
 1053 164 l 1,3,-1
 1053 0 l 1,4,-1
 207 0 l 1,5,-1
 207 164 l 1,6,-1
 525 164 l 1,7,-1
 525 1284 l 1,8,-1
 207 1284 l 1,9,-1
 207 1447 l 1,10,-1
 1053 1447 l 1,11,-1
 1053 1284 l 1,0,-1
EndSplineSet
EndChar

StartChar: J
Encoding: 74 74 45
Width: 1260
GlyphClass: 2
Flags: W
AnchorPoint: "Anchor-7" 735 1447 basechar 0
AnchorPoint: "Anchor-6" 630 0 basechar 0
LayerCount: 2
Fore
SplineSet
1053 487 m 2,0,1
 1053 348 1053 348 1003 233 c 128,-1,2
 953 118 953 118 839 46.5 c 128,-1,3
 725 -25 725 -25 545 -25 c 0,4,5
 433 -25 433 -25 331 8.5 c 128,-1,6
 229 42 229 42 141 107 c 1,7,-1
 230 243 l 1,8,9
 315 188 315 188 390 166 c 128,-1,10
 465 144 465 144 540 144 c 0,11,12
 684 144 684 144 764.5 237 c 128,-1,13
 845 330 845 330 845 496 c 2,14,-1
 845 1282 l 1,15,-1
 414 1282 l 1,16,-1
 414 1447 l 1,17,-1
 1053 1447 l 1,18,-1
 1053 487 l 2,0,1
EndSplineSet
EndChar

StartChar: K
Encoding: 75 75 46
Width: 1260
GlyphClass: 2
Flags: W
AnchorPoint: "Anchor-7" 677 1447 basechar 0
AnchorPoint: "Anchor-6" 670 0 basechar 0
LayerCount: 2
Fore
SplineSet
205 0 m 1,0,-1
 205 1447 l 1,1,-1
 413 1447 l 1,2,-1
 413 0 l 1,3,-1
 205 0 l 1,0,-1
965 1447 m 1,4,-1
 1199 1447 l 1,5,-1
 660 787 l 1,6,-1
 1239 0 l 1,7,-1
 985 0 l 1,8,-1
 423 773 l 1,9,-1
 965 1447 l 1,4,-1
EndSplineSet
EndChar

StartChar: L
Encoding: 76 76 47
Width: 1260
GlyphClass: 2
Flags: W
AnchorPoint: "Anchor-7" 376 1447 basechar 0
AnchorPoint: "Anchor-6" 691 0 basechar 0
LayerCount: 2
Fore
SplineSet
270 1447 m 1,0,-1
 479 1447 l 1,1,-1
 479 181 l 1,2,-1
 1134 181 l 1,3,-1
 1111 0 l 1,4,-1
 270 0 l 1,5,-1
 270 1447 l 1,0,-1
EndSplineSet
EndChar

StartChar: M
Encoding: 77 77 48
Width: 1260
GlyphClass: 2
Flags: W
AnchorPoint: "Anchor-7" 630 1447 basechar 0
AnchorPoint: "Anchor-6" 630 0 basechar 0
LayerCount: 2
Fore
SplineSet
1200 0 m 1,0,-1
 1005 0 l 1,1,-1
 964 734 l 2,2,3
 956 902 956 902 956 1096 c 0,4,5
 956 1220 956 1220 958 1260 c 1,6,-1
 727 257 l 1,7,-1
 531 257 l 1,8,-1
 284 1260 l 1,9,10
 290 1140 290 1140 290 965 c 0,11,12
 290 832 290 832 286 734 c 2,13,-1
 251 0 l 1,14,-1
 60 0 l 1,15,-1
 142 1447 l 1,16,-1
 412 1447 l 1,17,-1
 634 465 l 1,18,-1
 847 1447 l 1,19,-1
 1119 1447 l 1,20,-1
 1200 0 l 1,0,-1
EndSplineSet
EndChar

StartChar: N
Encoding: 78 78 49
Width: 1260
GlyphClass: 2
Flags: W
AnchorPoint: "Anchor-7" 631 1447 basechar 0
AnchorPoint: "Anchor-6" 630 0 basechar 0
LayerCount: 2
Fore
SplineSet
326 1255 m 1,0,-1
 331 1186 l 2,1,2
 354 880 354 880 354 696 c 2,3,-1
 354 0 l 1,4,-1
 165 0 l 1,5,-1
 165 1447 l 1,6,-1
 441 1447 l 1,7,-1
 935 189 l 1,8,-1
 932 232 l 1,9,10
 907 531 907 531 906 751 c 2,11,-1
 906 1447 l 1,12,-1
 1095 1447 l 1,13,-1
 1095 0 l 1,14,-1
 814 0 l 1,15,-1
 326 1255 l 1,0,-1
EndSplineSet
EndChar

StartChar: O
Encoding: 79 79 50
Width: 1260
GlyphClass: 2
Flags: W
AnchorPoint: "Anchor-7" 630 1447 basechar 0
AnchorPoint: "Anchor-6" 630 0 basechar 0
LayerCount: 2
Fore
SplineSet
1109.5 330.5 m 128,-1,1
 1048 162 1048 162 926 68 c 128,-1,2
 804 -26 804 -26 630 -26 c 0,3,4
 455 -26 455 -26 333.5 66 c 128,-1,5
 212 158 212 158 150.5 326 c 128,-1,6
 89 494 89 494 89 720 c 0,7,8
 89 945 89 945 150.5 1114.5 c 128,-1,9
 212 1284 212 1284 334 1379 c 128,-1,10
 456 1474 456 1474 630 1474 c 0,11,12
 805 1474 805 1474 926.5 1381.5 c 128,-1,13
 1048 1289 1048 1289 1109.5 1119.5 c 128,-1,14
 1171 950 1171 950 1171 723 c 0,15,0
 1171 499 1171 499 1109.5 330.5 c 128,-1,1
877 1160 m 128,-1,17
 800 1304 800 1304 630 1304 c 0,18,19
 461 1304 461 1304 384 1158.5 c 128,-1,20
 307 1013 307 1013 307 720 c 0,21,22
 307 431 307 431 385.5 287 c 128,-1,23
 464 143 464 143 630 143 c 0,24,25
 800 143 800 143 877 287 c 128,-1,26
 954 431 954 431 954 723 c 0,27,16
 954 1016 954 1016 877 1160 c 128,-1,17
EndSplineSet
Substitution2: "<11,2> Diagonal Fractions lookup 280 nested-substitutions 0 subtable" ordmasculine
Substitution2: "<11,2> Diagonal Fractions lookup 278 nested-substitutions 0 subtable" ordmasculine
Substitution2: "Single Substitution lookup 184 subtable" ordmasculine
Substitution2: "'aalt' Access All Alternates lookup 0 subtable" ordmasculine
EndChar

StartChar: P
Encoding: 80 80 51
Width: 1260
GlyphClass: 2
Flags: W
AnchorPoint: "Anchor-7" 630 1447 basechar 0
AnchorPoint: "Anchor-6" 630 0 basechar 0
LayerCount: 2
Fore
SplineSet
1026 642 m 128,-1,1
 876 528 876 528 614 528 c 2,2,-1
 434 528 l 1,3,-1
 434 0 l 1,4,-1
 225 0 l 1,5,-1
 225 1447 l 1,6,-1
 608 1447 l 2,7,8
 879 1447 879 1447 1027.5 1335.5 c 128,-1,9
 1176 1224 1176 1224 1176 999 c 0,10,0
 1176 756 1176 756 1026 642 c 128,-1,1
868.5 1218 m 128,-1,12
 781 1287 781 1287 628 1287 c 2,13,-1
 434 1287 l 1,14,-1
 434 692 l 1,15,-1
 625 692 l 2,16,17
 783 692 783 692 869.5 761.5 c 128,-1,18
 956 831 956 831 956 997 c 0,19,11
 956 1149 956 1149 868.5 1218 c 128,-1,12
EndSplineSet
EndChar

StartChar: Q
Encoding: 81 81 52
Width: 1260
GlyphClass: 2
Flags: W
AnchorPoint: "Anchor-7" 630 1447 basechar 0
AnchorPoint: "Anchor-6" 630 0 basechar 0
LayerCount: 2
Fore
SplineSet
1099.5 314.5 m 128,-1,1
 1029 147 1029 147 870 60 c 1,2,3
 976 40 976 40 1048.5 0 c 128,-1,4
 1121 -40 1121 -40 1171.5 -108 c 128,-1,5
 1222 -176 1222 -176 1258 -285 c 1,6,-1
 1052 -363 l 1,7,8
 1005 -244 1005 -244 950 -171 c 128,-1,9
 895 -98 895 -98 813 -59.5 c 128,-1,10
 731 -21 731 -21 609 -21 c 0,11,12
 443 -21 443 -21 326.5 70 c 128,-1,13
 210 161 210 161 150.5 327.5 c 128,-1,14
 91 494 91 494 91 720 c 0,15,16
 91 945 91 945 152.5 1114.5 c 128,-1,17
 214 1284 214 1284 335 1379 c 128,-1,18
 456 1474 456 1474 630 1474 c 0,19,20
 805 1474 805 1474 926 1381.5 c 128,-1,21
 1047 1289 1047 1289 1108.5 1119.5 c 128,-1,22
 1170 950 1170 950 1170 723 c 0,23,0
 1170 482 1170 482 1099.5 314.5 c 128,-1,1
877 1160 m 128,-1,25
 800 1304 800 1304 630 1304 c 0,26,27
 461 1304 461 1304 384.5 1158.5 c 128,-1,28
 308 1013 308 1013 308 720 c 0,29,30
 308 430 308 430 386 286.5 c 128,-1,31
 464 143 464 143 630 143 c 0,32,33
 800 143 800 143 877 287 c 128,-1,34
 954 431 954 431 954 723 c 0,35,24
 954 1016 954 1016 877 1160 c 128,-1,25
EndSplineSet
EndChar

StartChar: R
Encoding: 82 82 53
Width: 1260
GlyphClass: 2
Flags: W
AnchorPoint: "Anchor-7" 630 1447 basechar 0
AnchorPoint: "Anchor-6" 631 0 basechar 0
LayerCount: 2
Fore
SplineSet
1042.5 779 m 128,-1,1
 948 677 948 677 794 638 c 1,2,-1
 1215 0 l 1,3,-1
 968 0 l 1,4,-1
 587 610 l 1,5,-1
 407 610 l 1,6,-1
 407 0 l 1,7,-1
 198 0 l 1,8,-1
 198 1447 l 1,9,-1
 584 1447 l 2,10,11
 857 1447 857 1447 997 1343.5 c 128,-1,12
 1137 1240 1137 1240 1137 1037 c 0,13,0
 1137 881 1137 881 1042.5 779 c 128,-1,1
840 1228 m 128,-1,15
 764 1288 764 1288 602 1288 c 2,16,-1
 407 1288 l 1,17,-1
 407 769 l 1,18,-1
 604 769 l 2,19,20
 758 769 758 769 837 832.5 c 128,-1,21
 916 896 916 896 916 1037 c 0,22,14
 916 1168 916 1168 840 1228 c 128,-1,15
EndSplineSet
EndChar

StartChar: S
Encoding: 83 83 54
Width: 1260
GlyphClass: 2
Flags: W
AnchorPoint: "Anchor-7" 643 1447 basechar 0
AnchorPoint: "Anchor-6" 624 0 basechar 0
LayerCount: 2
Fore
SplineSet
1073 180 m 128,-1,1
 1009 83 1009 83 888 28.5 c 128,-1,2
 767 -26 767 -26 599 -26 c 0,3,4
 436 -26 436 -26 305 23 c 128,-1,5
 174 72 174 72 81 163 c 1,6,-1
 200 296 l 1,7,8
 279 222 279 222 377.5 183 c 128,-1,9
 476 144 476 144 601 144 c 0,10,11
 688 144 688 144 761 172.5 c 128,-1,12
 834 201 834 201 877.5 258 c 128,-1,13
 921 315 921 315 921 397 c 0,14,15
 921 466 921 466 893.5 513 c 128,-1,16
 866 560 866 560 800 596.5 c 128,-1,17
 734 633 734 633 612 669 c 0,18,19
 456 715 456 715 354.5 769.5 c 128,-1,20
 253 824 253 824 199.5 903 c 128,-1,21
 146 982 146 982 146 1093 c 256,22,23
 146 1204 146 1204 207.5 1290.5 c 128,-1,24
 269 1377 269 1377 378.5 1425.5 c 128,-1,25
 488 1474 488 1474 627 1474 c 0,26,27
 775 1474 775 1474 889.5 1431 c 128,-1,28
 1004 1388 1004 1388 1099 1304 c 1,29,-1
 983 1174 l 1,30,31
 908 1240 908 1240 819.5 1272 c 128,-1,32
 731 1304 731 1304 636 1304 c 0,33,34
 515 1304 515 1304 437 1252 c 128,-1,35
 359 1200 359 1200 359 1103 c 0,36,37
 359 1042 359 1042 391.5 1000 c 128,-1,38
 424 958 424 958 499 922 c 128,-1,39
 574 886 574 886 713 845 c 0,40,41
 846 806 846 806 937 756 c 128,-1,42
 1028 706 1028 706 1082.5 620.5 c 128,-1,43
 1137 535 1137 535 1137 404 c 0,44,0
 1137 277 1137 277 1073 180 c 128,-1,1
EndSplineSet
EndChar

StartChar: T
Encoding: 84 84 55
Width: 1260
GlyphClass: 2
Flags: W
AnchorPoint: "Anchor-7" 628 1447 basechar 0
AnchorPoint: "Anchor-6" 628 0 basechar 0
LayerCount: 2
Fore
SplineSet
731 0 m 1,0,-1
 523 0 l 1,1,-1
 523 1274 l 1,2,-1
 78 1274 l 1,3,-1
 78 1447 l 1,4,-1
 1184 1447 l 1,5,-1
 1162 1274 l 1,6,-1
 731 1274 l 1,7,-1
 731 0 l 1,0,-1
EndSplineSet
Substitution2: "<2,2> Cursive lookup 660 nested-substitutions 0 subtable" LIG
Substitution2: "<2,2> Cursive in Latin lookup 658 nested-substitutions 0 subtable" LIG
Substitution2: "<2,2> Cursive in Latin lookup 656 nested-substitutions 0 subtable" LIG
Substitution2: "Single Substitution lookup 242 subtable" LIG
Substitution2: "'aalt' Access All Alternates lookup 0 subtable" LIG
EndChar

StartChar: U
Encoding: 85 85 56
Width: 1260
GlyphClass: 2
Flags: W
AnchorPoint: "Anchor-7" 630 1447 basechar 0
AnchorPoint: "Anchor-6" 630 0 basechar 0
LayerCount: 2
Fore
SplineSet
1119 472 m 2,0,1
 1119 325 1119 325 1059.5 212 c 128,-1,2
 1000 99 1000 99 889 36.5 c 128,-1,3
 778 -26 778 -26 628 -26 c 0,4,5
 477 -26 477 -26 367 36.5 c 128,-1,6
 257 99 257 99 199.5 211 c 128,-1,7
 142 323 142 323 142 472 c 2,8,-1
 142 1447 l 1,9,-1
 350 1447 l 1,10,-1
 350 487 l 2,11,12
 350 317 350 317 419.5 232 c 128,-1,13
 489 147 489 147 628 147 c 0,14,15
 908 147 908 147 908 487 c 2,16,-1
 908 1447 l 1,17,-1
 1119 1447 l 1,18,-1
 1119 472 l 2,0,1
EndSplineSet
EndChar

StartChar: V
Encoding: 86 86 57
Width: 1260
GlyphClass: 2
Flags: W
AnchorPoint: "Anchor-7" 630 1447 basechar 0
AnchorPoint: "Anchor-6" 630 0 basechar 0
LayerCount: 2
Fore
SplineSet
1006 1447 m 1,0,-1
 1217 1447 l 1,1,-1
 744 0 l 1,2,-1
 517 0 l 1,3,-1
 43 1447 l 1,4,-1
 267 1447 l 1,5,-1
 634 217 l 1,6,-1
 1006 1447 l 1,0,-1
EndSplineSet
EndChar

StartChar: W
Encoding: 87 87 58
Width: 1260
GlyphClass: 2
Flags: W
AnchorPoint: "Anchor-7" 630 1447 basechar 0
AnchorPoint: "Anchor-6" 630 0 basechar 0
LayerCount: 2
Fore
SplineSet
1041 0 m 1,0,-1
 782 0 l 1,1,-1
 626 1083 l 1,2,-1
 467 0 l 1,3,-1
 203 0 l 1,4,-1
 7 1447 l 1,5,-1
 212 1447 l 1,6,-1
 350 215 l 1,7,-1
 515 1279 l 1,8,-1
 750 1279 l 1,9,-1
 906 215 l 1,10,-1
 1063 1447 l 1,11,-1
 1253 1447 l 1,12,-1
 1041 0 l 1,0,-1
EndSplineSet
EndChar

StartChar: X
Encoding: 88 88 59
Width: 1260
GlyphClass: 2
Flags: W
AnchorPoint: "Anchor-7" 630 1447 basechar 0
AnchorPoint: "Anchor-6" 630 0 basechar 0
LayerCount: 2
Fore
SplineSet
329 1447 m 1,0,-1
 630 906 l 1,1,-1
 934 1447 l 1,2,-1
 1157 1447 l 1,3,-1
 751 781 l 1,4,-1
 1205 0 l 1,5,-1
 969 0 l 1,6,-1
 626 638 l 1,7,-1
 279 0 l 1,8,-1
 56 0 l 1,9,-1
 503 771 l 1,10,-1
 93 1447 l 1,11,-1
 329 1447 l 1,0,-1
EndSplineSet
EndChar

StartChar: Y
Encoding: 89 89 60
Width: 1260
GlyphClass: 2
Flags: W
AnchorPoint: "Anchor-7" 636 1447 basechar 0
AnchorPoint: "Anchor-6" 630 0 basechar 0
LayerCount: 2
Fore
SplineSet
735 0 m 1,0,-1
 525 0 l 1,1,-1
 525 553 l 1,2,-1
 39 1447 l 1,3,-1
 269 1447 l 1,4,-1
 634 739 l 1,5,-1
 1004 1447 l 1,6,-1
 1221 1447 l 1,7,-1
 735 556 l 1,8,-1
 735 0 l 1,0,-1
EndSplineSet
EndChar

StartChar: Z
Encoding: 90 90 61
Width: 1260
GlyphClass: 2
Flags: W
AnchorPoint: "Anchor-7" 667 1447 basechar 0
AnchorPoint: "Anchor-6" 630 0 basechar 0
LayerCount: 2
Fore
SplineSet
1120 176 m 1,0,-1
 1095 0 l 1,1,-1
 139 0 l 1,2,-1
 139 166 l 1,3,-1
 892 1274 l 1,4,-1
 214 1274 l 1,5,-1
 214 1447 l 1,6,-1
 1119 1447 l 1,7,-1
 1119 1280 l 1,8,-1
 373 176 l 1,9,-1
 1120 176 l 1,0,-1
EndSplineSet
EndChar

StartChar: bracketleft
Encoding: 91 91 62
Width: 1260
GlyphClass: 2
Flags: W
LayerCount: 2
Fore
SplineSet
377 1715 m 1,0,-1
 923 1715 l 1,1,-1
 923 1548 l 1,2,-1
 567 1548 l 1,3,-1
 567 -80 l 1,4,-1
 923 -80 l 1,5,-1
 923 -245 l 1,6,-1
 377 -245 l 1,7,-1
 377 1715 l 1,0,-1
EndSplineSet
Substitution2: "<2,2> Cursive lookup 874 nested-substitutions 0 subtable" numbersign_bracketleft.liga
Substitution2: "<2,2> Cursive lookup 872 nested-substitutions 0 subtable" numbersign_bracketleft.liga
Substitution2: "<2,2> Cursive lookup 870 nested-substitutions 0 subtable" numbersign_bracketleft.liga
Substitution2: "<2,2> Cursive lookup 868 nested-substitutions 0 subtable" numbersign_bracketleft.liga
Substitution2: "<2,2> Cursive lookup 866 nested-substitutions 0 subtable" numbersign_bracketleft.liga
Substitution2: "<2,2> Cursive lookup 864 nested-substitutions 0 subtable" numbersign_bracketleft.liga
Substitution2: "<2,2> Cursive lookup 862 nested-substitutions 0 subtable" numbersign_bracketleft.liga
Substitution2: "<2,2> Cursive lookup 860 nested-substitutions 0 subtable" numbersign_bracketleft.liga
Substitution2: "<2,2> Cursive lookup 858 nested-substitutions 0 subtable" numbersign_bracketleft.liga
Substitution2: "<2,2> Cursive lookup 856 nested-substitutions 0 subtable" numbersign_bracketleft.liga
Substitution2: "<2,2> Cursive lookup 854 nested-substitutions 0 subtable" numbersign_bracketleft.liga
Substitution2: "<2,2> Cursive lookup 852 nested-substitutions 0 subtable" numbersign_bracketleft.liga
Substitution2: "<2,2> Cursive lookup 850 nested-substitutions 0 subtable" numbersign_bracketleft.liga
Substitution2: "<2,2> Cursive lookup 848 nested-substitutions 0 subtable" numbersign_bracketleft.liga
Substitution2: "<2,2> Cursive lookup 846 nested-substitutions 0 subtable" numbersign_bracketleft.liga
Substitution2: "<2,2> Cursive lookup 736 nested-substitutions 0 subtable" LIG
Substitution2: "<2,2> Cursive lookup 734 nested-substitutions 0 subtable" LIG
Substitution2: "<2,2> Cursive lookup 732 nested-substitutions 0 subtable" LIG
Substitution2: "<2,2> Cursive lookup 730 nested-substitutions 0 subtable" LIG
Substitution2: "<2,2> Cursive lookup 728 nested-substitutions 0 subtable" LIG
Substitution2: "Single Substitution lookup 262 subtable" numbersign_bracketleft.liga
Substitution2: "Single Substitution lookup 248 subtable" LIG
Substitution2: "'case' Case-Sensitive Forms lookup 13 subtable" bracketleft.case
AlternateSubs2: "'aalt' Access All Alternates lookup 1 subtable" bracketleft.case LIG numbersign_bracketleft.liga
EndChar

StartChar: backslash
Encoding: 92 92 63
Width: 1260
GlyphClass: 2
Flags: W
LayerCount: 2
Fore
SplineSet
263 1702 m 1,0,-1
 1158 -147 l 1,1,-1
 997 -220 l 1,2,-1
 102 1626 l 1,3,-1
 263 1702 l 1,0,-1
EndSplineSet
Substitution2: "<2,2> Cursive in Greek lookup 1002 nested-substitutions 0 subtable" LIG
Substitution2: "<2,2> Cursive in Greek lookup 1000 nested-substitutions 0 subtable" LIG
Substitution2: "<2,2> Cursive in Greek lookup 998 nested-substitutions 0 subtable" LIG
Substitution2: "<2,2> Cursive in Greek lookup 996 nested-substitutions 0 subtable" LIG
Substitution2: "<2,2> Cursive in Greek lookup 994 nested-substitutions 0 subtable" LIG
Substitution2: "<2,2> Cursive in Greek lookup 992 nested-substitutions 0 subtable" LIG
Substitution2: "<2,2> Cursive in Latin lookup 990 nested-substitutions 0 subtable" LIG
Substitution2: "<2,2> Cursive in Latin lookup 988 nested-substitutions 0 subtable" LIG
Substitution2: "<2,2> Cursive in Latin lookup 986 nested-substitutions 0 subtable" LIG
Substitution2: "<2,2> Cursive lookup 984 nested-substitutions 0 subtable" LIG
Substitution2: "<2,2> Cursive lookup 982 nested-substitutions 0 subtable" LIG
Substitution2: "<2,2> Cursive lookup 980 nested-substitutions 0 subtable" slash_backslash.liga
Substitution2: "<2,2> Cursive lookup 978 nested-substitutions 0 subtable" slash_backslash.liga
Substitution2: "<2,2> Cursive lookup 976 nested-substitutions 0 subtable" slash_backslash.liga
Substitution2: "<2,2> Cursive lookup 974 nested-substitutions 0 subtable" slash_backslash.liga
Substitution2: "<2,2> Cursive lookup 972 nested-substitutions 0 subtable" slash_backslash.liga
Substitution2: "<2,2> Cursive lookup 970 nested-substitutions 0 subtable" slash_backslash.liga
Substitution2: "<2,2> Cursive lookup 968 nested-substitutions 0 subtable" slash_backslash.liga
Substitution2: "<2,2> Cursive lookup 966 nested-substitutions 0 subtable" slash_backslash.liga
Substitution2: "<2,2> Cursive lookup 964 nested-substitutions 0 subtable" slash_backslash.liga
Substitution2: "<2,2> Cursive lookup 962 nested-substitutions 0 subtable" slash_backslash.liga
Substitution2: "<2,2> Cursive lookup 960 nested-substitutions 0 subtable" slash_backslash.liga
Substitution2: "<2,2> Cursive lookup 958 nested-substitutions 0 subtable" slash_backslash.liga
Substitution2: "Single Substitution lookup 277 subtable" backslash.ss08
Substitution2: "Single Substitution lookup 276 subtable" LIG
Substitution2: "Single Substitution lookup 275 subtable" slash_backslash.liga
AlternateSubs2: "'aalt' Access All Alternates lookup 1 subtable" slash_backslash.liga LIG
EndChar

StartChar: bracketright
Encoding: 93 93 64
Width: 1260
GlyphClass: 2
Flags: W
LayerCount: 2
Fore
SplineSet
883 -245 m 1,0,-1
 337 -245 l 1,1,-1
 337 -80 l 1,2,-1
 693 -80 l 1,3,-1
 693 1548 l 1,4,-1
 337 1548 l 1,5,-1
 337 1715 l 1,6,-1
 883 1715 l 1,7,-1
 883 -245 l 1,0,-1
EndSplineSet
Substitution2: "<2,2> Cursive lookup 736 nested-substitutions 0 subtable" LIG
Substitution2: "<2,2> Cursive lookup 734 nested-substitutions 0 subtable" LIG
Substitution2: "<2,2> Cursive lookup 732 nested-substitutions 0 subtable" LIG
Substitution2: "<2,2> Cursive lookup 730 nested-substitutions 0 subtable" LIG
Substitution2: "<2,2> Cursive lookup 728 nested-substitutions 0 subtable" LIG
Substitution2: "<2,2> Cursive lookup 722 nested-substitutions 0 subtable" bar_bracketright.liga
Substitution2: "<2,2> Cursive lookup 720 nested-substitutions 0 subtable" bar_bracketright.liga
Substitution2: "<2,2> Cursive lookup 718 nested-substitutions 0 subtable" bar_bracketright.liga
Substitution2: "<2,2> Cursive lookup 716 nested-substitutions 0 subtable" bar_bracketright.liga
Substitution2: "<2,2> Cursive lookup 714 nested-substitutions 0 subtable" bar_bracketright.liga
Substitution2: "<2,2> Cursive lookup 712 nested-substitutions 0 subtable" bar_bracketright.liga
Substitution2: "<2,2> Cursive lookup 710 nested-substitutions 0 subtable" bar_bracketright.liga
Substitution2: "<2,2> Cursive lookup 708 nested-substitutions 0 subtable" bar_bracketright.liga
Substitution2: "<2,2> Cursive lookup 706 nested-substitutions 0 subtable" bar_bracketright.liga
Substitution2: "<2,2> Cursive lookup 704 nested-substitutions 0 subtable" bar_bracketright.liga
Substitution2: "<2,2> Cursive lookup 702 nested-substitutions 0 subtable" bar_bracketright.liga
Substitution2: "Single Substitution lookup 248 subtable" LIG
Substitution2: "Single Substitution lookup 246 subtable" bar_bracketright.liga
Substitution2: "'case' Case-Sensitive Forms lookup 13 subtable" bracketright.case
AlternateSubs2: "'aalt' Access All Alternates lookup 1 subtable" bracketright.case bar_bracketright.liga LIG
EndChar

StartChar: asciicircum
Encoding: 94 94 65
Width: 1260
GlyphClass: 2
Flags: W
LayerCount: 2
Fore
SplineSet
1117 1107 m 1,0,-1
 904 1107 l 1,1,-1
 628 1592 l 1,2,-1
 354 1107 l 1,3,-1
 143 1107 l 1,4,-1
 540 1764 l 1,5,-1
 720 1764 l 1,6,-1
 1117 1107 l 1,0,-1
EndSplineSet
Substitution2: "<2,2> Cursive lookup 668 nested-substitutions 0 subtable" LIG
Substitution2: "<2,2> Cursive lookup 666 nested-substitutions 0 subtable" LIG
Substitution2: "<2,2> Cursive lookup 664 nested-substitutions 0 subtable" LIG
Substitution2: "<2,2> Cursive lookup 662 nested-substitutions 0 subtable" LIG
Substitution2: "Single Substitution lookup 243 subtable" LIG
Substitution2: "'aalt' Access All Alternates lookup 0 subtable" LIG
EndChar

StartChar: underscore
Encoding: 95 95 66
Width: 1260
GlyphClass: 2
Flags: W
LayerCount: 2
Fore
SplineSet
105 -211 m 1,0,-1
 1155 -211 l 1,1,-1
 1155 -382 l 1,2,-1
 105 -382 l 1,3,-1
 105 -211 l 1,0,-1
EndSplineSet
Substitution2: "<2,2> Cursive lookup 980 nested-substitutions 0 subtable" LIG
Substitution2: "<2,2> Cursive lookup 978 nested-substitutions 0 subtable" LIG
Substitution2: "<2,2> Cursive lookup 976 nested-substitutions 0 subtable" LIG
Substitution2: "<2,2> Cursive lookup 974 nested-substitutions 0 subtable" LIG
Substitution2: "<2,2> Cursive lookup 972 nested-substitutions 0 subtable" LIG
Substitution2: "<2,2> Cursive lookup 970 nested-substitutions 0 subtable" LIG
Substitution2: "<2,2> Cursive lookup 968 nested-substitutions 0 subtable" LIG
Substitution2: "<2,2> Cursive lookup 966 nested-substitutions 0 subtable" LIG
Substitution2: "<2,2> Cursive lookup 964 nested-substitutions 0 subtable" LIG
Substitution2: "<2,2> Cursive lookup 962 nested-substitutions 0 subtable" LIG
Substitution2: "<2,2> Cursive lookup 960 nested-substitutions 0 subtable" LIG
Substitution2: "<2,2> Cursive lookup 958 nested-substitutions 0 subtable" LIG
Substitution2: "<2,2> Cursive lookup 956 nested-substitutions 0 subtable" underscore_underscore.liga
Substitution2: "<2,2> Cursive lookup 954 nested-substitutions 0 subtable" underscore_underscore.liga
Substitution2: "<2,2> Cursive lookup 892 nested-substitutions 0 subtable" numbersign_underscore.liga
Substitution2: "<2,2> Cursive lookup 890 nested-substitutions 0 subtable" numbersign_underscore.liga
Substitution2: "<2,2> Cursive lookup 888 nested-substitutions 0 subtable" numbersign_underscore.liga
Substitution2: "<2,2> Cursive lookup 886 nested-substitutions 0 subtable" numbersign_underscore.liga
Substitution2: "<2,2> Cursive lookup 884 nested-substitutions 0 subtable" numbersign_underscore.liga
Substitution2: "<2,2> Cursive lookup 882 nested-substitutions 0 subtable" numbersign_underscore.liga
Substitution2: "<2,2> Cursive lookup 880 nested-substitutions 0 subtable" numbersign_underscore.liga
Substitution2: "<2,2> Cursive lookup 878 nested-substitutions 0 subtable" numbersign_underscore.liga
Substitution2: "<2,2> Cursive in Latin lookup 646 nested-substitutions 0 subtable" LIG
Substitution2: "<2,2> Cursive lookup 644 nested-substitutions 0 subtable" LIG
Substitution2: "<2,2> Cursive lookup 642 nested-substitutions 0 subtable" underscore_bar_underscore.liga
Substitution2: "<2,2> Cursive lookup 640 nested-substitutions 0 subtable" underscore_bar_underscore.liga
Substitution2: "<2,2> Cursive lookup 638 nested-substitutions 0 subtable" underscore_bar_underscore.liga
Substitution2: "<2,2> Cursive lookup 636 nested-substitutions 0 subtable" underscore_bar_underscore.liga
Substitution2: "<2,2> Cursive lookup 614 nested-substitutions 0 subtable" LIG
Substitution2: "<2,2> Cursive lookup 612 nested-substitutions 0 subtable" LIG
Substitution2: "<2,2> Cursive lookup 610 nested-substitutions 0 subtable" LIG
Substitution2: "<2,2> Cursive lookup 608 nested-substitutions 0 subtable" LIG
Substitution2: "<2,2> Cursive lookup 606 nested-substitutions 0 subtable" LIG
Substitution2: "<2,2> Cursive lookup 604 nested-substitutions 0 subtable" LIG
Substitution2: "<2,2> Cursive lookup 602 nested-substitutions 0 subtable" LIG
Substitution2: "<2,2> Cursive lookup 600 nested-substitutions 0 subtable" LIG
Substitution2: "Single Substitution lookup 275 subtable" LIG
Substitution2: "Single Substitution lookup 274 subtable" underscore_underscore.liga
Substitution2: "Single Substitution lookup 264 subtable" numbersign_underscore.liga
Substitution2: "Single Substitution lookup 240 subtable" LIG
Substitution2: "Single Substitution lookup 239 subtable" underscore_bar_underscore.liga
Substitution2: "Single Substitution lookup 233 subtable" LIG
AlternateSubs2: "'aalt' Access All Alternates lookup 1 subtable" LIG underscore_bar_underscore.liga numbersign_underscore.liga underscore_underscore.liga
EndChar

StartChar: grave
Encoding: 96 96 67
Width: 1260
GlyphClass: 2
Flags: W
LayerCount: 2
Fore
SplineSet
380 1502 m 1,0,-1
 480 1669 l 1,1,-1
 879 1416 l 1,2,-1
 816 1307 l 1,3,-1
 380 1502 l 1,0,-1
EndSplineSet
Substitution2: "'case' Case-Sensitive Forms lookup 13 subtable" grave.case
Substitution2: "'aalt' Access All Alternates lookup 0 subtable" grave.case
EndChar

StartChar: a
Encoding: 97 97 68
Width: 1260
GlyphClass: 2
Flags: W
AnchorPoint: "Anchor-7" 613 1107 basechar 0
AnchorPoint: "Anchor-6" 630 0 basechar 0
LayerCount: 2
Fore
SplineSet
1037.5 159 m 128,-1,1
 1058 128 1058 128 1104 113 c 1,2,-1
 1057 -25 l 1,3,4
 892 -4 892 -4 842 129 c 1,5,6
 783 53 783 53 692.5 13.5 c 128,-1,7
 602 -26 602 -26 493 -26 c 0,8,9
 383 -26 383 -26 301.5 16.5 c 128,-1,10
 220 59 220 59 176 136.5 c 128,-1,11
 132 214 132 214 132 317 c 0,12,13
 132 489 132 489 267 582 c 128,-1,14
 402 675 402 675 655 675 c 2,15,-1
 816 675 l 1,16,-1
 816 759 l 2,17,18
 816 869 816 869 750.5 919.5 c 128,-1,19
 685 970 685 970 560 970 c 0,20,21
 501 970 501 970 425.5 956 c 128,-1,22
 350 942 350 942 269 914 c 1,23,-1
 217 1061 l 1,24,25
 409 1133 409 1133 590 1133 c 0,26,27
 800 1133 800 1133 908.5 1037.5 c 128,-1,28
 1017 942 1017 942 1017 770 c 2,29,-1
 1017 254 l 2,30,0
 1017 190 1017 190 1037.5 159 c 128,-1,1
698.5 165 m 128,-1,32
 770 205 770 205 816 276 c 1,33,-1
 816 544 l 1,34,-1
 669 544 l 2,35,36
 500 544 500 544 423.5 487 c 128,-1,37
 347 430 347 430 347 322 c 0,38,39
 347 224 347 224 397.5 174.5 c 128,-1,40
 448 125 448 125 549 125 c 0,41,31
 627 125 627 125 698.5 165 c 128,-1,32
EndSplineSet
Substitution2: "<11,2> Diagonal Fractions lookup 280 nested-substitutions 0 subtable" ordfeminine
Substitution2: "<11,2> Diagonal Fractions lookup 278 nested-substitutions 0 subtable" ordfeminine
Substitution2: "Single Substitution lookup 184 subtable" ordfeminine
Substitution2: "'aalt' Access All Alternates lookup 0 subtable" ordfeminine
EndChar

StartChar: b
Encoding: 98 98 69
Width: 1260
GlyphClass: 2
Flags: W
AnchorPoint: "Anchor-7" 630 1552 basechar 0
AnchorPoint: "Anchor-6" 630 0 basechar 0
LayerCount: 2
Fore
SplineSet
541.5 1090 m 128,-1,1
 621 1133 621 1133 713 1133 c 0,2,3
 925 1133 925 1133 1026 981 c 128,-1,4
 1127 829 1127 829 1127 555 c 0,5,6
 1127 385 1127 385 1076 253.5 c 128,-1,7
 1025 122 1025 122 926.5 48 c 128,-1,8
 828 -26 828 -26 688 -26 c 0,9,10
 498 -26 498 -26 391 112 c 1,11,-1
 378 0 l 1,12,-1
 201 0 l 1,13,-1
 201 1552 l 1,14,-1
 402 1576 l 1,15,-1
 402 968 l 1,16,0
 462 1047 462 1047 541.5 1090 c 128,-1,1
841 237 m 128,-1,18
 911 342 911 342 911 555 c 0,19,20
 911 975 911 975 664 975 c 0,21,22
 584 975 584 975 518 927 c 128,-1,23
 452 879 452 879 402 804 c 1,24,-1
 402 269 l 1,25,26
 445 205 445 205 506 168.5 c 128,-1,27
 567 132 567 132 639 132 c 0,28,17
 771 132 771 132 841 237 c 128,-1,18
EndSplineSet
EndChar

StartChar: c
Encoding: 99 99 70
Width: 1260
GlyphClass: 2
Flags: W
AnchorPoint: "Anchor-7" 723 1088 basechar 0
AnchorPoint: "Anchor-6" 712 0 basechar 0
LayerCount: 2
Fore
SplineSet
997 241 m 1,1,-1
 1093 109 l 1,2,3
 1019 47 1019 47 916.5 10.5 c 128,-1,4
 814 -26 814 -26 712 -26 c 0,5,6
 547 -26 547 -26 428.5 45 c 128,-1,7
 310 116 310 116 247.5 245.5 c 128,-1,8
 185 375 185 375 185 548 c 0,9,10
 185 716 185 716 248 849 c 128,-1,11
 311 982 311 982 431 1057.5 c 128,-1,12
 551 1133 551 1133 715 1133 c 0,13,14
 930 1133 930 1133 1091 1003 c 1,15,-1
 996 872 l 1,16,17
 856 969 856 969 716 968 c 0,18,19
 621 968 621 968 550.5 922 c 128,-1,20
 480 876 480 876 440.5 782 c 128,-1,21
 401 688 401 688 401 548 c 0,22,23
 401 342 401 342 486 243 c 128,-1,24
 571 144 571 144 715 144 c 256,25,0
 859 144 859 144 997 241 c 1,1,-1
EndSplineSet
EndChar

StartChar: d
Encoding: 100 100 71
Width: 1260
GlyphClass: 2
Flags: W
AnchorPoint: "Anchor-7" 630 1552 basechar 0
AnchorPoint: "Anchor-6" 630 0 basechar 0
LayerCount: 2
Fore
SplineSet
1060 1552 m 1,0,-1
 1060 0 l 1,1,-1
 882 0 l 1,2,-1
 865 142 l 1,3,4
 806 58 806 58 727 16 c 128,-1,5
 648 -26 648 -26 552 -26 c 0,6,7
 344 -26 344 -26 238.5 129.5 c 128,-1,8
 133 285 133 285 133 552 c 0,9,10
 133 720 133 720 185.5 852 c 128,-1,11
 238 984 238 984 336.5 1058.5 c 128,-1,12
 435 1133 435 1133 569 1133 c 0,13,14
 748 1133 748 1133 858 1007 c 1,15,-1
 858 1576 l 1,16,-1
 1060 1552 l 1,0,-1
419.5 869.5 m 128,-1,18
 350 764 350 764 350 552 c 0,19,20
 350 341 350 341 414 237 c 128,-1,21
 478 133 478 133 601 133 c 0,22,23
 750 133 750 133 858 300 c 1,24,-1
 858 841 l 1,25,26
 814 905 814 905 753.5 940 c 128,-1,27
 693 975 693 975 622 975 c 0,28,17
 489 975 489 975 419.5 869.5 c 128,-1,18
EndSplineSet
EndChar

StartChar: e
Encoding: 101 101 72
Width: 1260
GlyphClass: 2
Flags: W
AnchorPoint: "Anchor-7" 651 1107 basechar 0
AnchorPoint: "Anchor-6" 630 0 basechar 0
LayerCount: 2
Fore
SplineSet
411.5 289.5 m 128,-1,1
 454 211 454 211 523 174 c 128,-1,2
 592 137 592 137 678 137 c 0,3,4
 759 137 759 137 828 161 c 128,-1,5
 897 185 897 185 971 235 c 1,6,-1
 1063 108 l 1,7,8
 984 45 984 45 882 9.5 c 128,-1,9
 780 -26 780 -26 672 -26 c 0,10,11
 508 -26 508 -26 391.5 46 c 128,-1,12
 275 118 275 118 214 248.5 c 128,-1,13
 153 379 153 379 153 552 c 0,14,15
 153 719 153 719 213.5 851 c 128,-1,16
 274 983 274 983 386 1058 c 128,-1,17
 498 1133 498 1133 647 1133 c 0,18,19
 789 1133 789 1133 893 1067 c 128,-1,20
 997 1001 997 1001 1052.5 877.5 c 128,-1,21
 1108 754 1108 754 1108 586 c 0,22,23
 1108 538 1108 538 1104 485 c 1,24,-1
 363 485 l 1,25,0
 369 368 369 368 411.5 289.5 c 128,-1,1
450 889 m 128,-1,27
 374 802 374 802 363 632 c 1,28,-1
 914 632 l 1,29,30
 911 799 911 799 841.5 887.5 c 128,-1,31
 772 976 772 976 649 976 c 256,32,26
 526 976 526 976 450 889 c 128,-1,27
EndSplineSet
EndChar

StartChar: f
Encoding: 102 102 73
Width: 1260
GlyphClass: 2
Flags: W
AnchorPoint: "Anchor-7" 777 1552 basechar 0
AnchorPoint: "Anchor-6" 551 0 basechar 0
LayerCount: 2
Fore
SplineSet
1030.5 1560.5 m 128,-1,1
 1106 1545 1106 1545 1176 1514 c 1,2,-1
 1113 1370 l 1,3,4
 1008 1416 1008 1416 876 1416 c 0,5,6
 763 1416 763 1416 707 1372 c 128,-1,7
 651 1328 651 1328 651 1236 c 2,8,-1
 651 1024 l 1,9,-1
 1025 1024 l 1,10,-1
 1003 871 l 1,11,-1
 651 871 l 1,12,-1
 651 0 l 1,13,-1
 451 0 l 1,14,-1
 451 871 l 1,15,-1
 191 871 l 1,16,-1
 191 1024 l 1,17,-1
 451 1024 l 1,18,-1
 451 1235 l 2,19,20
 451 1337 451 1337 503.5 1414 c 128,-1,21
 556 1491 556 1491 650 1533.5 c 128,-1,22
 744 1576 744 1576 863 1576 c 0,23,0
 955 1576 955 1576 1030.5 1560.5 c 128,-1,1
EndSplineSet
Substitution2: "<2,2> Cursive lookup 782 nested-substitutions 0 subtable" LIG
Substitution2: "<2,2> Cursive lookup 780 nested-substitutions 0 subtable" LIG
Substitution2: "<2,2> Cursive lookup 778 nested-substitutions 0 subtable" LIG
Substitution2: "<2,2> Cursive lookup 776 nested-substitutions 0 subtable" LIG
Substitution2: "<2,2> Cursive in Latin lookup 774 nested-substitutions 0 subtable" LIG
Substitution2: "<2,2> Cursive in Latin lookup 772 nested-substitutions 0 subtable" LIG
Substitution2: "<2,2> Cursive lookup 770 nested-substitutions 0 subtable" LIG
Substitution2: "Single Substitution lookup 254 subtable" LIG
Substitution2: "'aalt' Access All Alternates lookup 0 subtable" LIG
EndChar

StartChar: g
Encoding: 103 103 74
Width: 1260
GlyphClass: 2
Flags: W
AnchorPoint: "Anchor-7" 619 1107 basechar 0
AnchorPoint: "Anchor-6" 0 0 basechar 0
LayerCount: 2
Fore
SplineSet
1173 1057 m 1,0,1
 1109 1037 1109 1037 1033 1029.5 c 128,-1,2
 957 1022 957 1022 850 1022 c 1,3,4
 1046 934 1046 934 1046 743 c 0,5,6
 1046 634 1046 634 994.5 548 c 128,-1,7
 943 462 943 462 847 414.5 c 128,-1,8
 751 367 751 367 621 367 c 0,9,10
 570 367 570 367 533 371.5 c 128,-1,11
 496 376 496 376 461 386 c 1,12,13
 437 369 437 369 422 342 c 128,-1,14
 407 315 407 315 407 286 c 0,15,16
 407 245 407 245 439.5 221 c 128,-1,17
 472 197 472 197 551 197 c 2,18,-1
 748 197 l 2,19,20
 860 197 860 197 951 157.5 c 128,-1,21
 1042 118 1042 118 1093.5 48.5 c 128,-1,22
 1145 -21 1145 -21 1145 -106 c 0,23,24
 1145 -271 1145 -271 1004.5 -359.5 c 128,-1,25
 864 -448 864 -448 605 -448 c 0,26,27
 424 -448 424 -448 319.5 -411.5 c 128,-1,28
 215 -375 215 -375 170.5 -301.5 c 128,-1,29
 126 -228 126 -228 126 -111 c 1,30,-1
 308 -111 l 1,31,32
 308 -176 308 -176 332.5 -215 c 128,-1,33
 357 -254 357 -254 421.5 -273.5 c 128,-1,34
 486 -293 486 -293 605 -293 c 0,35,36
 780 -293 780 -293 860.5 -250 c 128,-1,37
 941 -207 941 -207 941 -120 c 0,38,39
 941 -48 941 -48 876.5 -8 c 128,-1,40
 812 32 812 32 706 32 c 2,41,-1
 511 32 l 2,42,43
 415 32 415 32 350.5 60 c 128,-1,44
 286 88 286 88 254.5 136 c 128,-1,45
 223 184 223 184 223 242 c 0,46,47
 223 297 223 297 254.5 348 c 128,-1,48
 286 399 286 399 344 438 c 1,49,50
 247 489 247 489 201.5 564 c 128,-1,51
 156 639 156 639 156 746 c 0,52,53
 156 858 156 858 213.5 946.5 c 128,-1,54
 271 1035 271 1035 373.5 1084 c 128,-1,55
 476 1133 476 1133 607 1133 c 0,56,57
 737 1133 737 1133 826 1145 c 128,-1,58
 915 1157 915 1157 976 1177.5 c 128,-1,59
 1037 1198 1037 1198 1114 1235 c 1,60,-1
 1173 1057 l 1,0,1
424.5 923.5 m 128,-1,62
 362 857 362 857 362 746 c 0,63,64
 362 634 362 634 425.5 567 c 128,-1,65
 489 500 489 500 612 500 c 0,66,67
 722 500 722 500 781.5 564.5 c 128,-1,68
 841 629 841 629 841 748 c 0,69,70
 841 868 841 868 782.5 929 c 128,-1,71
 724 990 724 990 608 990 c 0,72,61
 487 990 487 990 424.5 923.5 c 128,-1,62
EndSplineSet
EndChar

StartChar: h
Encoding: 104 104 75
Width: 1260
GlyphClass: 2
Flags: W
AnchorPoint: "Anchor-7" 630 1552 basechar 0
AnchorPoint: "Anchor-6" 630 0 basechar 0
LayerCount: 2
Fore
SplineSet
402 963 m 1,0,1
 467 1046 467 1046 559 1089.5 c 128,-1,2
 651 1133 651 1133 751 1133 c 0,3,4
 907 1133 907 1133 984.5 1048 c 128,-1,5
 1062 963 1062 963 1062 806 c 2,6,-1
 1062 0 l 1,7,-1
 860 0 l 1,8,-1
 860 788 l 2,9,10
 860 887 860 887 817.5 932 c 128,-1,11
 775 977 775 977 683 977 c 0,12,13
 601 977 601 977 527 925.5 c 128,-1,14
 453 874 453 874 402 800 c 1,15,-1
 402 0 l 1,16,-1
 201 0 l 1,17,-1
 201 1550 l 1,18,-1
 402 1572 l 1,19,-1
 402 963 l 1,0,1
EndSplineSet
EndChar

StartChar: i
Encoding: 105 105 76
Width: 1260
GlyphClass: 2
Flags: W
AnchorPoint: "Anchor-7" 0 0 basechar 0
AnchorPoint: "Anchor-6" 630 0 basechar 0
LayerCount: 2
Fore
SplineSet
731 1598 m 128,-1,1
 770 1560 770 1560 770 1503 c 0,2,3
 770 1444 770 1444 731 1405 c 128,-1,4
 692 1366 692 1366 630 1366 c 0,5,6
 569 1366 569 1366 530.5 1405 c 128,-1,7
 492 1444 492 1444 492 1503 c 0,8,9
 492 1560 492 1560 530.5 1598 c 128,-1,10
 569 1636 569 1636 630 1636 c 0,11,0
 692 1636 692 1636 731 1598 c 128,-1,1
780 153 m 1,12,-1
 1088 153 l 1,13,-1
 1088 0 l 1,14,-1
 242 0 l 1,15,-1
 242 153 l 1,16,-1
 579 153 l 1,17,-1
 579 954 l 1,18,-1
 252 954 l 1,19,-1
 252 1107 l 1,20,-1
 780 1107 l 1,21,-1
 780 153 l 1,12,-1
EndSplineSet
Substitution2: "<2,2> Cursive in Greek lookup 1002 nested-substitutions 0 subtable" i.salt_low
Substitution2: "<2,2> Cursive in Greek lookup 1000 nested-substitutions 0 subtable" i.salt_low
Substitution2: "<2,2> Cursive in Greek lookup 998 nested-substitutions 0 subtable" i.salt_low
Substitution2: "<2,2> Cursive in Greek lookup 996 nested-substitutions 0 subtable" i.salt_low
Substitution2: "<2,2> Cursive in Greek lookup 994 nested-substitutions 0 subtable" i.salt_low
Substitution2: "<2,2> Cursive in Greek lookup 992 nested-substitutions 0 subtable" i.salt_low
Substitution2: "<2,2> Cursive in Latin lookup 990 nested-substitutions 0 subtable" i.salt_low
Substitution2: "<2,2> Cursive in Latin lookup 988 nested-substitutions 0 subtable" i.salt_low
Substitution2: "<2,2> Cursive in Latin lookup 986 nested-substitutions 0 subtable" i.salt_low
Substitution2: "<2,2> Cursive lookup 984 nested-substitutions 0 subtable" i.salt_low
Substitution2: "<2,2> Cursive lookup 982 nested-substitutions 0 subtable" i.salt_low
Substitution2: "Single Substitution lookup 276 subtable" i.salt_low
Substitution2: "'locl' Localized Forms in Latin lookup 22 subtable" i.loclTRK
Substitution2: "'locl' Localized Forms in Latin lookup 20 subtable" i.loclTRK
Substitution2: "'locl' Localized Forms in Latin lookup 18 subtable" i.loclTRK
Substitution2: "'locl' Localized Forms in Latin lookup 15 subtable" i.loclTRK
Substitution2: "'locl' Localized Forms in Latin lookup 14 subtable" i.loclTRK
AlternateSubs2: "'aalt' Access All Alternates lookup 1 subtable" i.loclTRK i.salt_low
EndChar

